Version 0.01.ufo
<glyph name="quotedbl" format="1">
  <advance width="848"/>
  <unicode hex="0022"/>
  <outline>
    <contour>
      <point x="340" y="1637" type="line"/>
      <point x="299" y="1109" type="line"/>
      <point x="174" y="1109" type="line"/>
      <point x="133" y="1637" type="line"/>
    </contour>
    <contour>
      <point x="714" y="1637" type="line"/>
      <point x="674" y="1109" type="line"/>
      <point x="549" y="1109" type="line"/>
      <point x="508" y="1637" type="line"/>
    </contour>
  </outline>
</glyph>
<glyph name="numbersign" format="1">
  <advance width="1323"/>
  <unicode hex="0023"/>
  <outline>
    <contour>
      <point x="984" y="899" type="line"/>
      <point x="919" y="559" type="line"/>
      <point x="1200" y="559" type="line"/>
      <point x="1200" y="428" type="line"/>
      <point x="893" y="428" type="line"/>
      <point x="809" y="0" type="line"/>
      <point x="670" y="0" type="line"/>
      <point x="754" y="428" type="line"/>
      <point x="449" y="428" type="line"/>
      <point x="369" y="0" type="line"/>
      <point x="231" y="0" type="line"/>
      <point x="309" y="428" type="line"/>
      <point x="51" y="428" type="line"/>
      <point x="51" y="559" type="line"/>
      <point x="335" y="559" type="line"/>
      <point x="402" y="899" type="line"/>
      <point x="127" y="899" type="line"/>
      <point x="127" y="1028" type="line"/>
      <point x="426" y="1028" type="line"/>
      <point x="508" y="1462" type="line"/>
      <point x="649" y="1462" type="line"/>
      <point x="567" y="1028" type="line"/>
      <point x="874" y="1028" type="line"/>
      <point x="956" y="1462" type="line"/>
      <point x="1092" y="1462" type="line"/>
      <point x="1010" y="1028" type="line"/>
      <point x="1270" y="1028" type="line"/>
      <point x="1270" y="899" type="line"/>
    </contour>
    <contour>
      <point x="474" y="559" type="line"/>
      <point x="779" y="559" type="line"/>
      <point x="845" y="899" type="line"/>
      <point x="540" y="899" type="line"/>
    </contour>
  </outline>
</glyph>
<glyph name="parenleft" format="1">
  <advance width="644"/>
  <unicode hex="0028"/>
  <outline>
    <contour>
      <point x="418" y="1637" type="qcurve"/>
      <point x="583" y="1637" type="line"/>
      <point x="429" y="1411"/>
      <point x="277" y="883"/>
      <point x="277" y="590" type="qcurve" smooth="yes"/>
      <point x="277.0" y="299.5" name="inserted"/>
      <point x="429.0" y="-217.0"/>
      <point x="581" y="-443" type="qcurve"/>
      <point x="418" y="-443" type="line"/>
      <point x="345.5" y="-347.0" name="inserted"/>
      <point x="232.5" y="-114.5"/>
      <point x="192" y="22" type="qcurve" smooth="yes"/>
      <point x="152.0" y="159.5" name="inserted"/>
      <point x="112.0" y="442.5"/>
      <point x="112" y="588" type="qcurve" smooth="yes"/>
      <point x="112.0" y="733.0" name="inserted"/>
      <point x="152.5" y="1017.0"/>
      <point x="193" y="1156" type="qcurve" smooth="yes"/>
      <point x="233.5" y="1295.5" name="inserted"/>
      <point x="346.0" y="1536.0"/>
    </contour>
  </outline>
</glyph>
<glyph name="plus" format="1">
  <advance width="1171"/>
  <unicode hex="002B"/>
  <outline>
    <contour>
      <point x="657" y="795" type="line"/>
      <point x="1065" y="795" type="line"/>
      <point x="1065" y="649" type="line"/>
      <point x="657" y="649" type="line"/>
      <point x="657" y="227" type="line"/>
      <point x="510" y="227" type="line"/>
      <point x="510" y="649" type="line"/>
      <point x="102" y="649" type="line"/>
      <point x="102" y="795" type="line"/>
      <point x="510" y="795" type="line"/>
      <point x="510" y="1219" type="line"/>
      <point x="657" y="1219" type="line"/>
    </contour>
  </outline>
</glyph>
<glyph name="five" format="1">
  <advance width="1296"/>
  <unicode hex="0035"/>
  <outline>
    <contour>
      <point x="649" y="913" type="line"/>
      <point x="783" y="913"/>
      <point x="989" y="845"/>
      <point x="1059.5" y="783.5" type="qcurve" smooth="yes" name="inserted"/>
      <point x="1130" y="722"/>
      <point x="1203" y="553"/>
      <point x="1203" y="453" type="qcurve" smooth="yes"/>
      <point x="1203" y="439"/>
      <point x="1202" y="413"/>
      <point x="1201" y="399" type="qcurve" smooth="yes"/>
      <point x="1199" y="364"/>
      <point x="1172" y="276"/>
      <point x="1144.5" y="230.5" type="qcurve" smooth="yes" name="inserted"/>
      <point x="1117" y="185"/>
      <point x="1029" y="98"/>
      <point x="966.0" y="64.0" type="qcurve" smooth="yes" name="inserted"/>
      <point x="903" y="30"/>
      <point x="734" y="-11"/>
      <point x="626" y="-11" type="qcurve" smooth="yes"/>
      <point x="494" y="-11"/>
      <point x="304" y="44"/>
      <point x="238.0" y="84.5" type="qcurve" smooth="yes" name="inserted"/>
      <point x="172" y="125"/>
      <point x="89" y="216"/>
      <point x="65" y="251" type="qcurve"/>
      <point x="60" y="260" type="line"/>
      <point x="264" y="357" type="line"/>
      <point x="270" y="352" type="line"/>
      <point x="281" y="337"/>
      <point x="326" y="286"/>
      <point x="367.5" y="261.5" type="qcurve" smooth="yes" name="inserted"/>
      <point x="409" y="237"/>
      <point x="534" y="202"/>
      <point x="626" y="202" type="qcurve" smooth="yes"/>
      <point x="716" y="202"/>
      <point x="837" y="240"/>
      <point x="875.0" y="267.0" type="qcurve" smooth="yes" name="inserted"/>
      <point x="913" y="294"/>
      <point x="952" y="355"/>
      <point x="960" y="378" type="qcurve"/>
      <point x="965" y="402"/>
      <point x="969" y="424"/>
      <point x="969.0" y="430.0" type="qcurve" smooth="yes" name="inserted"/>
      <point x="969" y="436"/>
      <point x="968" y="446"/>
      <point x="968" y="458" type="qcurve" smooth="yes"/>
      <point x="968" y="472"/>
      <point x="966" y="503"/>
      <point x="964" y="520" type="qcurve" smooth="yes"/>
      <point x="957" y="586"/>
      <point x="872" y="657"/>
      <point x="801.0" y="673.0" type="qcurve" smooth="yes" name="inserted"/>
      <point x="730" y="689"/>
      <point x="537" y="693"/>
      <point x="421" y="693" type="qcurve" smooth="yes"/>
      <point x="203" y="693" type="line"/>
      <point x="203" y="1459" type="line"/>
      <point x="1100" y="1459" type="line"/>
      <point x="1100" y="1245" type="line"/>
      <point x="429" y="1245" type="line"/>
      <point x="429" y="913" type="line"/>
      <point x="649" y="913" type="line"/>
    </contour>
  </outline>
</glyph>
<glyph name="seven" format="1">
  <advance width="1373"/>
  <unicode hex="0037"/>
  <outline>
    <contour>
      <point x="80" y="1465" type="line"/>
      <point x="1325" y="1465" type="line"/>
      <point x="1264.5" y="1391.5" name="inserted"/>
      <point x="1151.0" y="1248.0"/>
      <point x="1098" y="1178" type="qcurve" smooth="yes"/>
      <point x="1053" y="1118"/>
      <point x="960" y="990"/>
      <point x="918.0" y="927.5" type="qcurve" smooth="yes" name="inserted"/>
      <point x="876" y="865"/>
      <point x="808" y="748"/>
      <point x="787" y="700" type="qcurve" smooth="yes"/>
      <point x="761" y="641"/>
      <point x="721" y="519"/>
      <point x="705.0" y="459.5" type="qcurve" smooth="yes" name="inserted"/>
      <point x="689" y="400"/>
      <point x="665" y="287"/>
      <point x="656" y="237" type="qcurve" smooth="yes"/>
      <point x="646.0" y="178.5" name="inserted"/>
      <point x="631.0" y="65.5"/>
      <point x="626" y="11" type="qcurve"/>
      <point x="380" y="11" type="line"/>
      <point x="384.5" y="68.5" name="inserted"/>
      <point x="399.0" y="187.0"/>
      <point x="409" y="248" type="qcurve" smooth="yes"/>
      <point x="418" y="300"/>
      <point x="442" y="418"/>
      <point x="458.5" y="481.0" type="qcurve" smooth="yes" name="inserted"/>
      <point x="475" y="544"/>
      <point x="516" y="674"/>
      <point x="542" y="737" type="qcurve" smooth="yes"/>
      <point x="590" y="854"/>
      <point x="698" y="1039"/>
      <point x="744" y="1105" type="qcurve" smooth="yes"/>
      <point x="771.0" y="1143.5" name="inserted"/>
      <point x="824.0" y="1210.5"/>
      <point x="850" y="1239" type="qcurve"/>
      <point x="80" y="1239" type="line"/>
    </contour>
  </outline>
</glyph>
<glyph name="nine" format="1">
  <advance width="1292"/>
  <unicode hex="0039"/>
  <outline>
    <contour>
      <point x="631" y="617" type="qcurve" smooth="yes"/>
      <point x="637" y="617"/>
      <point x="649" y="613"/>
      <point x="651" y="613" type="qcurve" smooth="yes"/>
      <point x="727" y="613"/>
      <point x="845" y="667"/>
      <point x="886.0" y="711.0" type="qcurve" smooth="yes" name="inserted"/>
      <point x="927" y="755"/>
      <point x="970" y="867"/>
      <point x="970" y="926" type="qcurve" smooth="yes"/>
      <point x="970" y="989"/>
      <point x="919" y="1095"/>
      <point x="875.5" y="1132.5" type="qcurve" smooth="yes" name="inserted"/>
      <point x="832" y="1170"/>
      <point x="716" y="1212"/>
      <point x="651" y="1212" type="qcurve" smooth="yes"/>
      <point x="578" y="1212"/>
      <point x="461" y="1161"/>
      <point x="419.5" y="1119.0" type="qcurve" smooth="yes" name="inserted"/>
      <point x="378" y="1077"/>
      <point x="334" y="971"/>
      <point x="334" y="916" type="qcurve" smooth="yes"/>
      <point x="334" y="864"/>
      <point x="377" y="757"/>
      <point x="416.0" y="714.0" type="qcurve" smooth="yes" name="inserted"/>
      <point x="455" y="671"/>
      <point x="565" y="617"/>
    </contour>
    <contour>
      <point x="1173" y="1081" type="qcurve" smooth="yes"/>
      <point x="1189" y="1032"/>
      <point x="1202" y="935"/>
      <point x="1202" y="884" type="qcurve" smooth="yes"/>
      <point x="1202" y="880" type="line"/>
      <point x="1200" y="856"/>
      <point x="1190" y="789"/>
      <point x="1183" y="749" type="qcurve" smooth="yes"/>
      <point x="1173" y="693"/>
      <point x="1108" y="531"/>
      <point x="1039.0" y="428.5" type="qcurve" smooth="yes" name="inserted"/>
      <point x="970" y="326"/>
      <point x="742" y="80"/>
      <point x="568" y="-60" type="qcurve"/>
      <point x="564" y="-66" type="line"/>
      <point x="414" y="91" type="line"/>
      <point x="421" y="97" type="line" smooth="yes"/>
      <point x="529" y="182"/>
      <point x="687" y="338"/>
      <point x="747" y="411" type="qcurve"/>
      <point x="724" y="409"/>
      <point x="679" y="403"/>
      <point x="657" y="403" type="qcurve" smooth="yes"/>
      <point x="584" y="403"/>
      <point x="445" y="438"/>
      <point x="383.5" y="470.0" type="qcurve" smooth="yes" name="inserted"/>
      <point x="322" y="502"/>
      <point x="220" y="593"/>
      <point x="182.5" y="649.0" type="qcurve" smooth="yes" name="inserted"/>
      <point x="145" y="705"/>
      <point x="104" y="836"/>
      <point x="104" y="908" type="qcurve" smooth="yes"/>
      <point x="104" y="1013"/>
      <point x="190" y="1201"/>
      <point x="264.5" y="1271.5" type="qcurve" smooth="yes" name="inserted"/>
      <point x="339" y="1342"/>
      <point x="538" y="1425"/>
      <point x="651" y="1425" type="qcurve" smooth="yes"/>
      <point x="686" y="1425" type="line"/>
      <point x="798" y="1417"/>
      <point x="984" y="1332"/>
      <point x="1054" y="1262" type="qcurve"/>
      <point x="1054" y="1260"/>
      <point x="1063" y="1256"/>
      <point x="1066" y="1251" type="qcurve"/>
      <point x="1102.0" y="1213.0" name="inserted"/>
      <point x="1155.5" y="1128.0"/>
    </contour>
  </outline>
</glyph>
<glyph name="semicolon" format="1">
  <advance width="588"/>
  <unicode hex="003B"/>
  <outline>
    <contour>
      <point x="291" y="1093" type="qcurve" smooth="yes"/>
      <point x="352.5" y="1093.0" name="inserted"/>
      <point x="414.0" y="1026.5"/>
      <point x="414" y="960" type="qcurve" smooth="yes"/>
      <point x="414" y="896"/>
      <point x="349" y="827"/>
      <point x="291" y="827" type="qcurve" smooth="yes"/>
      <point x="234" y="827"/>
      <point x="172" y="896"/>
      <point x="172" y="960" type="qcurve" smooth="yes"/>
      <point x="172" y="1026"/>
      <point x="233" y="1093"/>
    </contour>
    <contour>
      <point x="402" y="205" type="line"/>
      <point x="416" y="182" type="line"/>
      <point x="389.0" y="80.0" name="inserted"/>
      <point x="301.0" y="-159.5"/>
      <point x="240" y="-297" type="qcurve"/>
      <point x="104" y="-297" type="line"/>
      <point x="144" y="-148"/>
      <point x="200" y="102"/>
      <point x="217" y="205" type="qcurve"/>
    </contour>
  </outline>
</glyph>
<glyph name="asciicircum" format="1">
  <advance width="1171"/>
  <unicode hex="005E"/>
  <outline>
    <contour>
      <point x="78" y="547" type="line"/>
      <point x="512" y="1473" type="line"/>
      <point x="614" y="1473" type="line"/>
      <point x="1094" y="547" type="line"/>
      <point x="934" y="547" type="line"/>
      <point x="565" y="1282" type="line"/>
      <point x="238" y="547" type="line"/>
    </contour>
  </outline>
</glyph>
<glyph name="underscore" format="1">
  <advance width="909"/>
  <unicode hex="005F"/>
  <outline>
    <contour>
      <point x="913" y="-315" type="line"/>
      <point x="-4" y="-315" type="line"/>
      <point x="-4" y="-184" type="line"/>
      <point x="913" y="-184" type="line"/>
    </contour>
  </outline>
</glyph>
<glyph name="divide" format="1">
  <advance width="1171"/>
  <unicode hex="00F7"/>
  <outline>
    <contour>
      <point x="584" y="1194" type="qcurve" smooth="yes"/>
      <point x="639" y="1194"/>
      <point x="696" y="1131"/>
      <point x="696" y="1071" type="qcurve" smooth="yes"/>
      <point x="696" y="1011"/>
      <point x="635" y="946"/>
      <point x="584" y="946" type="qcurve" smooth="yes"/>
      <point x="533" y="946"/>
      <point x="469" y="1007"/>
      <point x="469" y="1071" type="qcurve" smooth="yes"/>
      <point x="469" y="1131"/>
      <point x="527" y="1194"/>
    </contour>
    <contour>
      <point x="102" y="649" type="line"/>
      <point x="102" y="795" type="line"/>
      <point x="1067" y="795" type="line"/>
      <point x="1067" y="649" type="line"/>
    </contour>
    <contour>
      <point x="584" y="496" type="qcurve" smooth="yes"/>
      <point x="639" y="496"/>
      <point x="696" y="433"/>
      <point x="696" y="373" type="qcurve" smooth="yes"/>
      <point x="696" y="313"/>
      <point x="635" y="248"/>
      <point x="584" y="248" type="qcurve" smooth="yes"/>
      <point x="533" y="248"/>
      <point x="469" y="309"/>
      <point x="469" y="373" type="qcurve" smooth="yes"/>
      <point x="469" y="433"/>
      <point x="527" y="496"/>
    </contour>
  </outline>
</glyph>
<glyph name="uni0D85" format="1">
  <advance width="1877"/>
  <unicode hex="0D85"/>
  <outline>
    <contour>
      <point x="1052" y="630" type="line"/>
      <point x="986" y="629"/>
      <point x="828" y="624"/>
      <point x="747.5" y="615.5" type="qcurve" smooth="yes" name="inserted"/>
      <point x="667" y="607"/>
      <point x="516" y="578"/>
      <point x="457.5" y="554.0" type="qcurve" smooth="yes" name="inserted"/>
      <point x="399" y="530"/>
      <point x="328" y="460"/>
      <point x="328" y="412" type="qcurve" smooth="yes"/>
      <point x="328" y="357"/>
      <point x="388" y="272"/>
      <point x="436.5" y="239.5" type="qcurve" smooth="yes" name="inserted"/>
      <point x="485" y="207"/>
      <point x="609" y="162"/>
      <point x="673.5" y="148.0" type="qcurve" smooth="yes" name="inserted"/>
      <point x="738" y="134"/>
      <point x="861" y="121"/>
      <point x="908" y="121" type="qcurve" smooth="yes"/>
      <point x="959" y="121"/>
      <point x="1016" y="153"/>
      <point x="1030.0" y="173.5" type="qcurve" smooth="yes" name="inserted"/>
      <point x="1044" y="194"/>
      <point x="1051" y="233"/>
      <point x="1051" y="240" type="qcurve" smooth="yes"/>
    </contour>
    <contour>
      <point x="665" y="1002" type="line" smooth="yes"/>
      <point x="672" y="1002"/>
      <point x="700" y="1007"/>
      <point x="714.5" y="1016.0" type="qcurve" smooth="yes" name="inserted"/>
      <point x="729" y="1025"/>
      <point x="751" y="1062"/>
      <point x="753" y="1094" type="qcurve"/>
      <point x="753" y="1113"/>
      <point x="739" y="1147"/>
      <point x="726.5" y="1159.5" type="qcurve" smooth="yes" name="inserted"/>
      <point x="714" y="1172"/>
      <point x="680" y="1186"/>
      <point x="661" y="1186" type="qcurve" smooth="yes"/>
      <point x="643" y="1186"/>
      <point x="610" y="1172"/>
      <point x="598.0" y="1159.5" type="qcurve" smooth="yes" name="inserted"/>
      <point x="586" y="1147"/>
      <point x="572" y="1113"/>
      <point x="572" y="1094" type="qcurve" smooth="yes"/>
      <point x="572" y="1075"/>
      <point x="586" y="1041"/>
      <point x="598.0" y="1028.5" type="qcurve" smooth="yes" name="inserted"/>
      <point x="610" y="1016"/>
      <point x="643" y="1002"/>
      <point x="661" y="1002" type="qcurve" smooth="yes"/>
    </contour>
    <contour>
      <point x="1759" y="1198" type="qcurve" smooth="yes"/>
      <point x="1768" y="1187"/>
      <point x="1786" y="1161"/>
      <point x="1793.5" y="1138.5" type="qcurve" smooth="yes" name="inserted"/>
      <point x="1801" y="1116"/>
      <point x="1811" y="1044"/>
      <point x="1811" y="986" type="qcurve"/>
      <point x="1644" y="986" type="line"/>
      <point x="1644" y="1038" type="line" smooth="yes"/>
      <point x="1644" y="1061"/>
      <point x="1613" y="1091"/>
      <point x="1592" y="1091" type="qcurve" smooth="yes"/>
      <point x="1571" y="1091"/>
      <point x="1537" y="1061"/>
      <point x="1537" y="1038" type="qcurve" smooth="yes"/>
      <point x="1537" y="-484" type="line"/>
      <point x="1356" y="-484" type="line"/>
      <point x="1356" y="630" type="line"/>
      <point x="1233" y="630" type="line"/>
      <point x="1233" y="239" type="line" smooth="yes"/>
      <point x="1233" y="194"/>
      <point x="1198" y="90"/>
      <point x="1159.5" y="45.0" type="qcurve" smooth="yes" name="inserted"/>
      <point x="1121" y="0"/>
      <point x="997" y="-60"/>
      <point x="908" y="-60" type="qcurve" smooth="yes"/>
      <point x="831" y="-60"/>
      <point x="659" y="-38"/>
      <point x="574.5" y="-15.0" type="qcurve" smooth="yes" name="inserted"/>
      <point x="490" y="8"/>
      <point x="335" y="83"/>
      <point x="276.0" y="135.0" type="qcurve" smooth="yes" name="inserted"/>
      <point x="217" y="187"/>
      <point x="147" y="325"/>
      <point x="147" y="412" type="qcurve" smooth="yes"/>
      <point x="147" y="458"/>
      <point x="179" y="561"/>
      <point x="223.0" y="609.5" type="qcurve" smooth="yes" name="inserted"/>
      <point x="267" y="658"/>
      <point x="422" y="741"/>
      <point x="545" y="768" type="qcurve" smooth="yes"/>
      <point x="607" y="781"/>
      <point x="740" y="798"/>
      <point x="806.0" y="803.0" type="qcurve" smooth="yes" name="inserted"/>
      <point x="872" y="808"/>
      <point x="998" y="813"/>
      <point x="1052" y="813" type="qcurve"/>
      <point x="1052" y="1034" type="line" smooth="yes"/>
      <point x="1052" y="1059"/>
      <point x="1030" y="1106"/>
      <point x="1011.5" y="1127.0" type="qcurve" smooth="yes" name="inserted"/>
      <point x="993" y="1148"/>
      <point x="942" y="1181"/>
      <point x="913" y="1192" type="qcurve"/>
      <point x="923.5" y="1168.5" name="inserted"/>
      <point x="934.0" y="1122.5"/>
      <point x="934" y="1100" type="qcurve" smooth="yes"/>
      <point x="934" y="1053"/>
      <point x="896" y="958"/>
      <point x="861.5" y="919.5" type="qcurve" smooth="yes" name="inserted"/>
      <point x="827" y="881"/>
      <point x="731" y="833"/>
      <point x="674" y="833" type="qcurve" smooth="yes"/>
      <point x="604" y="833"/>
      <point x="501" y="880"/>
      <point x="467.5" y="918.5" type="qcurve" smooth="yes" name="inserted"/>
      <point x="434" y="957"/>
      <point x="401" y="1053"/>
      <point x="401" y="1101" type="qcurve" smooth="yes"/>
      <point x="401" y="1173"/>
      <point x="473" y="1281"/>
      <point x="532.5" y="1318.0" type="qcurve" smooth="yes" name="inserted"/>
      <point x="592" y="1355"/>
      <point x="742" y="1392"/>
      <point x="820" y="1392" type="qcurve" smooth="yes"/>
      <point x="903" y="1392"/>
      <point x="1053" y="1334"/>
      <point x="1109.5" y="1284.5" type="qcurve" smooth="yes" name="inserted"/>
      <point x="1166" y="1235"/>
      <point x="1233" y="1105"/>
      <point x="1233" y="1034" type="qcurve" smooth="yes"/>
      <point x="1233" y="813" type="line"/>
      <point x="1356" y="814" type="line"/>
      <point x="1356" y="1035" type="line"/>
      <point x="1356" y="1044" type="line" smooth="yes"/>
      <point x="1356" y="1054"/>
      <point x="1360" y="1095"/>
      <point x="1367.0" y="1119.5" type="qcurve" smooth="yes" name="inserted"/>
      <point x="1374" y="1144"/>
      <point x="1404" y="1197"/>
      <point x="1430.5" y="1218.5" type="qcurve" smooth="yes" name="inserted"/>
      <point x="1457" y="1240"/>
      <point x="1535" y="1267"/>
      <point x="1592" y="1267" type="qcurve" smooth="yes"/>
      <point x="1656" y="1267"/>
      <point x="1739" y="1223"/>
    </contour>
  </outline>
</glyph>
<glyph name="uni0D8A" format="1">
  <advance width="2087"/>
  <unicode hex="0D8A"/>
  <outline>
    <contour>
      <point x="803" y="1053" type="qcurve"/>
      <point x="802" y="1053"/>
      <point x="837" y="1048"/>
      <point x="858.0" y="1037.0" type="qcurve" smooth="yes" name="inserted"/>
      <point x="879" y="1026"/>
      <point x="914" y="981"/>
      <point x="914" y="942" type="qcurve" smooth="yes"/>
      <point x="914" y="919"/>
      <point x="896" y="879"/>
      <point x="881.0" y="863.5" type="qcurve" smooth="yes" name="inserted"/>
      <point x="866" y="848"/>
      <point x="826" y="830"/>
      <point x="803" y="830" type="qcurve" smooth="yes"/>
      <point x="780" y="830"/>
      <point x="740" y="848"/>
      <point x="725.0" y="863.5" type="qcurve" smooth="yes" name="inserted"/>
      <point x="710" y="879"/>
      <point x="693" y="919"/>
      <point x="693" y="942" type="qcurve" smooth="yes"/>
      <point x="693" y="964"/>
      <point x="710" y="1005"/>
      <point x="725.0" y="1020.0" type="qcurve" smooth="yes" name="inserted"/>
      <point x="740" y="1035"/>
      <point x="780" y="1053"/>
    </contour>
    <contour>
      <point x="1748" y="830" type="qcurve" smooth="yes"/>
      <point x="1706" y="831"/>
      <point x="1662" y="866"/>
      <point x="1651" y="887" type="qcurve" smooth="yes"/>
      <point x="1645.0" y="899.5" name="inserted"/>
      <point x="1638.5" y="927.0"/>
      <point x="1638" y="942" type="qcurve" smooth="yes"/>
      <point x="1638" y="964"/>
      <point x="1655" y="1005"/>
      <point x="1670.0" y="1020.0" type="qcurve" smooth="yes" name="inserted"/>
      <point x="1685" y="1035"/>
      <point x="1725" y="1053"/>
      <point x="1748" y="1053" type="qcurve" smooth="yes"/>
      <point x="1770" y="1053"/>
      <point x="1811" y="1035"/>
      <point x="1826.0" y="1020.0" type="qcurve" smooth="yes" name="inserted"/>
      <point x="1841" y="1005"/>
      <point x="1859" y="964"/>
      <point x="1859" y="942" type="qcurve" smooth="yes"/>
      <point x="1859" y="919"/>
      <point x="1841" y="879"/>
      <point x="1826.0" y="863.5" type="qcurve" smooth="yes" name="inserted"/>
      <point x="1811" y="848"/>
      <point x="1770" y="830"/>
    </contour>
    <contour>
      <point x="1792" y="-205" type="qcurve" smooth="yes"/>
      <point x="1807.5" y="-171.0" name="inserted"/>
      <point x="1823.0" y="-100.5"/>
      <point x="1823" y="-64" type="qcurve" smooth="yes"/>
      <point x="1823" y="11"/>
      <point x="1759" y="134"/>
      <point x="1707.5" y="178.5" type="qcurve" smooth="yes" name="inserted"/>
      <point x="1656" y="223"/>
      <point x="1526" y="272"/>
      <point x="1459" y="272" type="qcurve" smooth="yes"/>
      <point x="1386" y="272"/>
      <point x="1257" y="219"/>
      <point x="1208.5" y="173.5" type="qcurve" smooth="yes" name="inserted"/>
      <point x="1160" y="128"/>
      <point x="1104" y="8"/>
      <point x="1104" y="-59" type="qcurve" smooth="yes"/>
      <point x="1104" y="-99"/>
      <point x="1122" y="-178"/>
      <point x="1140" y="-214" type="qcurve"/>
      <point x="1142" y="-220"/>
      <point x="1153" y="-236"/>
      <point x="1153" y="-237" type="qcurve" smooth="yes"/>
      <point x="1153" y="-238" type="line"/>
      <point x="1177" y="-279"/>
      <point x="1245" y="-344"/>
      <point x="1285.0" y="-367.0" type="qcurve" smooth="yes" name="inserted"/>
      <point x="1325" y="-390"/>
      <point x="1415" y="-414"/>
      <point x="1462" y="-414" type="qcurve" smooth="yes"/>
      <point x="1514" y="-414"/>
      <point x="1614" y="-383"/>
      <point x="1657.5" y="-355.5" type="qcurve" smooth="yes" name="inserted"/>
      <point x="1701" y="-328"/>
      <point x="1771" y="-251"/>
    </contour>
    <contour>
      <point x="2014" y="25" type="qcurve" smooth="yes"/>
      <point x="2018" y="5"/>
      <point x="2021" y="-37"/>
      <point x="2021" y="-58" type="qcurve" smooth="yes"/>
      <point x="2021" y="-181"/>
      <point x="1930" y="-385"/>
      <point x="1854.0" y="-458.5" type="qcurve" smooth="yes" name="inserted"/>
      <point x="1778" y="-532"/>
      <point x="1578" y="-615"/>
      <point x="1470" y="-616" type="qcurve" smooth="yes"/>
      <point x="1393" y="-616"/>
      <point x="1248" y="-576"/>
      <point x="1184.5" y="-540.0" type="qcurve" smooth="yes" name="inserted"/>
      <point x="1121" y="-504"/>
      <point x="1016" y="-403"/>
      <point x="978.5" y="-342.0" type="qcurve" smooth="yes" name="inserted"/>
      <point x="941" y="-281"/>
      <point x="900" y="-141"/>
      <point x="900" y="-66" type="qcurve" smooth="yes"/>
      <point x="900" y="-17"/>
      <point x="916" y="74"/>
      <point x="928.5" y="117.0" type="qcurve" smooth="yes" name="inserted"/>
      <point x="941" y="160"/>
      <point x="974" y="242"/>
      <point x="992" y="283" type="qcurve" smooth="yes"/>
      <point x="996" y="292"/>
      <point x="1003" y="311"/>
      <point x="1009" y="320" type="qcurve"/>
      <point x="1100" y="537"/>
      <point x="1201" y="994"/>
      <point x="1213" y="1229" type="qcurve"/>
      <point x="425" y="1229" type="line"/>
      <point x="388" y="1224"/>
      <point x="348" y="1186"/>
      <point x="338.0" y="1159.0" type="qcurve" smooth="yes" name="inserted"/>
      <point x="328" y="1132"/>
      <point x="323" y="1070"/>
      <point x="322" y="1042" type="qcurve"/>
      <point x="327" y="71" type="line"/>
      <point x="123" y="71" type="line"/>
      <point x="120" y="1042" type="line" smooth="yes"/>
      <point x="120" y="1072"/>
      <point x="123" y="1128"/>
      <point x="128" y="1157" type="qcurve" smooth="yes"/>
      <point x="138" y="1214"/>
      <point x="190" y="1313"/>
      <point x="228.5" y="1349.5" type="qcurve" smooth="yes" name="inserted"/>
      <point x="267" y="1386"/>
      <point x="364" y="1429"/>
      <point x="418" y="1430" type="qcurve" smooth="yes"/>
      <point x="1599" y="1430" type="line"/>
      <point x="1599" y="1229" type="line"/>
      <point x="1414" y="1229" type="line"/>
      <point x="1406" y="1028"/>
      <point x="1333" y="633"/>
      <point x="1270" y="443" type="qcurve"/>
      <point x="1315.5" y="458.0" name="inserted"/>
      <point x="1411.0" y="473.0"/>
      <point x="1461" y="473" type="qcurve" smooth="yes"/>
      <point x="1526" y="473"/>
      <point x="1654" y="442"/>
      <point x="1712.0" y="414.0" type="qcurve" smooth="yes" name="inserted"/>
      <point x="1770" y="386"/>
      <point x="1871" y="305"/>
      <point x="1910.5" y="255.5" type="qcurve" smooth="yes" name="inserted"/>
      <point x="1950" y="206"/>
      <point x="2004" y="89"/>
    </contour>
  </outline>
</glyph>
<glyph name="uni0D8B" format="1">
  <advance width="1827"/>
  <unicode hex="0D8B"/>
  <outline>
    <contour>
      <point x="615" y="1060" type="qcurve" smooth="yes"/>
      <point x="581" y="1060"/>
      <point x="532" y="1012"/>
      <point x="532" y="979" type="qcurve" smooth="yes"/>
      <point x="532" y="944"/>
      <point x="581" y="896"/>
      <point x="615" y="896" type="qcurve" smooth="yes"/>
      <point x="649" y="896"/>
      <point x="696" y="944"/>
      <point x="696" y="979" type="qcurve" smooth="yes"/>
      <point x="696" y="1012"/>
      <point x="649" y="1060"/>
    </contour>
    <contour>
      <point x="2054" y="-146" type="line"/>
      <point x="2048" y="-150" type="line"/>
      <point x="1931" y="-255"/>
      <point x="1661" y="-419"/>
      <point x="1514.0" y="-475.5" type="qcurve" smooth="yes" name="inserted"/>
      <point x="1367" y="-532"/>
      <point x="1057" y="-591"/>
      <point x="901" y="-591" type="qcurve" smooth="yes"/>
      <point x="729" y="-591"/>
      <point x="441" y="-502"/>
      <point x="337.0" y="-422.5" type="qcurve" smooth="yes" name="inserted"/>
      <point x="233" y="-343"/>
      <point x="117" y="-125"/>
      <point x="117" y="4" type="qcurve" smooth="yes"/>
      <point x="117" y="83"/>
      <point x="171" y="234"/>
      <point x="221" y="294" type="qcurve" smooth="yes"/>
      <point x="257" y="336"/>
      <point x="355" y="401"/>
      <point x="412.0" y="425.5" type="qcurve" smooth="yes" name="inserted"/>
      <point x="469" y="450"/>
      <point x="595" y="484"/>
      <point x="659" y="496" type="qcurve"/>
      <point x="667" y="497" type="line"/>
      <point x="762" y="516"/>
      <point x="900" y="565"/>
      <point x="945.0" y="599.0" type="qcurve" smooth="yes" name="inserted"/>
      <point x="990" y="633"/>
      <point x="1033" y="721"/>
      <point x="1033" y="780" type="qcurve" smooth="yes"/>
      <point x="1033" y="815"/>
      <point x="1011" y="886"/>
      <point x="991.0" y="918.5" type="qcurve" smooth="yes" name="inserted"/>
      <point x="971" y="951"/>
      <point x="914" y="1007"/>
      <point x="880" y="1028" type="qcurve"/>
      <point x="881" y="1015"/>
      <point x="884" y="990"/>
      <point x="884" y="979" type="qcurve" smooth="yes"/>
      <point x="884" y="924"/>
      <point x="841" y="827"/>
      <point x="804.0" y="790.5" type="qcurve" smooth="yes" name="inserted"/>
      <point x="767" y="754"/>
      <point x="669" y="711"/>
      <point x="615" y="711" type="qcurve" smooth="yes"/>
      <point x="557" y="711"/>
      <point x="458" y="754"/>
      <point x="421.5" y="791.5" type="qcurve" smooth="yes" name="inserted"/>
      <point x="385" y="829"/>
      <point x="344" y="927"/>
      <point x="344" y="983" type="qcurve"/>
      <point x="348" y="1045"/>
      <point x="400" y="1157"/>
      <point x="455" y="1201" type="qcurve"/>
      <point x="453" y="1202" type="line"/>
      <point x="464" y="1209" type="line" smooth="yes"/>
      <point x="491" y="1226"/>
      <point x="545" y="1254"/>
      <point x="573.5" y="1264.0" type="qcurve" smooth="yes" name="inserted"/>
      <point x="602" y="1274"/>
      <point x="664" y="1285"/>
      <point x="700" y="1285" type="qcurve" smooth="yes"/>
      <point x="809" y="1285"/>
      <point x="1003" y="1203"/>
      <point x="1076.5" y="1133.0" type="qcurve" smooth="yes" name="inserted"/>
      <point x="1150" y="1063"/>
      <point x="1236" y="880"/>
      <point x="1236" y="779" type="qcurve" smooth="yes"/>
      <point x="1236" y="638"/>
      <point x="1082" y="420"/>
      <point x="933" y="360" type="qcurve" smooth="yes"/>
      <point x="873" y="336"/>
      <point x="757" y="308"/>
      <point x="708" y="297" type="qcurve"/>
      <point x="699" y="296" type="line"/>
      <point x="648" y="285"/>
      <point x="557" y="265"/>
      <point x="513" y="250" type="qcurve" smooth="yes"/>
      <point x="414" y="215"/>
      <point x="320" y="86"/>
      <point x="320" y="-1" type="qcurve" smooth="yes"/>
      <point x="320" y="-86"/>
      <point x="406" y="-228"/>
      <point x="483.5" y="-279.0" type="qcurve" smooth="yes" name="inserted"/>
      <point x="561" y="-330"/>
      <point x="775" y="-387"/>
      <point x="904" y="-387" type="qcurve" smooth="yes"/>
      <point x="1041" y="-387"/>
      <point x="1314" y="-335"/>
      <point x="1443.0" y="-285.5" type="qcurve" smooth="yes" name="inserted"/>
      <point x="1572" y="-236"/>
      <point x="1810" y="-92"/>
      <point x="1912" y="1" type="qcurve"/>
      <point x="1917" y="7" type="line"/>
    </contour>
  </outline>
</glyph>
<glyph name="uni0D94" format="1">
  <advance width="1814"/>
  <unicode hex="0D94"/>
  <outline>
    <contour>
      <point x="1698" y="1251" type="qcurve" smooth="yes"/>
      <point x="1719" y="1206"/>
      <point x="1742" y="1113"/>
      <point x="1747" y="1075" type="qcurve" smooth="yes"/>
      <point x="1750.0" y="1052.5" name="inserted"/>
      <point x="1753.0" y="1008.5"/>
      <point x="1753" y="987" type="qcurve"/>
      <point x="1747" y="910"/>
      <point x="1680" y="777"/>
      <point x="1625" y="729" type="qcurve" smooth="yes"/>
      <point x="1595" y="703"/>
      <point x="1524" y="668"/>
      <point x="1486" y="659" type="qcurve" smooth="yes"/>
      <point x="1445" y="651"/>
      <point x="1364" y="653"/>
      <point x="1326" y="666" type="qcurve" smooth="yes"/>
      <point x="1312" y="671"/>
      <point x="1284" y="684"/>
      <point x="1270" y="692" type="qcurve"/>
      <point x="1274.5" y="662.0" name="inserted"/>
      <point x="1293.0" y="607.0"/>
      <point x="1307" y="582" type="qcurve" smooth="yes"/>
      <point x="1326" y="548"/>
      <point x="1381" y="491"/>
      <point x="1414.0" y="469.5" type="qcurve" smooth="yes" name="inserted"/>
      <point x="1447" y="448"/>
      <point x="1522" y="421"/>
      <point x="1561" y="418" type="qcurve"/>
      <point x="1557" y="220" type="line"/>
      <point x="1542" y="218"/>
      <point x="1516" y="205"/>
      <point x="1503" y="196" type="qcurve" smooth="yes"/>
      <point x="1486" y="183"/>
      <point x="1453" y="150"/>
      <point x="1436" y="133" type="qcurve" smooth="yes"/>
      <point x="1409" y="104"/>
      <point x="1345" y="43"/>
      <point x="1301" y="19" type="qcurve" smooth="yes"/>
      <point x="1265" y="-1"/>
      <point x="1182" y="-20"/>
      <point x="1137" y="-20" type="qcurve" smooth="yes"/>
      <point x="1104.5" y="-20.0" name="inserted"/>
      <point x="1039.0" y="-8.5"/>
      <point x="1006" y="3" type="qcurve" smooth="yes"/>
      <point x="966.0" y="18.5" name="inserted"/>
      <point x="893.0" y="64.5"/>
      <point x="860" y="95" type="qcurve"/>
      <point x="834" y="72"/>
      <point x="776" y="33"/>
      <point x="744" y="19" type="qcurve" smooth="yes"/>
      <point x="681" y="-10"/>
      <point x="542" y="-25"/>
      <point x="473" y="-12" type="qcurve" smooth="yes"/>
      <point x="425" y="-2"/>
      <point x="335" y="38"/>
      <point x="294.5" y="67.5" type="qcurve" smooth="yes" name="inserted"/>
      <point x="254" y="97"/>
      <point x="185" y="171"/>
      <point x="159" y="215" type="qcurve" smooth="yes"/>
      <point x="110" y="296"/>
      <point x="76" y="487"/>
      <point x="90" y="586" type="qcurve" smooth="yes"/>
      <point x="99.0" y="641.5" name="inserted"/>
      <point x="136.0" y="745.5"/>
      <point x="164" y="794" type="qcurve" smooth="yes"/>
      <point x="199" y="854"/>
      <point x="295" y="949"/>
      <point x="351" y="981" type="qcurve" smooth="yes"/>
      <point x="416" y="1016"/>
      <point x="556" y="1042"/>
      <point x="624" y="1031" type="qcurve" smooth="yes"/>
      <point x="700" y="1017"/>
      <point x="826" y="936"/>
      <point x="866" y="873" type="qcurve" smooth="yes"/>
      <point x="888" y="841"/>
      <point x="913" y="767"/>
      <point x="917" y="729" type="qcurve" smooth="yes"/>
      <point x="921.0" y="688.5" name="inserted"/>
      <point x="909.0" y="611.0"/>
      <point x="893" y="574" type="qcurve" smooth="yes"/>
      <point x="876" y="532"/>
      <point x="817" y="464"/>
      <point x="779" y="438" type="qcurve" smooth="yes"/>
      <point x="743" y="413"/>
      <point x="659" y="385"/>
      <point x="614" y="382" type="qcurve" smooth="yes"/>
      <point x="531" y="377"/>
      <point x="374" y="444"/>
      <point x="320" y="508" type="qcurve"/>
      <point x="473" y="636" type="line"/>
      <point x="496" y="608"/>
      <point x="565" y="578"/>
      <point x="601" y="581" type="qcurve" smooth="yes"/>
      <point x="636" y="584"/>
      <point x="694" y="619"/>
      <point x="711" y="653" type="qcurve"/>
      <point x="716" y="666"/>
      <point x="721" y="695"/>
      <point x="719" y="709" type="qcurve" smooth="yes"/>
      <point x="714" y="758"/>
      <point x="640" y="821"/>
      <point x="590" y="834" type="qcurve"/>
      <point x="555" y="840"/>
      <point x="482" y="827"/>
      <point x="448" y="808" type="qcurve" smooth="yes"/>
      <point x="414.0" y="789.0" name="inserted"/>
      <point x="358.0" y="731.5"/>
      <point x="336" y="693" type="qcurve" smooth="yes"/>
      <point x="318" y="663"/>
      <point x="293" y="592"/>
      <point x="287" y="556" type="qcurve" smooth="yes"/>
      <point x="277" y="493"/>
      <point x="300" y="368"/>
      <point x="330" y="317" type="qcurve" smooth="yes"/>
      <point x="361" y="264"/>
      <point x="457" y="194"/>
      <point x="513" y="183" type="qcurve" smooth="yes"/>
      <point x="550" y="176"/>
      <point x="624" y="186"/>
      <point x="658.5" y="201.0" type="qcurve" smooth="yes" name="inserted"/>
      <point x="693" y="216"/>
      <point x="753" y="266"/>
      <point x="775" y="301" type="qcurve"/>
      <point x="946" y="302" type="line"/>
      <point x="969" y="267"/>
      <point x="1032" y="213"/>
      <point x="1076" y="190" type="qcurve"/>
      <point x="1109" y="177"/>
      <point x="1180" y="180"/>
      <point x="1207" y="195" type="qcurve" smooth="yes"/>
      <point x="1229" y="207"/>
      <point x="1270" y="247"/>
      <point x="1292" y="270" type="qcurve" smooth="yes"/>
      <point x="1298" y="276"/>
      <point x="1311" y="289"/>
      <point x="1317" y="296" type="qcurve"/>
      <point x="1260" y="331"/>
      <point x="1166" y="426"/>
      <point x="1133" y="485" type="qcurve" smooth="yes"/>
      <point x="1102" y="541"/>
      <point x="1069" y="665"/>
      <point x="1067.5" y="728.0" type="qcurve" smooth="yes" name="inserted"/>
      <point x="1066" y="791"/>
      <point x="1093" y="917"/>
      <point x="1122" y="974" type="qcurve" smooth="yes"/>
      <point x="1136" y="1002"/>
      <point x="1169" y="1054"/>
      <point x="1190" y="1078" type="qcurve"/>
      <point x="1198" y="1089"/>
      <point x="1215" y="1107"/>
      <point x="1225" y="1116" type="qcurve"/>
      <point x="1360" y="970" type="line"/>
      <point x="1350" y="960"/>
      <point x="1335" y="939"/>
      <point x="1335" y="923" type="qcurve" smooth="yes"/>
      <point x="1335" y="912"/>
      <point x="1341" y="891"/>
      <point x="1349" y="882" type="qcurve" smooth="yes"/>
      <point x="1356" y="874"/>
      <point x="1376" y="859"/>
      <point x="1388" y="855" type="qcurve" smooth="yes"/>
      <point x="1401.0" y="851.0" name="inserted"/>
      <point x="1428.5" y="850.5"/>
      <point x="1443" y="854" type="qcurve"/>
      <point x="1456.5" y="856.0" name="inserted"/>
      <point x="1483.5" y="869.5"/>
      <point x="1497" y="881" type="qcurve" smooth="yes"/>
      <point x="1520" y="902"/>
      <point x="1552" y="967"/>
      <point x="1554" y="1004" type="qcurve" smooth="yes"/>
      <point x="1557" y="1041"/>
      <point x="1540" y="1121"/>
      <point x="1519" y="1162" type="qcurve" smooth="yes"/>
      <point x="1493" y="1214"/>
      <point x="1411" y="1306"/>
      <point x="1356" y="1343" type="qcurve" smooth="yes"/>
      <point x="1305" y="1376"/>
      <point x="1187" y="1427"/>
      <point x="1119" y="1444" type="qcurve" smooth="yes"/>
      <point x="1042" y="1462"/>
      <point x="886" y="1468"/>
      <point x="811.5" y="1457.0" type="qcurve" smooth="yes" name="inserted"/>
      <point x="737" y="1446"/>
      <point x="597" y="1396"/>
      <point x="536" y="1357" type="qcurve" smooth="yes"/>
      <point x="458" y="1308"/>
      <point x="332" y="1166"/>
      <point x="292" y="1082" type="qcurve"/>
      <point x="113" y="1167" type="line"/>
      <point x="164" y="1277"/>
      <point x="328" y="1461"/>
      <point x="430" y="1525" type="qcurve" smooth="yes"/>
      <point x="508" y="1574"/>
      <point x="685" y="1638"/>
      <point x="779.0" y="1652.5" type="qcurve" smooth="yes" name="inserted"/>
      <point x="873" y="1667"/>
      <point x="1068" y="1659"/>
      <point x="1165" y="1637" type="qcurve" smooth="yes"/>
      <point x="1251" y="1617"/>
      <point x="1403" y="1552"/>
      <point x="1469" y="1507" type="qcurve" smooth="yes"/>
      <point x="1544" y="1456"/>
      <point x="1660" y="1326"/>
    </contour>
  </outline>
</glyph>
<glyph name="uni0DC0" format="1">
  <advance width="2122"/>
  <unicode hex="0DC0"/>
  <outline>
    <contour>
      <point x="305" y="727" type="qcurve"/>
      <point x="305" y="722"/>
      <point x="303" y="710"/>
      <point x="303" y="705" type="qcurve" smooth="yes"/>
      <point x="304" y="681"/>
      <point x="323" y="637"/>
      <point x="339.0" y="620.0" type="qcurve" smooth="yes" name="inserted"/>
      <point x="355" y="603"/>
      <point x="400" y="583"/>
      <point x="427" y="583" type="qcurve" smooth="yes"/>
      <point x="452" y="583"/>
      <point x="495" y="602"/>
      <point x="511.0" y="618.0" type="qcurve" smooth="yes" name="inserted"/>
      <point x="527" y="634"/>
      <point x="545" y="678"/>
      <point x="545" y="702" type="qcurve" smooth="yes"/>
      <point x="545" y="728"/>
      <point x="525" y="771"/>
      <point x="508.5" y="786.5" type="qcurve" smooth="yes" name="inserted"/>
      <point x="492" y="802"/>
      <point x="449" y="819"/>
      <point x="426" y="819" type="qcurve" smooth="yes"/>
      <point x="380" y="819"/>
      <point x="317" y="769"/>
    </contour>
    <contour>
      <point x="1855" y="167" type="line"/>
      <point x="860" y="167" type="line"/>
      <point x="911" y="292" type="line" smooth="yes"/>
      <point x="927" y="331"/>
      <point x="944" y="413"/>
      <point x="944" y="456" type="qcurve" smooth="yes"/>
      <point x="944" y="520"/>
      <point x="906" y="640"/>
      <point x="871.5" y="691.0" type="qcurve" smooth="yes" name="inserted"/>
      <point x="837" y="742"/>
      <point x="741" y="822"/>
      <point x="682" y="846" type="qcurve"/>
      <point x="702" y="814"/>
      <point x="721" y="739"/>
      <point x="721" y="701" type="qcurve" smooth="yes"/>
      <point x="721" y="642"/>
      <point x="677" y="535"/>
      <point x="638.0" y="494.5" type="qcurve" smooth="yes" name="inserted"/>
      <point x="599" y="454"/>
      <point x="492" y="405"/>
      <point x="429" y="405" type="qcurve" smooth="yes"/>
      <point x="366" y="405"/>
      <point x="257" y="453"/>
      <point x="216.5" y="493.5" type="qcurve" smooth="yes" name="inserted"/>
      <point x="176" y="534"/>
      <point x="129" y="640"/>
      <point x="128" y="699" type="qcurve" smooth="yes"/>
      <point x="128" y="729" type="line"/>
      <point x="126" y="729" type="line"/>
      <point x="139" y="798"/>
      <point x="203" y="918"/>
      <point x="253.5" y="962.0" type="qcurve" smooth="yes" name="inserted"/>
      <point x="304" y="1006"/>
      <point x="442" y="1056"/>
      <point x="528" y="1056" type="qcurve" smooth="yes"/>
      <point x="608" y="1056"/>
      <point x="758" y="1013"/>
      <point x="824.0" y="973.5" type="qcurve" smooth="yes" name="inserted"/>
      <point x="890" y="934"/>
      <point x="999" y="825"/>
      <point x="1038.5" y="758.0" type="qcurve" smooth="yes" name="inserted"/>
      <point x="1078" y="691"/>
      <point x="1121" y="537"/>
      <point x="1121" y="454" type="qcurve" smooth="yes"/>
      <point x="1121" y="426"/>
      <point x="1116" y="371"/>
      <point x="1111" y="344" type="qcurve"/>
      <point x="1744" y="344" type="line"/>
      <point x="1773" y="415"/>
      <point x="1806" y="574"/>
      <point x="1806" y="655" type="qcurve" smooth="yes"/>
      <point x="1806" y="756"/>
      <point x="1754" y="951"/>
      <point x="1705.0" y="1038.0" type="qcurve" smooth="yes" name="inserted"/>
      <point x="1656" y="1125"/>
      <point x="1518" y="1271"/>
      <point x="1432.0" y="1324.5" type="qcurve" smooth="yes" name="inserted"/>
      <point x="1346" y="1378"/>
      <point x="1145" y="1437"/>
      <point x="1033" y="1437" type="qcurve" smooth="yes"/>
      <point x="902" y="1437"/>
      <point x="655" y="1353"/>
      <point x="551" y="1273" type="qcurve"/>
      <point x="443" y="1413" type="line"/>
      <point x="568" y="1510"/>
      <point x="867" y="1614"/>
      <point x="1025" y="1614" type="qcurve" smooth="yes"/>
      <point x="1151" y="1614"/>
      <point x="1392" y="1549"/>
      <point x="1498.0" y="1488.5" type="qcurve" smooth="yes" name="inserted"/>
      <point x="1604" y="1428"/>
      <point x="1782" y="1257"/>
      <point x="1846.5" y="1150.0" type="qcurve" smooth="yes" name="inserted"/>
      <point x="1911" y="1043"/>
      <point x="1982" y="791"/>
      <point x="1982" y="651" type="qcurve" smooth="yes"/>
      <point x="1982" y="534"/>
      <point x="1927" y="312"/>
      <point x="1879" y="215" type="qcurve" smooth="yes"/>
    </contour>
  </outline>
</glyph>
<glyph name="uni0DC3" format="1">
  <advance width="2624"/>
  <unicode hex="0DC3"/>
  <outline>
    <contour>
      <point x="718" y="321" type="qcurve"/>
      <point x="710.5" y="307.5" name="inserted"/>
      <point x="703.0" y="277.5"/>
      <point x="703" y="261" type="qcurve" smooth="yes"/>
      <point x="703" y="232"/>
      <point x="727" y="181"/>
      <point x="746.5" y="162.0" type="qcurve" smooth="yes" name="inserted"/>
      <point x="766" y="143"/>
      <point x="818" y="121"/>
      <point x="845" y="121" type="qcurve" smooth="yes"/>
      <point x="870" y="121"/>
      <point x="920" y="141"/>
      <point x="940.5" y="159.0" type="qcurve" smooth="yes" name="inserted"/>
      <point x="961" y="177"/>
      <point x="986" y="228"/>
      <point x="986" y="258" type="qcurve" smooth="yes"/>
      <point x="986" y="285"/>
      <point x="965" y="336"/>
      <point x="946.5" y="356.0" type="qcurve" smooth="yes" name="inserted"/>
      <point x="928" y="376"/>
      <point x="875" y="401"/>
      <point x="844" y="401" type="qcurve" smooth="yes"/>
      <point x="806" y="401"/>
      <point x="735" y="358"/>
    </contour>
    <contour>
      <point x="2480" y="893" type="line"/>
      <point x="2480" y="371" type="line" smooth="yes"/>
      <point x="2480" y="333"/>
      <point x="2475" y="255"/>
      <point x="2466" y="217" type="qcurve" smooth="yes"/>
      <point x="2453" y="151"/>
      <point x="2389" y="44"/>
      <point x="2344.0" y="6.5" type="qcurve" smooth="yes" name="inserted"/>
      <point x="2299" y="-31"/>
      <point x="2189" y="-72"/>
      <point x="2130" y="-72" type="qcurve" smooth="yes"/>
      <point x="2062" y="-72"/>
      <point x="1957" y="-36"/>
      <point x="1916.5" y="-5.0" type="qcurve" smooth="yes" name="inserted"/>
      <point x="1876" y="26"/>
      <point x="1820" y="108"/>
      <point x="1802.5" y="153.0" type="qcurve" smooth="yes" name="inserted"/>
      <point x="1785" y="198"/>
      <point x="1769" y="292"/>
      <point x="1769" y="335" type="qcurve" smooth="yes"/>
      <point x="1769" y="346"/>
      <point x="1771" y="365"/>
      <point x="1771" y="375" type="qcurve" smooth="yes"/>
      <point x="1772" y="575" type="line" smooth="yes"/>
      <point x="1772" y="595"/>
      <point x="1771" y="625"/>
      <point x="1768" y="640" type="qcurve"/>
      <point x="1766" y="665"/>
      <point x="1741" y="707"/>
      <point x="1720.5" y="722.0" type="qcurve" smooth="yes" name="inserted"/>
      <point x="1700" y="737"/>
      <point x="1649" y="753"/>
      <point x="1622" y="753" type="qcurve" smooth="yes"/>
      <point x="1588" y="753"/>
      <point x="1534" y="727"/>
      <point x="1515.0" y="705.5" type="qcurve" smooth="yes" name="inserted"/>
      <point x="1496" y="684"/>
      <point x="1476" y="628"/>
      <point x="1476" y="598" type="qcurve" smooth="yes"/>
      <point x="1476" y="216" type="line"/>
      <point x="1284" y="216" type="line"/>
      <point x="1284" y="574" type="line"/>
      <point x="1282" y="590"/>
      <point x="1279" y="622"/>
      <point x="1276" y="637" type="qcurve" smooth="yes"/>
      <point x="1265" y="691"/>
      <point x="1215" y="776"/>
      <point x="1180.0" y="805.0" type="qcurve" smooth="yes" name="inserted"/>
      <point x="1145" y="834"/>
      <point x="1060" y="864"/>
      <point x="1013" y="864" type="qcurve" smooth="yes"/>
      <point x="939" y="864"/>
      <point x="827" y="814"/>
      <point x="787.5" y="771.5" type="qcurve" smooth="yes" name="inserted"/>
      <point x="748" y="729"/>
      <point x="699" y="618"/>
      <point x="689" y="557" type="qcurve"/>
      <point x="725" y="575"/>
      <point x="804" y="595"/>
      <point x="845" y="595" type="qcurve" smooth="yes"/>
      <point x="915" y="595"/>
      <point x="1037" y="541"/>
      <point x="1082.5" y="494.5" type="qcurve" smooth="yes" name="inserted"/>
      <point x="1128" y="448"/>
      <point x="1180" y="325"/>
      <point x="1180" y="256" type="qcurve" smooth="yes"/>
      <point x="1180" y="189"/>
      <point x="1127" y="70"/>
      <point x="1081.5" y="25.0" type="qcurve" smooth="yes" name="inserted"/>
      <point x="1036" y="-20"/>
      <point x="915" y="-72"/>
      <point x="846" y="-72" type="qcurve" smooth="yes"/>
      <point x="755" y="-72"/>
      <point x="596" y="21"/>
      <point x="548" y="109" type="qcurve"/>
      <point x="547" y="109" type="line"/>
      <point x="544" y="112"/>
      <point x="540" y="121"/>
      <point x="537" y="126" type="qcurve"/>
      <point x="505" y="191"/>
      <point x="481" y="323"/>
      <point x="481" y="386" type="qcurve" smooth="yes"/>
      <point x="481" y="426"/>
      <point x="487" y="545"/>
      <point x="500.5" y="612.5" type="qcurve" smooth="yes" name="inserted"/>
      <point x="514" y="680"/>
      <point x="570" y="818"/>
      <point x="621" y="878" type="qcurve"/>
      <point x="96" y="878" type="line"/>
      <point x="96" y="1060" type="line"/>
      <point x="1017" y="1060" type="line"/>
      <point x="1014" y="1097"/>
      <point x="982" y="1161"/>
      <point x="956.5" y="1184.0" type="qcurve" smooth="yes" name="inserted"/>
      <point x="931" y="1207"/>
      <point x="866" y="1234"/>
      <point x="829" y="1234" type="qcurve" smooth="yes"/>
      <point x="782" y="1234"/>
      <point x="700" y="1193"/>
      <point x="672" y="1158" type="qcurve"/>
      <point x="485" y="1297" type="line"/>
      <point x="543" y="1376"/>
      <point x="722" y="1471"/>
      <point x="826" y="1471" type="qcurve" smooth="yes"/>
      <point x="916" y="1471"/>
      <point x="1071" y="1402"/>
      <point x="1128.5" y="1343.0" type="qcurve" smooth="yes" name="inserted"/>
      <point x="1186" y="1284"/>
      <point x="1252" y="1128"/>
      <point x="1252" y="1042" type="qcurve" smooth="yes"/>
      <point x="1252" y="1029"/>
      <point x="1252" y="1005"/>
      <point x="1250" y="992" type="qcurve"/>
      <point x="1291.0" y="968.0" name="inserted"/>
      <point x="1358.5" y="906.5"/>
      <point x="1385" y="869" type="qcurve"/>
      <point x="1385.5" y="867.5" name="inserted"/>
      <point x="1389.0" y="862.0"/>
      <point x="1392" y="858" type="qcurve"/>
      <point x="1437" y="903"/>
      <point x="1558" y="949"/>
      <point x="1623" y="949" type="qcurve" smooth="yes"/>
      <point x="1714" y="949"/>
      <point x="1844" y="887"/>
      <point x="1885.0" y="835.0" type="qcurve" smooth="yes" name="inserted"/>
      <point x="1926" y="783"/>
      <point x="1965" y="647"/>
      <point x="1965" y="574" type="qcurve"/>
      <point x="1963" y="373" type="line"/>
      <point x="1963" y="318"/>
      <point x="1980" y="226"/>
      <point x="1999.0" y="192.5" type="qcurve" smooth="yes" name="inserted"/>
      <point x="2018" y="159"/>
      <point x="2080" y="122"/>
      <point x="2126" y="122" type="qcurve" smooth="yes"/>
      <point x="2175" y="122"/>
      <point x="2238" y="162"/>
      <point x="2256.0" y="196.0" type="qcurve" smooth="yes" name="inserted"/>
      <point x="2274" y="230"/>
      <point x="2287" y="320"/>
      <point x="2287" y="371" type="qcurve" smooth="yes"/>
      <point x="2287" y="893" type="line"/>
    </contour>
  </outline>
</glyph>
<glyph name="uni0DC6" format="1">
  <advance width="1990"/>
  <unicode hex="0DC6"/>
  <outline>
    <contour>
      <point x="1688" y="1269" type="qcurve" smooth="yes"/>
      <point x="1753" y="1269"/>
      <point x="1870" y="1212"/>
      <point x="1910" y="1158" type="qcurve"/>
      <point x="1766" y="1055" type="line"/>
      <point x="1753" y="1072"/>
      <point x="1712" y="1094"/>
      <point x="1690" y="1094" type="qcurve" smooth="yes"/>
      <point x="1645" y="1094"/>
      <point x="1595" y="1026"/>
      <point x="1590" y="968" type="qcurve"/>
      <point x="1590" y="262" type="line" smooth="yes"/>
      <point x="1590" y="216"/>
      <point x="1550" y="124"/>
      <point x="1514.5" y="87.5" type="qcurve" smooth="yes" name="inserted"/>
      <point x="1479" y="51"/>
      <point x="1379" y="5"/>
      <point x="1319" y="5" type="qcurve" smooth="yes"/>
      <point x="1117" y="5" type="line"/>
      <point x="1117" y="-246" type="line"/>
      <point x="936" y="-246" type="line"/>
      <point x="936" y="5" type="line"/>
      <point x="552" y="5" type="line"/>
      <point x="554" y="859" type="line" smooth="yes"/>
      <point x="554" y="900"/>
      <point x="536" y="970"/>
      <point x="517.0" y="995.5" type="qcurve" smooth="yes" name="inserted"/>
      <point x="498" y="1021"/>
      <point x="440" y="1050"/>
      <point x="400" y="1050" type="qcurve" smooth="yes"/>
      <point x="371" y="1050"/>
      <point x="319" y="1030"/>
      <point x="299.5" y="1013.5" type="qcurve" smooth="yes" name="inserted"/>
      <point x="280" y="997"/>
      <point x="257" y="951"/>
      <point x="257" y="926" type="qcurve" smooth="yes"/>
      <point x="257" y="888"/>
      <point x="301" y="841"/>
      <point x="329" y="841" type="qcurve" smooth="yes"/>
      <point x="346.0" y="841.0" name="inserted"/>
      <point x="373.5" y="854.5"/>
      <point x="384" y="868" type="qcurve"/>
      <point x="527" y="768" type="line"/>
      <point x="493" y="720"/>
      <point x="391" y="665"/>
      <point x="332" y="665" type="qcurve" smooth="yes"/>
      <point x="282" y="665"/>
      <point x="192" y="704"/>
      <point x="157.0" y="738.5" type="qcurve" smooth="yes" name="inserted"/>
      <point x="122" y="773"/>
      <point x="81" y="868"/>
      <point x="81" y="924" type="qcurve" smooth="yes"/>
      <point x="81" y="990"/>
      <point x="134" y="1100"/>
      <point x="178.5" y="1140.0" type="qcurve" smooth="yes" name="inserted"/>
      <point x="223" y="1180"/>
      <point x="339" y="1225"/>
      <point x="401" y="1225" type="qcurve" smooth="yes"/>
      <point x="452" y="1225"/>
      <point x="550" y="1193"/>
      <point x="592" y="1164" type="qcurve" smooth="yes"/>
      <point x="634" y="1134"/>
      <point x="687" y="1058"/>
      <point x="702.5" y="1016.5" type="qcurve" smooth="yes" name="inserted"/>
      <point x="718" y="975"/>
      <point x="730" y="893"/>
      <point x="730" y="859" type="qcurve"/>
      <point x="729" y="179" type="line"/>
      <point x="936" y="179" type="line"/>
      <point x="936" y="927" type="line"/>
      <point x="834" y="927" type="line"/>
      <point x="834" y="1106" type="line"/>
      <point x="936" y="1106" type="line"/>
      <point x="937" y="1142"/>
      <point x="942" y="1212"/>
      <point x="948" y="1248" type="qcurve" smooth="yes"/>
      <point x="962" y="1335"/>
      <point x="1056" y="1484"/>
      <point x="1127.0" y="1538.5" type="qcurve" smooth="yes" name="inserted"/>
      <point x="1198" y="1593"/>
      <point x="1378" y="1654"/>
      <point x="1478" y="1654" type="qcurve"/>
      <point x="1478" y="1475" type="line"/>
      <point x="1434" y="1475"/>
      <point x="1363" y="1457"/>
      <point x="1319" y="1441" type="qcurve" smooth="yes"/>
      <point x="1261" y="1419"/>
      <point x="1184" y="1356"/>
      <point x="1160.5" y="1314.0" type="qcurve" smooth="yes" name="inserted"/>
      <point x="1137" y="1272"/>
      <point x="1117" y="1168"/>
      <point x="1117" y="1106" type="qcurve"/>
      <point x="1221" y="1106" type="line"/>
      <point x="1221" y="927" type="line"/>
      <point x="1117" y="927" type="line"/>
      <point x="1117" y="179" type="line"/>
      <point x="1319" y="179" type="line" smooth="yes"/>
      <point x="1342" y="179"/>
      <point x="1378" y="197"/>
      <point x="1390.0" y="210.0" type="qcurve" smooth="yes" name="inserted"/>
      <point x="1402" y="223"/>
      <point x="1415" y="252"/>
      <point x="1415" y="262" type="qcurve" smooth="yes"/>
      <point x="1415" y="973" type="line"/>
      <point x="1415" y="979" type="line"/>
      <point x="1420" y="1045"/>
      <point x="1465" y="1152"/>
      <point x="1501.0" y="1189.5" type="qcurve" smooth="yes" name="inserted"/>
      <point x="1537" y="1227"/>
      <point x="1633" y="1268"/>
    </contour>
  </outline>
</glyph>
<glyph name="uni0DD3" format="1">
  <advance width="0"/>
  <unicode hex="0DD3"/>
  <outline>
    <contour>
      <point x="-302" y="1136" type="qcurve" smooth="yes"/>
      <point x="-332" y="1136"/>
      <point x="-373" y="1093"/>
      <point x="-373" y="1065" type="qcurve" smooth="yes"/>
      <point x="-373" y="1033"/>
      <point x="-331" y="996"/>
      <point x="-303" y="996" type="qcurve" smooth="yes"/>
      <point x="-269" y="996"/>
      <point x="-229" y="1035"/>
      <point x="-229" y="1066" type="qcurve" smooth="yes"/>
      <point x="-229" y="1094"/>
      <point x="-272" y="1136"/>
    </contour>
    <contour>
      <point x="-302" y="848" type="qcurve" smooth="yes"/>
      <point x="-348" y="848"/>
      <point x="-428" y="882"/>
      <point x="-458.0" y="911.5" type="qcurve" smooth="yes" name="inserted"/>
      <point x="-488" y="941"/>
      <point x="-522" y="1021"/>
      <point x="-522" y="1067" type="qcurve" smooth="yes"/>
      <point x="-522" y="1112"/>
      <point x="-486" y="1192"/>
      <point x="-456.0" y="1221.5" type="qcurve" smooth="yes" name="inserted"/>
      <point x="-426" y="1251"/>
      <point x="-347" y="1285"/>
      <point x="-303" y="1285" type="qcurve" smooth="yes"/>
      <point x="-282.5" y="1285.0" name="inserted"/>
      <point x="-243.0" y="1277.5"/>
      <point x="-224" y="1270" type="qcurve"/>
      <point x="-224.5" y="1271.0" name="inserted"/>
      <point x="-225.0" y="1272.0"/>
      <point x="-225" y="1272" type="qcurve"/>
      <point x="-279" y="1360"/>
      <point x="-470" y="1458"/>
      <point x="-591" y="1458" type="qcurve" smooth="yes"/>
      <point x="-723" y="1458"/>
      <point x="-959" y="1352"/>
      <point x="-1046" y="1257" type="qcurve"/>
      <point x="-1235" y="1257" type="line"/>
      <point x="-1183" y="1336"/>
      <point x="-1041" y="1465"/>
      <point x="-957.5" y="1510.5" type="qcurve" smooth="yes" name="inserted"/>
      <point x="-874" y="1556"/>
      <point x="-687" y="1606"/>
      <point x="-591" y="1606" type="qcurve" smooth="yes"/>
      <point x="-480" y="1606"/>
      <point x="-282" y="1536"/>
      <point x="-207.0" y="1475.0" type="qcurve" smooth="yes" name="inserted"/>
      <point x="-132" y="1414"/>
      <point x="-42" y="1246"/>
      <point x="-39" y="1149" type="qcurve" smooth="yes"/>
      <point x="-39" y="1104"/>
      <point x="-61" y="1018"/>
      <point x="-82.5" y="981.0" type="qcurve" smooth="yes" name="inserted"/>
      <point x="-104" y="944"/>
      <point x="-166" y="885"/>
      <point x="-205" y="867" type="qcurve"/>
      <point x="-205" y="869" type="line"/>
      <point x="-225" y="858"/>
      <point x="-279" y="848"/>
    </contour>
  </outline>
</glyph>
<glyph name="uni0DD9" format="1">
  <advance width="1643"/>
  <unicode hex="0DD9"/>
  <outline>
    <contour>
      <point x="611" y="444" type="qcurve" smooth="yes"/>
      <point x="584" y="444"/>
      <point x="533" y="422"/>
      <point x="513.5" y="403.5" type="qcurve" smooth="yes" name="inserted"/>
      <point x="494" y="385"/>
      <point x="471" y="336"/>
      <point x="471" y="308" type="qcurve" smooth="yes"/>
      <point x="471" y="279"/>
      <point x="492" y="226"/>
      <point x="511.0" y="206.5" type="qcurve" smooth="yes" name="inserted"/>
      <point x="530" y="187"/>
      <point x="581" y="164"/>
      <point x="611" y="164" type="qcurve" smooth="yes"/>
      <point x="642" y="164"/>
      <point x="693" y="187"/>
      <point x="711.5" y="207.0" type="qcurve" smooth="yes" name="inserted"/>
      <point x="730" y="227"/>
      <point x="750" y="278"/>
      <point x="750" y="307" type="qcurve" smooth="yes"/>
      <point x="750" y="334"/>
      <point x="728" y="384"/>
      <point x="709.5" y="403.0" type="qcurve" smooth="yes" name="inserted"/>
      <point x="691" y="422"/>
      <point x="640" y="444"/>
    </contour>
    <contour>
      <point x="600" y="-18" type="qcurve" smooth="yes"/>
      <point x="482" y="-18"/>
      <point x="279" y="114"/>
      <point x="203" y="236" type="qcurve" smooth="yes"/>
      <point x="142" y="333"/>
      <point x="78" y="549"/>
      <point x="78" y="661" type="qcurve" smooth="yes"/>
      <point x="78" y="758"/>
      <point x="126" y="942"/>
      <point x="170.5" y="1024.0" type="qcurve" smooth="yes" name="inserted"/>
      <point x="215" y="1106"/>
      <point x="341" y="1243"/>
      <point x="418.5" y="1292.5" type="qcurve" smooth="yes" name="inserted"/>
      <point x="496" y="1342"/>
      <point x="678" y="1397"/>
      <point x="779" y="1397" type="qcurve" smooth="yes"/>
      <point x="938" y="1397"/>
      <point x="1226" y="1275"/>
      <point x="1335.5" y="1160.0" type="qcurve" smooth="yes" name="inserted"/>
      <point x="1445" y="1045"/>
      <point x="1574" y="713"/>
      <point x="1574" y="503" type="qcurve"/>
      <point x="1385" y="559" type="line"/>
      <point x="1385" y="643"/>
      <point x="1343" y="805"/>
      <point x="1305.0" y="877.5" type="qcurve" smooth="yes" name="inserted"/>
      <point x="1267" y="950"/>
      <point x="1159" y="1072"/>
      <point x="1093.0" y="1116.5" type="qcurve" smooth="yes" name="inserted"/>
      <point x="1027" y="1161"/>
      <point x="872" y="1211"/>
      <point x="788" y="1211" type="qcurve" smooth="yes"/>
      <point x="680" y="1211"/>
      <point x="493" y="1131"/>
      <point x="423.5" y="1058.5" type="qcurve" smooth="yes" name="inserted"/>
      <point x="354" y="986"/>
      <point x="274" y="783"/>
      <point x="274" y="660" type="qcurve" smooth="yes"/>
      <point x="274" y="623"/>
      <point x="278" y="559"/>
      <point x="284.0" y="528.5" type="qcurve" smooth="yes" name="inserted"/>
      <point x="290" y="498"/>
      <point x="312" y="437"/>
      <point x="330" y="403" type="qcurve"/>
      <point x="342" y="450"/>
      <point x="393" y="528"/>
      <point x="429.5" y="555.5" type="qcurve" smooth="yes" name="inserted"/>
      <point x="466" y="583"/>
      <point x="558" y="614"/>
      <point x="610" y="614" type="qcurve" smooth="yes"/>
      <point x="676" y="614"/>
      <point x="790" y="571"/>
      <point x="833.0" y="530.0" type="qcurve" smooth="yes" name="inserted"/>
      <point x="876" y="489"/>
      <point x="925" y="370"/>
      <point x="925" y="294" type="qcurve" smooth="yes"/>
      <point x="925" y="224"/>
      <point x="877" y="109"/>
      <point x="834.5" y="68.0" type="qcurve" smooth="yes" name="inserted"/>
      <point x="792" y="27"/>
      <point x="672" y="-18"/>
    </contour>
  </outline>
</glyph>
<glyph name="uni200D" format="1">
  <advance width="0"/>
  <unicode hex="200D"/>
  <outline>
    <contour>
      <point x="82" y="1399" type="line"/>
      <point x="331" y="1153" type="line"/>
      <point x="248" y="1071" type="line"/>
      <point x="59" y="1260" type="line"/>
      <point x="59" y="-422" type="line"/>
      <point x="-59" y="-422" type="line"/>
      <point x="-59" y="1260" type="line"/>
      <point x="-248" y="1071" type="line"/>
      <point x="-331" y="1153" type="line"/>
      <point x="-82" y="1399" type="line"/>
      <point x="-331" y="1642" type="line"/>
      <point x="-248" y="1724" type="line"/>
      <point x="0" y="1476" type="line"/>
      <point x="248" y="1724" type="line"/>
      <point x="331" y="1642" type="line"/>
    </contour>
  </outline>
</glyph>
<glyph name="quoteright" format="1">
  <advance width="489"/>
  <unicode hex="2019"/>
  <outline>
    <contour>
      <point x="385" y="1637" type="line"/>
      <point x="399" y="1615" type="line"/>
      <point x="373.0" y="1513.5" name="inserted"/>
      <point x="285.0" y="1274.0"/>
      <point x="223" y="1136" type="qcurve"/>
      <point x="90" y="1136" type="line"/>
      <point x="127" y="1277"/>
      <point x="182" y="1526"/>
      <point x="200" y="1637" type="qcurve"/>
    </contour>
  </outline>
</glyph>
<glyph name="_104" format="1">
  <advance width="0"/>
  <outline>
    <contour>
      <point x="-1656" y="-84" type="line"/>
      <point x="-1656" y="-171"/>
      <point x="-1590" y="-272"/>
      <point x="-1520" y="-304" type="qcurve" smooth="yes"/>
      <point x="-1450" y="-337"/>
      <point x="-1200" y="-372"/>
      <point x="-1008" y="-372" type="qcurve" smooth="yes"/>
      <point x="-844" y="-371"/>
      <point x="-596" y="-338"/>
      <point x="-513.5" y="-300.0" type="qcurve" smooth="yes" name="inserted"/>
      <point x="-431" y="-262"/>
      <point x="-347" y="-137"/>
      <point x="-346" y="-42" type="qcurve" smooth="yes"/>
      <point x="-346" y="-26" type="line"/>
      <point x="-197" y="-16" type="line"/>
      <point x="-196" y="-36" type="line" smooth="yes"/>
      <point x="-196" y="-71"/>
      <point x="-200" y="-133"/>
      <point x="-204" y="-159" type="qcurve" smooth="yes"/>
      <point x="-213" y="-211"/>
      <point x="-275" y="-321"/>
      <point x="-332" y="-366" type="qcurve" smooth="yes"/>
      <point x="-360.5" y="-389.5" name="inserted"/>
      <point x="-436.0" y="-430.0"/>
      <point x="-483" y="-447" type="qcurve" smooth="yes"/>
      <point x="-577" y="-482"/>
      <point x="-849" y="-517"/>
      <point x="-1010" y="-517" type="qcurve" smooth="yes"/>
      <point x="-1201" y="-517"/>
      <point x="-1482" y="-476"/>
      <point x="-1573" y="-439" type="qcurve" smooth="yes"/>
      <point x="-1640" y="-410"/>
      <point x="-1728" y="-345"/>
      <point x="-1754.5" y="-306.5" type="qcurve" smooth="yes" name="inserted"/>
      <point x="-1781" y="-268"/>
      <point x="-1804" y="-174"/>
      <point x="-1806" y="-117" type="qcurve" smooth="yes"/>
      <point x="-1806" y="-95" type="line" smooth="yes"/>
      <point x="-1806" y="-90"/>
      <point x="-1806" y="-82"/>
      <point x="-1805" y="-77" type="qcurve"/>
    </contour>
  </outline>
</glyph>
<glyph name="_110" format="1">
  <advance width="0"/>
  <outline>
    <contour>
      <point x="-1404" y="6" type="line"/>
      <point x="-1404" y="-5" type="line" smooth="yes"/>
      <point x="-1404" y="-62"/>
      <point x="-1388" y="-147"/>
      <point x="-1371.5" y="-179.5" type="qcurve" smooth="yes" name="inserted"/>
      <point x="-1355" y="-212"/>
      <point x="-1307" y="-259"/>
      <point x="-1275" y="-277" type="qcurve" smooth="yes"/>
      <point x="-1211" y="-314"/>
      <point x="-1005" y="-352"/>
      <point x="-852" y="-352" type="qcurve" smooth="yes"/>
      <point x="-758.5" y="-352.0" name="inserted"/>
      <point x="-605.0" y="-332.0"/>
      <point x="-545" y="-312" type="qcurve" smooth="yes"/>
      <point x="-484.0" y="-292.5" name="inserted"/>
      <point x="-392.5" y="-227.5"/>
      <point x="-362" y="-182" type="qcurve" smooth="yes"/>
      <point x="-331.5" y="-136.5" name="inserted"/>
      <point x="-301.0" y="2.0"/>
      <point x="-301" y="95" type="qcurve" smooth="yes"/>
      <point x="-301" y="122" type="line"/>
      <point x="-154" y="133" type="line"/>
      <point x="-152.5" y="121.5" name="inserted"/>
      <point x="-151.0" y="89.5"/>
      <point x="-151" y="69" type="qcurve" smooth="yes"/>
      <point x="-151.0" y="-40.0" name="inserted"/>
      <point x="-191.5" y="-209.0"/>
      <point x="-232" y="-269" type="qcurve" smooth="yes"/>
      <point x="-314" y="-390"/>
      <point x="-623" y="-497"/>
      <point x="-852" y="-497" type="qcurve" smooth="yes"/>
      <point x="-1024" y="-497"/>
      <point x="-1287" y="-446"/>
      <point x="-1375.5" y="-390.0" type="qcurve" smooth="yes" name="inserted"/>
      <point x="-1464" y="-334"/>
      <point x="-1554" y="-158"/>
      <point x="-1554" y="-32" type="qcurve" smooth="yes"/>
      <point x="-1554" y="-19"/>
      <point x="-1553" y="4"/>
      <point x="-1552" y="14" type="qcurve"/>
    </contour>
  </outline>
</glyph>
<glyph name="_111" format="1">
  <advance width="0"/>
  <outline>
    <contour>
      <point x="-1380" y="6" type="line"/>
      <point x="-1380" y="-5" type="line" smooth="yes"/>
      <point x="-1380" y="-55"/>
      <point x="-1368" y="-133"/>
      <point x="-1354.5" y="-164.5" type="qcurve" smooth="yes" name="inserted"/>
      <point x="-1341" y="-196"/>
      <point x="-1298" y="-245"/>
      <point x="-1268" y="-266" type="qcurve" smooth="yes"/>
      <point x="-1208" y="-309"/>
      <point x="-980" y="-352"/>
      <point x="-818" y="-352" type="qcurve" smooth="yes"/>
      <point x="-660" y="-352"/>
      <point x="-447" y="-307"/>
      <point x="-383" y="-264" type="qcurve" smooth="yes"/>
      <point x="-320" y="-222"/>
      <point x="-259" y="-88"/>
      <point x="-259" y="26" type="qcurve" smooth="yes"/>
      <point x="-259" y="43" type="line"/>
      <point x="-110" y="54" type="line"/>
      <point x="-109" y="50"/>
      <point x="-109" y="30"/>
      <point x="-109" y="14" type="qcurve" smooth="yes"/>
      <point x="-109" y="-8" type="line" smooth="yes"/>
      <point x="-109" y="-140"/>
      <point x="-200" y="-325"/>
      <point x="-290.0" y="-383.5" type="qcurve" smooth="yes" name="inserted"/>
      <point x="-380" y="-442"/>
      <point x="-645" y="-496"/>
      <point x="-818" y="-497" type="qcurve" smooth="yes"/>
      <point x="-991" y="-495"/>
      <point x="-1257" y="-446"/>
      <point x="-1347.0" y="-392.0" type="qcurve" smooth="yes" name="inserted"/>
      <point x="-1437" y="-338"/>
      <point x="-1530" y="-161"/>
      <point x="-1530" y="-32" type="qcurve" smooth="yes"/>
      <point x="-1530" y="-7" type="line" smooth="yes"/>
      <point x="-1530" y="-2"/>
      <point x="-1530" y="9"/>
      <point x="-1529" y="14" type="qcurve"/>
    </contour>
  </outline>
</glyph>
<glyph name="_112" format="1">
  <advance width="0"/>
  <outline>
    <contour>
      <point x="-1359" y="6" type="line"/>
      <point x="-1359" y="-5" type="line" smooth="yes"/>
      <point x="-1359" y="-61"/>
      <point x="-1343" y="-146"/>
      <point x="-1326.5" y="-178.5" type="qcurve" smooth="yes" name="inserted"/>
      <point x="-1310" y="-211"/>
      <point x="-1263" y="-259"/>
      <point x="-1231" y="-277" type="qcurve" smooth="yes"/>
      <point x="-1168" y="-314"/>
      <point x="-961" y="-352"/>
      <point x="-808" y="-352" type="qcurve" smooth="yes"/>
      <point x="-651" y="-352"/>
      <point x="-442" y="-307"/>
      <point x="-379" y="-262" type="qcurve" smooth="yes"/>
      <point x="-317" y="-219"/>
      <point x="-259" y="-85"/>
      <point x="-259" y="26" type="qcurve" smooth="yes"/>
      <point x="-259" y="43" type="line"/>
      <point x="-110" y="54" type="line"/>
      <point x="-109" y="50"/>
      <point x="-109" y="30"/>
      <point x="-109" y="14" type="qcurve" smooth="yes"/>
      <point x="-109" y="-8" type="line" smooth="yes"/>
      <point x="-109" y="-263"/>
      <point x="-459" y="-497"/>
      <point x="-808" y="-497" type="qcurve" smooth="yes"/>
      <point x="-979" y="-495"/>
      <point x="-1241" y="-446"/>
      <point x="-1329.5" y="-391.5" type="qcurve" smooth="yes" name="inserted"/>
      <point x="-1418" y="-337"/>
      <point x="-1509" y="-161"/>
      <point x="-1509" y="-32" type="qcurve" smooth="yes"/>
      <point x="-1509" y="-7" type="line" smooth="yes"/>
      <point x="-1509" y="-2"/>
      <point x="-1509" y="9"/>
      <point x="-1508" y="14" type="qcurve"/>
    </contour>
  </outline>
</glyph>
<glyph name="_113" format="1">
  <advance width="0"/>
  <outline>
    <contour>
      <point x="-1441" y="-63" type="line"/>
      <point x="-1441" y="-69" type="line" smooth="yes"/>
      <point x="-1441" y="-159"/>
      <point x="-1378" y="-263"/>
      <point x="-1314" y="-295" type="qcurve" smooth="yes"/>
      <point x="-1251" y="-328"/>
      <point x="-1034" y="-362"/>
      <point x="-871" y="-362" type="qcurve" smooth="yes"/>
      <point x="-778.5" y="-362.0" name="inserted"/>
      <point x="-623.0" y="-347.0"/>
      <point x="-560" y="-332" type="qcurve" smooth="yes"/>
      <point x="-498.0" y="-318.0" name="inserted"/>
      <point x="-402.5" y="-268.0"/>
      <point x="-369" y="-232" type="qcurve" smooth="yes"/>
      <point x="-336.5" y="-196.5" name="inserted"/>
      <point x="-304.0" y="-86.5"/>
      <point x="-304" y="-12" type="qcurve" smooth="yes"/>
      <point x="-304" y="-1" type="line"/>
      <point x="-155" y="8" type="line"/>
      <point x="-154" y="-13" type="line" smooth="yes"/>
      <point x="-154" y="-63"/>
      <point x="-161" y="-147"/>
      <point x="-170.0" y="-183.5" type="qcurve" smooth="yes" name="inserted"/>
      <point x="-179" y="-220"/>
      <point x="-210" y="-284"/>
      <point x="-234" y="-314" type="qcurve" smooth="yes"/>
      <point x="-270" y="-359"/>
      <point x="-379" y="-431"/>
      <point x="-456.5" y="-455.5" type="qcurve" smooth="yes" name="inserted"/>
      <point x="-534" y="-480"/>
      <point x="-739" y="-507"/>
      <point x="-871" y="-507" type="qcurve" smooth="yes"/>
      <point x="-1038" y="-506"/>
      <point x="-1304" y="-465"/>
      <point x="-1397.5" y="-418.0" type="qcurve" smooth="yes" name="inserted"/>
      <point x="-1491" y="-371"/>
      <point x="-1591" y="-214"/>
      <point x="-1591" y="-97" type="qcurve" smooth="yes"/>
      <point x="-1591" y="-75" type="line" smooth="yes"/>
      <point x="-1591" y="-70"/>
      <point x="-1591" y="-62"/>
      <point x="-1590" y="-57" type="qcurve"/>
    </contour>
  </outline>
</glyph>
<glyph name="_117" format="1">
  <advance width="0"/>
  <outline>
    <contour>
      <point x="-1362" y="-6" type="line"/>
      <point x="-1362" y="-16" type="line" smooth="yes"/>
      <point x="-1362" y="-113"/>
      <point x="-1308" y="-232"/>
      <point x="-1248" y="-271" type="qcurve" smooth="yes"/>
      <point x="-1190" y="-310"/>
      <point x="-986" y="-352"/>
      <point x="-831" y="-352" type="qcurve" smooth="yes"/>
      <point x="-743.0" y="-352.0" name="inserted"/>
      <point x="-596.5" y="-332.0"/>
      <point x="-538" y="-312" type="qcurve" smooth="yes"/>
      <point x="-479.5" y="-292.5" name="inserted"/>
      <point x="-391.0" y="-226.5"/>
      <point x="-361" y="-180" type="qcurve" smooth="yes"/>
      <point x="-331.0" y="-134.5" name="inserted"/>
      <point x="-301.0" y="3.0"/>
      <point x="-301" y="95" type="qcurve" smooth="yes"/>
      <point x="-301" y="122" type="line"/>
      <point x="-152" y="132" type="line"/>
      <point x="-151" y="103" type="line" smooth="yes"/>
      <point x="-151" y="55"/>
      <point x="-155" y="-26"/>
      <point x="-159" y="-60" type="qcurve" smooth="yes"/>
      <point x="-167" y="-129"/>
      <point x="-219" y="-261"/>
      <point x="-267" y="-315" type="qcurve" smooth="yes"/>
      <point x="-303" y="-354"/>
      <point x="-402" y="-421"/>
      <point x="-469.5" y="-445.0" type="qcurve" smooth="yes" name="inserted"/>
      <point x="-537" y="-469"/>
      <point x="-715" y="-497"/>
      <point x="-831" y="-497" type="qcurve" smooth="yes"/>
      <point x="-1169" y="-497"/>
      <point x="-1512" y="-278"/>
      <point x="-1512" y="-43" type="qcurve" smooth="yes"/>
      <point x="-1512" y="-18" type="line" smooth="yes"/>
      <point x="-1512" y="-13"/>
      <point x="-1512" y="-3"/>
      <point x="-1511" y="2" type="qcurve"/>
    </contour>
  </outline>
</glyph>
<glyph name="_126" format="1">
  <advance width="0"/>
  <outline>
    <contour>
      <point x="-1469" y="-63" type="line"/>
      <point x="-1469" y="-69" type="line" smooth="yes"/>
      <point x="-1469" y="-150"/>
      <point x="-1417" y="-251"/>
      <point x="-1352" y="-288" type="qcurve" smooth="yes"/>
      <point x="-1288" y="-326"/>
      <point x="-1047" y="-362"/>
      <point x="-884" y="-362" type="qcurve" smooth="yes"/>
      <point x="-788.0" y="-362.0" name="inserted"/>
      <point x="-627.5" y="-347.0"/>
      <point x="-563" y="-332" type="qcurve" smooth="yes"/>
      <point x="-499.0" y="-317.0" name="inserted"/>
      <point x="-401.5" y="-266.5"/>
      <point x="-368" y="-231" type="qcurve" smooth="yes"/>
      <point x="-335.0" y="-196.0" name="inserted"/>
      <point x="-302.0" y="-86.5"/>
      <point x="-302" y="-12" type="qcurve" smooth="yes"/>
      <point x="-302" y="-1" type="line"/>
      <point x="-153" y="8" type="line"/>
      <point x="-152" y="-13" type="line" smooth="yes"/>
      <point x="-152.0" y="-60.5" name="inserted"/>
      <point x="-158.5" y="-138.5"/>
      <point x="-165" y="-169" type="qcurve" smooth="yes"/>
      <point x="-172.0" y="-201.5" name="inserted"/>
      <point x="-199.0" y="-264.5"/>
      <point x="-219" y="-295" type="qcurve" smooth="yes"/>
      <point x="-251" y="-342"/>
      <point x="-360" y="-420"/>
      <point x="-441.5" y="-448.0" type="qcurve" smooth="yes" name="inserted"/>
      <point x="-523" y="-476"/>
      <point x="-742" y="-507"/>
      <point x="-884" y="-507" type="qcurve" smooth="yes"/>
      <point x="-1056" y="-506"/>
      <point x="-1329" y="-464"/>
      <point x="-1423.5" y="-417.0" type="qcurve" smooth="yes" name="inserted"/>
      <point x="-1518" y="-370"/>
      <point x="-1619" y="-214"/>
      <point x="-1619" y="-97" type="qcurve" smooth="yes"/>
      <point x="-1619" y="-75" type="line" smooth="yes"/>
      <point x="-1619" y="-70"/>
      <point x="-1619" y="-62"/>
      <point x="-1618" y="-57" type="qcurve"/>
    </contour>
  </outline>
</glyph>
<glyph name="_131" format="1">
  <advance width="0"/>
  <outline>
    <contour>
      <point x="-1489" y="-69" type="line"/>
      <point x="-1489" y="-79" type="line" smooth="yes"/>
      <point x="-1489" y="-161"/>
      <point x="-1426" y="-261"/>
      <point x="-1359" y="-293" type="qcurve" smooth="yes"/>
      <point x="-1292" y="-326"/>
      <point x="-1059" y="-362"/>
      <point x="-885" y="-362" type="qcurve" smooth="yes"/>
      <point x="-713" y="-362"/>
      <point x="-485" y="-323"/>
      <point x="-418" y="-282" type="qcurve" smooth="yes"/>
      <point x="-384.5" y="-262.0" name="inserted"/>
      <point x="-335.0" y="-206.0"/>
      <point x="-319" y="-170" type="qcurve" smooth="yes"/>
      <point x="-303.0" y="-134.0" name="inserted"/>
      <point x="-287.0" y="-35.5"/>
      <point x="-287" y="27" type="qcurve" smooth="yes"/>
      <point x="-287" y="44" type="line"/>
      <point x="-138" y="56" type="line"/>
      <point x="-137" y="31" type="line" smooth="yes"/>
      <point x="-137" y="-23"/>
      <point x="-143" y="-110"/>
      <point x="-148" y="-145" type="qcurve" smooth="yes"/>
      <point x="-154.0" y="-181.0" name="inserted"/>
      <point x="-180.0" y="-249.5"/>
      <point x="-200" y="-282" type="qcurve" smooth="yes"/>
      <point x="-230" y="-332"/>
      <point x="-338" y="-415"/>
      <point x="-421.0" y="-445.0" type="qcurve" smooth="yes" name="inserted"/>
      <point x="-504" y="-475"/>
      <point x="-733" y="-507"/>
      <point x="-885" y="-507" type="qcurve" smooth="yes"/>
      <point x="-1106" y="-507"/>
      <point x="-1401" y="-449"/>
      <point x="-1483" y="-395" type="qcurve" smooth="yes"/>
      <point x="-1565" y="-343"/>
      <point x="-1639" y="-202"/>
      <point x="-1639" y="-102" type="qcurve" smooth="yes"/>
      <point x="-1639" y="-81" type="line" smooth="yes"/>
      <point x="-1639" y="-76"/>
      <point x="-1639" y="-68"/>
      <point x="-1638" y="-63" type="qcurve"/>
    </contour>
  </outline>
</glyph>
<glyph name="_516" format="1">
  <advance width="548"/>
  <outline>
    <contour>
      <point x="-50" y="1543" type="line"/>
      <point x="441" y="1543" type="line"/>
      <point x="491" y="1407" type="line"/>
      <point x="392" y="1255"/>
      <point x="253" y="993"/>
      <point x="211" y="880" type="qcurve" smooth="yes"/>
      <point x="169.5" y="767.5" name="inserted"/>
      <point x="128.0" y="537.5"/>
      <point x="128" y="420" type="qcurve" smooth="yes"/>
      <point x="128" y="267"/>
      <point x="234" y="118"/>
      <point x="355" y="118" type="qcurve" smooth="yes"/>
      <point x="381" y="118"/>
      <point x="424" y="122"/>
      <point x="443" y="126" type="qcurve" smooth="yes"/>
      <point x="462" y="130"/>
      <point x="511" y="147"/>
      <point x="540" y="160" type="qcurve"/>
      <point x="587" y="29" type="line"/>
      <point x="525.5" y="3.5" name="inserted"/>
      <point x="406.5" y="-22.0"/>
      <point x="349" y="-22" type="qcurve" smooth="yes"/>
      <point x="162.0" y="-22.0" name="inserted"/>
      <point x="-25.0" y="199.0"/>
      <point x="-25" y="420" type="qcurve" smooth="yes"/>
      <point x="-25" y="656"/>
      <point x="152" y="1148"/>
      <point x="332" y="1408" type="qcurve"/>
      <point x="307.0" y="1406.5" name="inserted"/>
      <point x="249.0" y="1405.0"/>
      <point x="216" y="1405" type="qcurve" smooth="yes"/>
      <point x="-50" y="1405" type="line"/>
    </contour>
  </outline>
</glyph>
<glyph name="uni0D9E_uni0DCA" format="1">
  <advance width="1824"/>
  <outline>
    <contour>
      <point x="1741" y="659" type="qcurve" smooth="yes"/>
      <point x="1741" y="320"/>
      <point x="1492" y="-22"/>
      <point x="1251" y="-22" type="qcurve" smooth="yes"/>
      <point x="1142" y="-22"/>
      <point x="977" y="63"/>
      <point x="910" y="158" type="qcurve"/>
      <point x="843" y="60"/>
      <point x="676" y="-22"/>
      <point x="563" y="-22" type="qcurve" smooth="yes"/>
      <point x="468.5" y="-22.0" name="inserted"/>
      <point x="318.5" y="30.5"/>
      <point x="263" y="83" type="qcurve" smooth="yes"/>
      <point x="208.0" y="136.5" name="inserted"/>
      <point x="153.0" y="282.0"/>
      <point x="153" y="374" type="qcurve" smooth="yes"/>
      <point x="153.0" y="457.0" name="inserted"/>
      <point x="203.5" y="590.5"/>
      <point x="254" y="641" type="qcurve" smooth="yes"/>
      <point x="304.5" y="691.5" name="inserted"/>
      <point x="474.5" y="777.5"/>
      <point x="594" y="813" type="qcurve" smooth="yes"/>
      <point x="665" y="834" type="line" smooth="yes"/>
      <point x="707" y="846"/>
      <point x="765" y="865"/>
      <point x="784" y="873" type="qcurve" smooth="yes"/>
      <point x="822" y="889"/>
      <point x="860" y="938"/>
      <point x="860" y="980" type="qcurve" smooth="yes"/>
      <point x="860" y="1052"/>
      <point x="687" y="1119"/>
      <point x="509" y="1119" type="qcurve" smooth="yes"/>
      <point x="503" y="1119" type="line"/>
      <point x="524" y="1086"/>
      <point x="546" y="1006"/>
      <point x="546" y="971" type="qcurve" smooth="yes"/>
      <point x="546.0" y="915.0" name="inserted"/>
      <point x="510.0" y="830.0"/>
      <point x="474" y="801" type="qcurve" smooth="yes"/>
      <point x="438.5" y="771.5" name="inserted"/>
      <point x="349.0" y="742.0"/>
      <point x="295" y="742" type="qcurve" smooth="yes"/>
      <point x="237.5" y="742.0" name="inserted"/>
      <point x="148.0" y="772.5"/>
      <point x="116" y="803" type="qcurve" smooth="yes"/>
      <point x="84.0" y="833.5" name="inserted"/>
      <point x="52.0" y="914.5"/>
      <point x="52" y="965" type="qcurve" smooth="yes"/>
      <point x="52" y="1032"/>
      <point x="113" y="1140"/>
      <point x="173.0" y="1177.0" type="qcurve" smooth="yes" name="inserted"/>
      <point x="233" y="1214"/>
      <point x="409" y="1254"/>
      <point x="524" y="1254" type="qcurve" smooth="yes"/>
      <point x="766.5" y="1254.0" name="inserted"/>
      <point x="1009.0" y="1116.0"/>
      <point x="1009" y="978" type="qcurve"/>
      <point x="1008" y="916"/>
      <point x="965" y="831"/>
      <point x="921.0" y="799.5" type="qcurve" smooth="yes" name="inserted"/>
      <point x="877" y="768"/>
      <point x="744" y="719"/>
      <point x="653" y="694" type="qcurve" smooth="yes"/>
      <point x="558.0" y="670.0" name="inserted"/>
      <point x="423.0" y="608.0"/>
      <point x="383" y="570" type="qcurve" smooth="yes"/>
      <point x="343.0" y="532.5" name="inserted"/>
      <point x="303.0" y="434.5"/>
      <point x="303" y="374" type="qcurve" smooth="yes"/>
      <point x="303" y="251"/>
      <point x="438" y="124"/>
      <point x="568" y="124" type="qcurve" smooth="yes"/>
      <point x="707" y="124"/>
      <point x="842" y="265"/>
      <point x="842" y="425" type="qcurve" smooth="yes"/>
      <point x="842" y="439" type="line"/>
      <point x="980" y="439" type="line"/>
      <point x="980" y="425" type="line" smooth="yes"/>
      <point x="980" y="269"/>
      <point x="1111" y="124"/>
      <point x="1246" y="124" type="qcurve" smooth="yes"/>
      <point x="1416.0" y="124.0" name="inserted"/>
      <point x="1586.0" y="391.5"/>
      <point x="1586" y="659" type="qcurve" smooth="yes"/>
      <point x="1586.0" y="853.0" name="inserted"/>
      <point x="1494.5" y="1138.0"/>
      <point x="1403" y="1229" type="qcurve" smooth="yes"/>
      <point x="1312.0" y="1319.5" name="inserted"/>
      <point x="1028.0" y="1410.0"/>
      <point x="835" y="1410" type="qcurve" smooth="yes"/>
      <point x="752.5" y="1410.0" name="inserted"/>
      <point x="600.5" y="1399.5"/>
      <point x="531" y="1389" type="qcurve" smooth="yes"/>
      <point x="461" y="1379"/>
      <point x="314" y="1344"/>
      <point x="236" y="1318" type="qcurve"/>
      <point x="195" y="1453" type="line"/>
      <point x="212" y="1459"/>
      <point x="264" y="1474"/>
      <point x="299" y="1484" type="qcurve"/>
      <point x="293.0" y="1506.5" name="inserted"/>
      <point x="287.0" y="1555.5"/>
      <point x="287" y="1582" type="qcurve" smooth="yes"/>
      <point x="287.0" y="1770.5" name="inserted"/>
      <point x="605.5" y="1959.0"/>
      <point x="924" y="1959" type="qcurve" smooth="yes"/>
      <point x="1270.5" y="1959.0" name="inserted"/>
      <point x="1617.0" y="1768.0"/>
      <point x="1617" y="1577" type="qcurve" smooth="yes"/>
      <point x="1617.0" y="1530.5" name="inserted"/>
      <point x="1596.0" y="1435.5"/>
      <point x="1575" y="1387" type="qcurve"/>
      <point x="1440" y="1429" type="line"/>
      <point x="1455.0" y="1460.5" name="inserted"/>
      <point x="1470.0" y="1533.5"/>
      <point x="1470" y="1575" type="qcurve" smooth="yes"/>
      <point x="1470" y="1700"/>
      <point x="1199" y="1816"/>
      <point x="927" y="1816" type="qcurve" smooth="yes"/>
      <point x="815" y="1816"/>
      <point x="633" y="1794"/>
      <point x="568.5" y="1766.5" type="qcurve" smooth="yes" name="inserted"/>
      <point x="504" y="1739"/>
      <point x="434" y="1647"/>
      <point x="434" y="1577" type="qcurve" smooth="yes"/>
      <point x="434" y="1563"/>
      <point x="437" y="1532"/>
      <point x="439" y="1515" type="qcurve"/>
      <point x="541.5" y="1534.0" name="inserted"/>
      <point x="737.0" y="1553.0"/>
      <point x="830" y="1553" type="qcurve" smooth="yes"/>
      <point x="1062" y="1553"/>
      <point x="1405" y="1444"/>
      <point x="1518.0" y="1333.5" type="qcurve" smooth="yes" name="inserted"/>
      <point x="1631" y="1223"/>
      <point x="1741" y="887"/>
    </contour>
    <contour>
      <point x="367" y="1109" type="qcurve"/>
      <point x="279" y="1096"/>
      <point x="197" y="1024"/>
      <point x="197" y="976" type="qcurve" smooth="yes"/>
      <point x="197" y="928"/>
      <point x="250" y="874"/>
      <point x="301" y="874" type="qcurve" smooth="yes"/>
      <point x="355" y="874"/>
      <point x="407" y="929"/>
      <point x="407" y="978" type="qcurve" smooth="yes"/>
      <point x="407.0" y="1017.5" name="inserted"/>
      <point x="387.0" y="1083.0"/>
    </contour>
  </outline>
</glyph>
<glyph name="uni0D9E_uni0DD2" format="1">
  <advance width="1824"/>
  <outline>
    <contour>
      <point x="1742" y="662" type="qcurve" smooth="yes"/>
      <point x="1742" y="322"/>
      <point x="1496" y="-22"/>
      <point x="1260" y="-22" type="qcurve" smooth="yes"/>
      <point x="1146" y="-22"/>
      <point x="977" y="63"/>
      <point x="910" y="158" type="qcurve"/>
      <point x="843" y="60"/>
      <point x="676" y="-22"/>
      <point x="563" y="-22" type="qcurve" smooth="yes"/>
      <point x="468.5" y="-22.0" name="inserted"/>
      <point x="318.5" y="30.5"/>
      <point x="263" y="83" type="qcurve" smooth="yes"/>
      <point x="208.0" y="136.5" name="inserted"/>
      <point x="153.0" y="282.0"/>
      <point x="153" y="374" type="qcurve" smooth="yes"/>
      <point x="153.0" y="457.0" name="inserted"/>
      <point x="203.5" y="590.5"/>
      <point x="254" y="641" type="qcurve" smooth="yes"/>
      <point x="304.5" y="691.5" name="inserted"/>
      <point x="474.5" y="777.5"/>
      <point x="594" y="813" type="qcurve" smooth="yes"/>
      <point x="665" y="834" type="line" smooth="yes"/>
      <point x="707" y="846"/>
      <point x="765" y="865"/>
      <point x="784" y="873" type="qcurve" smooth="yes"/>
      <point x="822" y="889"/>
      <point x="860" y="938"/>
      <point x="860" y="980" type="qcurve" smooth="yes"/>
      <point x="860" y="1052"/>
      <point x="687" y="1119"/>
      <point x="509" y="1119" type="qcurve" smooth="yes"/>
      <point x="503" y="1119" type="line"/>
      <point x="524" y="1086"/>
      <point x="546" y="1006"/>
      <point x="546" y="971" type="qcurve" smooth="yes"/>
      <point x="546.0" y="915.0" name="inserted"/>
      <point x="510.0" y="830.0"/>
      <point x="474" y="801" type="qcurve" smooth="yes"/>
      <point x="438.5" y="771.5" name="inserted"/>
      <point x="349.0" y="742.0"/>
      <point x="295" y="742" type="qcurve" smooth="yes"/>
      <point x="237.5" y="742.0" name="inserted"/>
      <point x="148.0" y="772.5"/>
      <point x="116" y="803" type="qcurve" smooth="yes"/>
      <point x="84.0" y="833.5" name="inserted"/>
      <point x="52.0" y="914.5"/>
      <point x="52" y="965" type="qcurve" smooth="yes"/>
      <point x="52" y="1032"/>
      <point x="113" y="1140"/>
      <point x="173.0" y="1177.0" type="qcurve" smooth="yes" name="inserted"/>
      <point x="233" y="1214"/>
      <point x="409" y="1254"/>
      <point x="524" y="1254" type="qcurve" smooth="yes"/>
      <point x="766.5" y="1254.0" name="inserted"/>
      <point x="1009.0" y="1116.0"/>
      <point x="1009" y="978" type="qcurve"/>
      <point x="1008" y="916"/>
      <point x="965" y="831"/>
      <point x="921.0" y="799.5" type="qcurve" smooth="yes" name="inserted"/>
      <point x="877" y="768"/>
      <point x="744" y="719"/>
      <point x="653" y="694" type="qcurve" smooth="yes"/>
      <point x="558.0" y="670.0" name="inserted"/>
      <point x="423.0" y="608.0"/>
      <point x="383" y="570" type="qcurve" smooth="yes"/>
      <point x="343.0" y="532.5" name="inserted"/>
      <point x="303.0" y="434.5"/>
      <point x="303" y="374" type="qcurve" smooth="yes"/>
      <point x="303" y="251"/>
      <point x="438" y="124"/>
      <point x="568" y="124" type="qcurve" smooth="yes"/>
      <point x="707" y="124"/>
      <point x="842" y="265"/>
      <point x="842" y="425" type="qcurve" smooth="yes"/>
      <point x="842" y="439" type="line"/>
      <point x="980" y="439" type="line"/>
      <point x="980" y="425" type="line" smooth="yes"/>
      <point x="980" y="269"/>
      <point x="1115" y="124"/>
      <point x="1254" y="124" type="qcurve" smooth="yes"/>
      <point x="1420.5" y="124.0" name="inserted"/>
      <point x="1587.0" y="391.5"/>
      <point x="1587" y="659" type="qcurve" smooth="yes"/>
      <point x="1587" y="849"/>
      <point x="1503" y="1123"/>
      <point x="1412" y="1214" type="qcurve" smooth="yes"/>
      <point x="1367.0" y="1259.5" name="inserted"/>
      <point x="1253.0" y="1325.5"/>
      <point x="1184" y="1346" type="qcurve" smooth="yes"/>
      <point x="1115.5" y="1367.0" name="inserted"/>
      <point x="940.0" y="1388.0"/>
      <point x="833" y="1388" type="qcurve" smooth="yes"/>
      <point x="652" y="1388" type="line" smooth="yes"/>
      <point x="573.0" y="1388.0" name="inserted"/>
      <point x="458.0" y="1400.0"/>
      <point x="422" y="1412" type="qcurve" smooth="yes"/>
      <point x="350" y="1436"/>
      <point x="266" y="1546"/>
      <point x="266" y="1634" type="qcurve" smooth="yes"/>
      <point x="266.0" y="1796.5" name="inserted"/>
      <point x="588.0" y="1959.0"/>
      <point x="910" y="1959" type="qcurve" smooth="yes"/>
      <point x="1259" y="1959"/>
      <point x="1617" y="1774"/>
      <point x="1617" y="1577" type="qcurve" smooth="yes"/>
      <point x="1617" y="1552"/>
      <point x="1613" y="1507"/>
      <point x="1608.5" y="1485.0" type="qcurve" smooth="yes" name="inserted"/>
      <point x="1604" y="1463"/>
      <point x="1588" y="1415"/>
      <point x="1576" y="1387" type="qcurve"/>
      <point x="1440" y="1429" type="line"/>
      <point x="1455.0" y="1462.0" name="inserted"/>
      <point x="1470.0" y="1535.0"/>
      <point x="1470" y="1575" type="qcurve" smooth="yes"/>
      <point x="1470" y="1705"/>
      <point x="1192" y="1816"/>
      <point x="920" y="1816" type="qcurve" smooth="yes"/>
      <point x="658" y="1816"/>
      <point x="414" y="1730"/>
      <point x="414" y="1636" type="qcurve" smooth="yes"/>
      <point x="414.0" y="1608.0" name="inserted"/>
      <point x="433.5" y="1567.5"/>
      <point x="453" y="1555" type="qcurve" smooth="yes"/>
      <point x="472.0" y="1542.5" name="inserted"/>
      <point x="564.0" y="1530.0"/>
      <point x="637" y="1530" type="qcurve" smooth="yes"/>
      <point x="855" y="1530" type="line" smooth="yes"/>
      <point x="1015.0" y="1530.0" name="inserted"/>
      <point x="1270.0" y="1481.5"/>
      <point x="1365" y="1433" type="qcurve" smooth="yes"/>
      <point x="1556" y="1336"/>
      <point x="1742" y="955"/>
    </contour>
    <contour>
      <point x="367" y="1109" type="qcurve"/>
      <point x="279" y="1096"/>
      <point x="197" y="1024"/>
      <point x="197" y="976" type="qcurve" smooth="yes"/>
      <point x="197" y="928"/>
      <point x="250" y="874"/>
      <point x="301" y="874" type="qcurve" smooth="yes"/>
      <point x="355" y="874"/>
      <point x="407" y="929"/>
      <point x="407" y="978" type="qcurve" smooth="yes"/>
      <point x="407.0" y="1017.5" name="inserted"/>
      <point x="387.0" y="1083.0"/>
    </contour>
  </outline>
</glyph>
<glyph name="uni0D9E_uni0DD6" format="1">
  <advance width="1824"/>
  <outline>
    <contour>
      <point x="1241" y="-22" type="qcurve" smooth="yes"/>
      <point x="1138" y="-22"/>
      <point x="978" y="64"/>
      <point x="909" y="158" type="qcurve"/>
      <point x="876" y="108"/>
      <point x="802" y="40"/>
      <point x="759.5" y="18.5" type="qcurve" smooth="yes" name="inserted"/>
      <point x="717" y="-3"/>
      <point x="620" y="-22"/>
      <point x="563" y="-22" type="qcurve" smooth="yes"/>
      <point x="468.5" y="-22.0" name="inserted"/>
      <point x="318.5" y="30.5"/>
      <point x="263" y="83" type="qcurve" smooth="yes"/>
      <point x="208.0" y="136.5" name="inserted"/>
      <point x="153.0" y="282.0"/>
      <point x="153" y="374" type="qcurve" smooth="yes"/>
      <point x="153.0" y="457.0" name="inserted"/>
      <point x="203.5" y="590.5"/>
      <point x="254" y="641" type="qcurve" smooth="yes"/>
      <point x="304.5" y="691.5" name="inserted"/>
      <point x="474.5" y="777.5"/>
      <point x="594" y="813" type="qcurve" smooth="yes"/>
      <point x="665" y="834" type="line" smooth="yes"/>
      <point x="707" y="846"/>
      <point x="765" y="865"/>
      <point x="784" y="873" type="qcurve" smooth="yes"/>
      <point x="822" y="889"/>
      <point x="860" y="938"/>
      <point x="860" y="980" type="qcurve" smooth="yes"/>
      <point x="860" y="1052"/>
      <point x="687" y="1119"/>
      <point x="509" y="1119" type="qcurve" smooth="yes"/>
      <point x="503" y="1119" type="line"/>
      <point x="524" y="1086"/>
      <point x="546" y="1006"/>
      <point x="546" y="971" type="qcurve" smooth="yes"/>
      <point x="546.0" y="915.0" name="inserted"/>
      <point x="510.0" y="830.0"/>
      <point x="474" y="801" type="qcurve" smooth="yes"/>
      <point x="438.5" y="771.5" name="inserted"/>
      <point x="349.0" y="742.0"/>
      <point x="295" y="742" type="qcurve" smooth="yes"/>
      <point x="237.5" y="742.0" name="inserted"/>
      <point x="148.0" y="772.5"/>
      <point x="116" y="803" type="qcurve" smooth="yes"/>
      <point x="84.0" y="833.5" name="inserted"/>
      <point x="52.0" y="914.5"/>
      <point x="52" y="965" type="qcurve" smooth="yes"/>
      <point x="52" y="1032"/>
      <point x="113" y="1140"/>
      <point x="173.0" y="1177.0" type="qcurve" smooth="yes" name="inserted"/>
      <point x="233" y="1214"/>
      <point x="409" y="1254"/>
      <point x="524" y="1254" type="qcurve" smooth="yes"/>
      <point x="766.5" y="1254.0" name="inserted"/>
      <point x="1009.0" y="1116.0"/>
      <point x="1009" y="978" type="qcurve"/>
      <point x="1008" y="916"/>
      <point x="965" y="831"/>
      <point x="921.0" y="799.5" type="qcurve" smooth="yes" name="inserted"/>
      <point x="877" y="768"/>
      <point x="744" y="719"/>
      <point x="653" y="694" type="qcurve" smooth="yes"/>
      <point x="558.0" y="670.0" name="inserted"/>
      <point x="423.0" y="608.0"/>
      <point x="383" y="570" type="qcurve" smooth="yes"/>
      <point x="343.0" y="532.5" name="inserted"/>
      <point x="303.0" y="434.5"/>
      <point x="303" y="374" type="qcurve" smooth="yes"/>
      <point x="303" y="251"/>
      <point x="438" y="124"/>
      <point x="568" y="124" type="qcurve" smooth="yes"/>
      <point x="707" y="124"/>
      <point x="842" y="265"/>
      <point x="842" y="425" type="qcurve" smooth="yes"/>
      <point x="842" y="439" type="line"/>
      <point x="980" y="439" type="line"/>
      <point x="980" y="425" type="line" smooth="yes"/>
      <point x="980" y="272"/>
      <point x="1107" y="124"/>
      <point x="1239" y="124" type="qcurve" smooth="yes"/>
      <point x="1412.5" y="124.0" name="inserted"/>
      <point x="1586.0" y="415.5"/>
      <point x="1586" y="707" type="qcurve" smooth="yes"/>
      <point x="1586" y="1135"/>
      <point x="1220" y="1569"/>
      <point x="861" y="1569" type="qcurve" smooth="yes"/>
      <point x="689" y="1569"/>
      <point x="386" y="1491"/>
      <point x="240" y="1405" type="qcurve"/>
      <point x="173" y="1539" type="line"/>
      <point x="333" y="1629"/>
      <point x="674" y="1713"/>
      <point x="870" y="1713" type="qcurve" smooth="yes"/>
      <point x="1081.5" y="1713.0" name="inserted"/>
      <point x="1405.0" y="1585.5"/>
      <point x="1517" y="1458" type="qcurve" smooth="yes"/>
      <point x="1629.0" y="1330.0" name="inserted"/>
      <point x="1741.0" y="957.0"/>
      <point x="1741" y="712" type="qcurve" smooth="yes"/>
      <point x="1741.0" y="576.5" name="inserted"/>
      <point x="1706.0" y="354.5"/>
      <point x="1671" y="268" type="qcurve"/>
      <point x="1671" y="-535" type="line"/>
      <point x="1558" y="-535" type="line"/>
      <point x="1476" y="-484"/>
      <point x="1357" y="-421"/>
      <point x="1307.5" y="-403.5" type="qcurve" smooth="yes" name="inserted"/>
      <point x="1258" y="-386"/>
      <point x="1168" y="-373"/>
      <point x="1115" y="-372" type="qcurve" smooth="yes"/>
      <point x="1091.5" y="-372.0" name="inserted"/>
      <point x="1039.0" y="-377.5"/>
      <point x="1010" y="-383" type="qcurve" smooth="yes"/>
      <point x="983.0" y="-389.0" name="inserted"/>
      <point x="902.5" y="-415.5"/>
      <point x="849" y="-436" type="qcurve" smooth="yes"/>
      <point x="776.5" y="-465.5" name="inserted"/>
      <point x="665.0" y="-504.5"/>
      <point x="626" y="-514" type="qcurve" smooth="yes"/>
      <point x="586.0" y="-524.5" name="inserted"/>
      <point x="503.5" y="-535.0"/>
      <point x="461" y="-535" type="qcurve" smooth="yes"/>
      <point x="401.5" y="-535.0" name="inserted"/>
      <point x="302.5" y="-503.0"/>
      <point x="263" y="-471" type="qcurve" smooth="yes"/>
      <point x="224.0" y="-439.0" name="inserted"/>
      <point x="185.0" y="-348.0"/>
      <point x="185" y="-289" type="qcurve" smooth="yes"/>
      <point x="185" y="-223"/>
      <point x="243" y="-114"/>
      <point x="311" y="-55" type="qcurve"/>
      <point x="413" y="-159" type="line"/>
      <point x="373.5" y="-189.0" name="inserted"/>
      <point x="334.0" y="-252.0"/>
      <point x="334" y="-285" type="qcurve" smooth="yes"/>
      <point x="334" y="-339"/>
      <point x="408" y="-395"/>
      <point x="478" y="-395" type="qcurve" smooth="yes"/>
      <point x="505.5" y="-395.0" name="inserted"/>
      <point x="561.0" y="-387.5"/>
      <point x="589" y="-380" type="qcurve" smooth="yes"/>
      <point x="616.5" y="-373.5" name="inserted"/>
      <point x="697.5" y="-345.0"/>
      <point x="751" y="-323" type="qcurve" smooth="yes"/>
      <point x="805" y="-301"/>
      <point x="882" y="-272"/>
      <point x="905" y="-264" type="qcurve" smooth="yes"/>
      <point x="953" y="-248"/>
      <point x="1055" y="-230"/>
      <point x="1115" y="-230" type="qcurve" smooth="yes"/>
      <point x="1221" y="-230"/>
      <point x="1418" y="-298"/>
      <point x="1525" y="-362" type="qcurve"/>
      <point x="1524" y="-335"/>
      <point x="1523" y="-281"/>
      <point x="1523" y="-255" type="qcurve" smooth="yes"/>
      <point x="1523" y="-70" type="line" smooth="yes"/>
      <point x="1523" y="-25"/>
      <point x="1526" y="48"/>
      <point x="1528" y="77" type="qcurve"/>
      <point x="1474.0" y="27.5" name="inserted"/>
      <point x="1330.5" y="-22.0"/>
    </contour>
    <contour>
      <point x="367" y="1109" type="qcurve"/>
      <point x="279" y="1096"/>
      <point x="197" y="1024"/>
      <point x="197" y="976" type="qcurve" smooth="yes"/>
      <point x="197" y="928"/>
      <point x="250" y="874"/>
      <point x="301" y="874" type="qcurve" smooth="yes"/>
      <point x="355" y="874"/>
      <point x="407" y="929"/>
      <point x="407" y="978" type="qcurve" smooth="yes"/>
      <point x="407.0" y="1017.5" name="inserted"/>
      <point x="387.0" y="1083.0"/>
    </contour>
  </outline>
</glyph>
<glyph name="uni0DA1_uni0DD2" format="1">
  <advance width="1639"/>
  <outline>
    <contour>
      <point x="1525" y="1659" type="qcurve"/>
      <point x="1585" y="1530" type="line"/>
      <point x="1425.5" y="1472.0" name="inserted"/>
      <point x="1181.5" y="1319.0"/>
      <point x="1097" y="1224" type="qcurve"/>
      <point x="1123.0" y="1239.0" name="inserted"/>
      <point x="1178.0" y="1254.0"/>
      <point x="1207" y="1254" type="qcurve" smooth="yes"/>
      <point x="1273" y="1254"/>
      <point x="1375" y="1208"/>
      <point x="1409.5" y="1164.5" type="qcurve" smooth="yes" name="inserted"/>
      <point x="1444" y="1121"/>
      <point x="1480" y="997"/>
      <point x="1480" y="920" type="qcurve" smooth="yes"/>
      <point x="1480" y="883"/>
      <point x="1474" y="818"/>
      <point x="1469" y="789" type="qcurve"/>
      <point x="1517.0" y="737.0" name="inserted"/>
      <point x="1565.0" y="599.5"/>
      <point x="1565" y="514" type="qcurve" smooth="yes"/>
      <point x="1565" y="383"/>
      <point x="1467" y="183"/>
      <point x="1371.5" y="115.5" type="qcurve" smooth="yes" name="inserted"/>
      <point x="1276" y="48"/>
      <point x="993" y="-22"/>
      <point x="807" y="-22" type="qcurve" smooth="yes"/>
      <point x="622" y="-22"/>
      <point x="347" y="52"/>
      <point x="255.5" y="121.0" type="qcurve" smooth="yes" name="inserted"/>
      <point x="164" y="190"/>
      <point x="74" y="389"/>
      <point x="74" y="514" type="qcurve" smooth="yes"/>
      <point x="74" y="723"/>
      <point x="337" y="932"/>
      <point x="599" y="932" type="qcurve" smooth="yes"/>
      <point x="630" y="932" type="line"/>
      <point x="625" y="1023"/>
      <point x="526" y="1119"/>
      <point x="441" y="1119" type="qcurve" smooth="yes"/>
      <point x="362.5" y="1119.0" name="inserted"/>
      <point x="284.0" y="1058.5"/>
      <point x="284" y="998" type="qcurve" smooth="yes"/>
      <point x="284.0" y="986.0" name="inserted"/>
      <point x="288.5" y="955.5"/>
      <point x="293" y="937" type="qcurve"/>
      <point x="149" y="914" type="line"/>
      <point x="142.0" y="939.0" name="inserted"/>
      <point x="135.0" y="990.0"/>
      <point x="135" y="1016" type="qcurve" smooth="yes"/>
      <point x="135" y="1131"/>
      <point x="289" y="1254"/>
      <point x="430" y="1254" type="qcurve" smooth="yes"/>
      <point x="598" y="1254"/>
      <point x="776" y="1062"/>
      <point x="776" y="880" type="qcurve" smooth="yes"/>
      <point x="776" y="797" type="line"/>
      <point x="600" y="797" type="line" smooth="yes"/>
      <point x="501" y="797"/>
      <point x="358" y="762"/>
      <point x="312.5" y="726.0" type="qcurve" smooth="yes" name="inserted"/>
      <point x="267" y="690"/>
      <point x="224" y="581"/>
      <point x="224" y="506" type="qcurve" smooth="yes"/>
      <point x="224.0" y="417.0" name="inserted"/>
      <point x="300.0" y="277.0"/>
      <point x="376" y="226" type="qcurve" smooth="yes"/>
      <point x="451.5" y="175.0" name="inserted"/>
      <point x="667.5" y="124.0"/>
      <point x="808" y="124" type="qcurve" smooth="yes"/>
      <point x="955.5" y="124.0" name="inserted"/>
      <point x="1180.5" y="175.5"/>
      <point x="1258" y="227" type="qcurve" smooth="yes"/>
      <point x="1336.5" y="278.5" name="inserted"/>
      <point x="1415.0" y="423.5"/>
      <point x="1415" y="517" type="qcurve" smooth="yes"/>
      <point x="1415.0" y="550.5" name="inserted"/>
      <point x="1408.5" y="604.0"/>
      <point x="1402" y="624" type="qcurve"/>
      <point x="1357.5" y="553.5" name="inserted"/>
      <point x="1221.0" y="483.0"/>
      <point x="1129" y="483" type="qcurve" smooth="yes"/>
      <point x="1072" y="482"/>
      <point x="968" y="520"/>
      <point x="928.0" y="564.5" type="qcurve" smooth="yes" name="inserted"/>
      <point x="888" y="609"/>
      <point x="840" y="754"/>
      <point x="840" y="860" type="qcurve" smooth="yes"/>
      <point x="840.0" y="987.0" name="inserted"/>
      <point x="931.5" y="1220.0"/>
      <point x="1023" y="1326" type="qcurve" smooth="yes"/>
      <point x="1114.5" y="1432.0" name="inserted"/>
      <point x="1365.5" y="1598.5"/>
    </contour>
    <contour>
      <point x="1037" y="932" type="line" smooth="yes"/>
      <point x="1127.0" y="932.0" name="inserted"/>
      <point x="1277.0" y="906.0"/>
      <point x="1337" y="880" type="qcurve"/>
      <point x="1337" y="885"/>
      <point x="1337" y="893"/>
      <point x="1338" y="897" type="qcurve"/>
      <point x="1338" y="915" type="line" smooth="yes"/>
      <point x="1338" y="1023"/>
      <point x="1253" y="1129"/>
      <point x="1171" y="1129" type="qcurve" smooth="yes"/>
      <point x="1092" y="1129"/>
      <point x="991" y="1025"/>
      <point x="979" y="932" type="qcurve"/>
    </contour>
    <contour>
      <point x="979" y="797" type="line"/>
      <point x="981.5" y="759.0" name="inserted"/>
      <point x="1000.5" y="695.5"/>
      <point x="1017" y="670" type="qcurve" smooth="yes"/>
      <point x="1034.0" y="644.0" name="inserted"/>
      <point x="1097.5" y="618.0"/>
      <point x="1144" y="618" type="qcurve" smooth="yes"/>
      <point x="1207.0" y="618.0" name="inserted"/>
      <point x="1291.5" y="677.0"/>
      <point x="1313" y="736" type="qcurve"/>
      <point x="1266.5" y="766.5" name="inserted"/>
      <point x="1119.5" y="797.0"/>
      <point x="1019" y="797" type="qcurve" smooth="yes"/>
    </contour>
    <contour>
      <point x="864" y="1161" type="line"/>
      <point x="727.0" y="1190.0" name="inserted"/>
      <point x="590.0" y="1339.5"/>
      <point x="590" y="1460" type="qcurve" smooth="yes"/>
      <point x="590.0" y="1518.5" name="inserted"/>
      <point x="630.5" y="1633.5"/>
      <point x="671" y="1690" type="qcurve" smooth="yes"/>
      <point x="712.5" y="1747.5" name="inserted"/>
      <point x="820.5" y="1838.5"/>
      <point x="887" y="1872" type="qcurve" smooth="yes"/>
      <point x="954.5" y="1906.5" name="inserted"/>
      <point x="1095.0" y="1941.0"/>
      <point x="1168" y="1941" type="qcurve" smooth="yes"/>
      <point x="1303.0" y="1941.0" name="inserted"/>
      <point x="1455.5" y="1812.5"/>
      <point x="1473" y="1684" type="qcurve"/>
      <point x="1337" y="1632" type="line"/>
      <point x="1326" y="1720"/>
      <point x="1237" y="1799"/>
      <point x="1159" y="1799" type="qcurve" smooth="yes"/>
      <point x="1107.0" y="1799.0" name="inserted"/>
      <point x="1006.0" y="1774.0"/>
      <point x="957" y="1749" type="qcurve" smooth="yes"/>
      <point x="908.0" y="1724.0" name="inserted"/>
      <point x="828.5" y="1658.0"/>
      <point x="798" y="1617" type="qcurve" smooth="yes"/>
      <point x="767.5" y="1577.0" name="inserted"/>
      <point x="737.0" y="1497.0"/>
      <point x="737" y="1457" type="qcurve" smooth="yes"/>
      <point x="737" y="1380"/>
      <point x="824" y="1306"/>
      <point x="912" y="1295" type="qcurve"/>
    </contour>
  </outline>
</glyph>
<glyph name="uni0DA1_uni0DD6" format="1">
  <advance width="1639"/>
  <outline>
    <contour>
      <point x="807" y="-22" type="qcurve" smooth="yes"/>
      <point x="622" y="-22"/>
      <point x="347" y="52"/>
      <point x="255.5" y="121.0" type="qcurve" smooth="yes" name="inserted"/>
      <point x="164" y="190"/>
      <point x="74" y="389"/>
      <point x="74" y="514" type="qcurve" smooth="yes"/>
      <point x="74" y="723"/>
      <point x="337" y="932"/>
      <point x="599" y="932" type="qcurve" smooth="yes"/>
      <point x="630" y="932" type="line"/>
      <point x="625" y="1023"/>
      <point x="526" y="1119"/>
      <point x="441" y="1119" type="qcurve" smooth="yes"/>
      <point x="362.5" y="1119.0" name="inserted"/>
      <point x="284.0" y="1058.5"/>
      <point x="284" y="998" type="qcurve" smooth="yes"/>
      <point x="284.0" y="986.0" name="inserted"/>
      <point x="288.5" y="955.5"/>
      <point x="293" y="937" type="qcurve"/>
      <point x="149" y="914" type="line"/>
      <point x="142.0" y="939.0" name="inserted"/>
      <point x="135.0" y="990.0"/>
      <point x="135" y="1016" type="qcurve" smooth="yes"/>
      <point x="135" y="1131"/>
      <point x="289" y="1254"/>
      <point x="430" y="1254" type="qcurve" smooth="yes"/>
      <point x="598" y="1254"/>
      <point x="776" y="1062"/>
      <point x="776" y="880" type="qcurve" smooth="yes"/>
      <point x="776" y="797" type="line"/>
      <point x="600" y="797" type="line" smooth="yes"/>
      <point x="501" y="797"/>
      <point x="358" y="762"/>
      <point x="312.5" y="726.0" type="qcurve" smooth="yes" name="inserted"/>
      <point x="267" y="690"/>
      <point x="224" y="581"/>
      <point x="224" y="506" type="qcurve" smooth="yes"/>
      <point x="224.0" y="417.0" name="inserted"/>
      <point x="300.0" y="277.0"/>
      <point x="376" y="226" type="qcurve" smooth="yes"/>
      <point x="451.5" y="175.0" name="inserted"/>
      <point x="667.5" y="124.0"/>
      <point x="808" y="124" type="qcurve" smooth="yes"/>
      <point x="955.5" y="124.0" name="inserted"/>
      <point x="1180.5" y="175.5"/>
      <point x="1258" y="227" type="qcurve" smooth="yes"/>
      <point x="1336.5" y="278.5" name="inserted"/>
      <point x="1415.0" y="423.5"/>
      <point x="1415" y="517" type="qcurve" smooth="yes"/>
      <point x="1415.0" y="550.5" name="inserted"/>
      <point x="1408.5" y="604.0"/>
      <point x="1402" y="624" type="qcurve"/>
      <point x="1357.5" y="553.5" name="inserted"/>
      <point x="1221.0" y="483.0"/>
      <point x="1129" y="483" type="qcurve" smooth="yes"/>
      <point x="1072" y="482"/>
      <point x="968" y="520"/>
      <point x="928.0" y="564.5" type="qcurve" smooth="yes" name="inserted"/>
      <point x="888" y="609"/>
      <point x="840" y="754"/>
      <point x="840" y="860" type="qcurve" smooth="yes"/>
      <point x="840.0" y="987.0" name="inserted"/>
      <point x="931.5" y="1220.0"/>
      <point x="1023" y="1326" type="qcurve" smooth="yes"/>
      <point x="1114.5" y="1432.0" name="inserted"/>
      <point x="1365.5" y="1598.5"/>
      <point x="1525" y="1659" type="qcurve"/>
      <point x="1585" y="1530" type="line"/>
      <point x="1425.5" y="1472.0" name="inserted"/>
      <point x="1181.5" y="1319.0"/>
      <point x="1097" y="1224" type="qcurve"/>
      <point x="1123.0" y="1239.0" name="inserted"/>
      <point x="1178.0" y="1254.0"/>
      <point x="1207" y="1254" type="qcurve" smooth="yes"/>
      <point x="1273" y="1254"/>
      <point x="1375" y="1208"/>
      <point x="1409.5" y="1164.5" type="qcurve" smooth="yes" name="inserted"/>
      <point x="1444" y="1121"/>
      <point x="1480" y="997"/>
      <point x="1480" y="920" type="qcurve" smooth="yes"/>
      <point x="1480" y="883"/>
      <point x="1474" y="818"/>
      <point x="1469" y="789" type="qcurve"/>
      <point x="1517.0" y="737.0" name="inserted"/>
      <point x="1565.0" y="599.5"/>
      <point x="1565" y="514" type="qcurve" smooth="yes"/>
      <point x="1565.0" y="430.5" name="inserted"/>
      <point x="1525.5" y="289.0"/>
      <point x="1486" y="231" type="qcurve"/>
      <point x="1486" y="-535" type="line"/>
      <point x="1371" y="-535" type="line"/>
      <point x="1308.0" y="-491.0" name="inserted"/>
      <point x="1203.0" y="-428.5"/>
      <point x="1161" y="-410" type="qcurve" smooth="yes"/>
      <point x="1117.5" y="-391.0" name="inserted"/>
      <point x="1025.0" y="-372.0"/>
      <point x="976" y="-372" type="qcurve" smooth="yes"/>
      <point x="956.0" y="-372.0" name="inserted"/>
      <point x="910.0" y="-377.5"/>
      <point x="884" y="-383" type="qcurve" smooth="yes"/>
      <point x="859.0" y="-389.0" name="inserted"/>
      <point x="785.5" y="-416.0"/>
      <point x="737" y="-437" type="qcurve" smooth="yes"/>
      <point x="672" y="-466"/>
      <point x="572" y="-504"/>
      <point x="536" y="-514" type="qcurve" smooth="yes"/>
      <point x="500.5" y="-524.5" name="inserted"/>
      <point x="425.0" y="-535.0"/>
      <point x="385" y="-535" type="qcurve" smooth="yes"/>
      <point x="329.5" y="-535.0" name="inserted"/>
      <point x="237.0" y="-503.0"/>
      <point x="200" y="-471" type="qcurve" smooth="yes"/>
      <point x="162.5" y="-439.0" name="inserted"/>
      <point x="125.0" y="-348.5"/>
      <point x="125" y="-290" type="qcurve" smooth="yes"/>
      <point x="125" y="-224"/>
      <point x="183" y="-114"/>
      <point x="251" y="-55" type="qcurve"/>
      <point x="353" y="-159" type="line"/>
      <point x="313.5" y="-189.0" name="inserted"/>
      <point x="274.0" y="-252.5"/>
      <point x="274" y="-286" type="qcurve" smooth="yes"/>
      <point x="274" y="-340"/>
      <point x="344" y="-395"/>
      <point x="407" y="-395" type="qcurve" smooth="yes"/>
      <point x="431.5" y="-395.0" name="inserted"/>
      <point x="481.5" y="-387.0"/>
      <point x="507" y="-379" type="qcurve" smooth="yes"/>
      <point x="534.5" y="-371.5" name="inserted"/>
      <point x="604.0" y="-344.0"/>
      <point x="646" y="-324" type="qcurve" smooth="yes"/>
      <point x="705.0" y="-296.5" name="inserted"/>
      <point x="796.5" y="-259.0"/>
      <point x="829" y="-249" type="qcurve" smooth="yes"/>
      <point x="861.0" y="-239.5" name="inserted"/>
      <point x="935.5" y="-230.0"/>
      <point x="978" y="-230" type="qcurve" smooth="yes"/>
      <point x="1070" y="-230"/>
      <point x="1244" y="-296"/>
      <point x="1340" y="-361" type="qcurve"/>
      <point x="1339" y="-344"/>
      <point x="1338" y="-288"/>
      <point x="1338" y="-248" type="qcurve" smooth="yes"/>
      <point x="1338" y="-53" type="line" smooth="yes"/>
      <point x="1338" y="-8"/>
      <point x="1341" y="66"/>
      <point x="1343" y="96" type="qcurve"/>
      <point x="1247.5" y="37.0" name="inserted"/>
      <point x="979.5" y="-22.0"/>
    </contour>
    <contour>
      <point x="1037" y="932" type="line" smooth="yes"/>
      <point x="1127.0" y="932.0" name="inserted"/>
      <point x="1277.0" y="906.0"/>
      <point x="1337" y="880" type="qcurve"/>
      <point x="1337" y="885"/>
      <point x="1337" y="893"/>
      <point x="1338" y="897" type="qcurve"/>
      <point x="1338" y="915" type="line" smooth="yes"/>
      <point x="1338" y="1023"/>
      <point x="1253" y="1129"/>
      <point x="1171" y="1129" type="qcurve" smooth="yes"/>
      <point x="1092" y="1129"/>
      <point x="991" y="1025"/>
      <point x="979" y="932" type="qcurve"/>
    </contour>
    <contour>
      <point x="979" y="797" type="line"/>
      <point x="981.5" y="759.0" name="inserted"/>
      <point x="1000.5" y="695.5"/>
      <point x="1017" y="670" type="qcurve" smooth="yes"/>
      <point x="1034.0" y="644.0" name="inserted"/>
      <point x="1097.5" y="618.0"/>
      <point x="1144" y="618" type="qcurve" smooth="yes"/>
      <point x="1207.0" y="618.0" name="inserted"/>
      <point x="1291.5" y="677.0"/>
      <point x="1313" y="736" type="qcurve"/>
      <point x="1266.5" y="766.5" name="inserted"/>
      <point x="1119.5" y="797.0"/>
      <point x="1019" y="797" type="qcurve" smooth="yes"/>
    </contour>
  </outline>
</glyph>
<glyph name="uni0DA4_uni0DD6" format="1">
  <advance width="2658"/>
  <outline>
    <contour>
      <point x="2202" y="-22" type="qcurve" smooth="yes"/>
      <point x="2020.0" y="-22.0" name="inserted"/>
      <point x="1768.0" y="84.0"/>
      <point x="1698" y="190" type="qcurve"/>
      <point x="1661" y="84"/>
      <point x="1516" y="-22"/>
      <point x="1411" y="-22" type="qcurve" smooth="yes"/>
      <point x="1314.0" y="-22.0" name="inserted"/>
      <point x="1164.0" y="68.0"/>
      <point x="1111" y="158" type="qcurve"/>
      <point x="1059" y="63"/>
      <point x="924" y="-22"/>
      <point x="824" y="-22" type="qcurve" smooth="yes"/>
      <point x="749.0" y="-22.0" name="inserted"/>
      <point x="629.0" y="24.5"/>
      <point x="584" y="71" type="qcurve" smooth="yes"/>
      <point x="539.5" y="118.0" name="inserted"/>
      <point x="494.5" y="253.0"/>
      <point x="494" y="341" type="qcurve"/>
      <point x="468" y="295" type="line"/>
      <point x="338" y="368" type="line"/>
      <point x="467" y="553"/>
      <point x="693" y="827"/>
      <point x="792" y="920" type="qcurve"/>
      <point x="771.5" y="998.5" name="inserted"/>
      <point x="695.5" y="1077.0"/>
      <point x="640" y="1077" type="qcurve" smooth="yes"/>
      <point x="580" y="1077"/>
      <point x="511" y="1012"/>
      <point x="511" y="940" type="qcurve" smooth="yes"/>
      <point x="511.0" y="916.5" name="inserted"/>
      <point x="521.5" y="859.5"/>
      <point x="532" y="826" type="qcurve"/>
      <point x="389" y="797" type="line"/>
      <point x="384.0" y="811.0" name="inserted"/>
      <point x="375.5" y="850.0"/>
      <point x="372" y="875" type="qcurve" smooth="yes"/>
      <point x="368" y="901"/>
      <point x="365" y="948"/>
      <point x="365" y="968" type="qcurve" smooth="yes"/>
      <point x="365" y="977" type="line" smooth="yes"/>
      <point x="365.0" y="980.5" name="inserted"/>
      <point x="365.5" y="985.5"/>
      <point x="366" y="987" type="qcurve"/>
      <point x="295.0" y="926.5" name="inserted"/>
      <point x="224.0" y="743.0"/>
      <point x="224" y="620" type="qcurve" smooth="yes"/>
      <point x="224.0" y="560.5" name="inserted"/>
      <point x="241.0" y="451.5"/>
      <point x="258" y="402" type="qcurve" smooth="yes"/>
      <point x="275" y="352"/>
      <point x="334" y="245"/>
      <point x="376" y="186" type="qcurve"/>
      <point x="244" y="108" type="line"/>
      <point x="156" y="238"/>
      <point x="74" y="490"/>
      <point x="74" y="628" type="qcurve" smooth="yes"/>
      <point x="74.0" y="748.0" name="inserted"/>
      <point x="141.5" y="949.0"/>
      <point x="209" y="1030" type="qcurve" smooth="yes"/>
      <point x="277.5" y="1111.5" name="inserted"/>
      <point x="462.0" y="1201.0"/>
      <point x="578" y="1209" type="qcurve"/>
      <point x="584.5" y="1211.0" name="inserted"/>
      <point x="605.0" y="1213.0"/>
      <point x="619" y="1213" type="qcurve" smooth="yes"/>
      <point x="724.5" y="1213.0" name="inserted"/>
      <point x="866.0" y="1114.5"/>
      <point x="902" y="1016" type="qcurve"/>
      <point x="979.0" y="1078.0" name="inserted"/>
      <point x="1137.0" y="1168.5"/>
      <point x="1218" y="1197" type="qcurve" smooth="yes"/>
      <point x="1299.5" y="1225.5" name="inserted"/>
      <point x="1493.5" y="1254.0"/>
      <point x="1606" y="1254" type="qcurve" smooth="yes"/>
      <point x="1668.0" y="1254.0" name="inserted"/>
      <point x="1778.0" y="1245.0"/>
      <point x="1826" y="1236" type="qcurve" smooth="yes"/>
      <point x="1874.5" y="1227.5" name="inserted"/>
      <point x="1970.0" y="1200.5"/>
      <point x="2017" y="1182" type="qcurve"/>
      <point x="2057" y="1220"/>
      <point x="2165" y="1254"/>
      <point x="2244" y="1254" type="qcurve" smooth="yes"/>
      <point x="2416" y="1254"/>
      <point x="2597" y="1062"/>
      <point x="2597" y="880" type="qcurve" smooth="yes"/>
      <point x="2597" y="797" type="line"/>
      <point x="2282" y="797" type="line" smooth="yes"/>
      <point x="2192" y="797"/>
      <point x="2061" y="788"/>
      <point x="2016" y="780" type="qcurve" smooth="yes"/>
      <point x="1972.5" y="772.0" name="inserted"/>
      <point x="1898.0" y="742.0"/>
      <point x="1867" y="720" type="qcurve" smooth="yes"/>
      <point x="1806" y="678"/>
      <point x="1752" y="553"/>
      <point x="1752" y="468" type="qcurve" smooth="yes"/>
      <point x="1752.0" y="388.5" name="inserted"/>
      <point x="1812.0" y="262.5"/>
      <point x="1872" y="216" type="qcurve" smooth="yes"/>
      <point x="1932.5" y="170.0" name="inserted"/>
      <point x="2105.5" y="124.0"/>
      <point x="2218" y="124" type="qcurve" smooth="yes"/>
      <point x="2300.0" y="124.0" name="inserted"/>
      <point x="2459.5" y="154.0"/>
      <point x="2537" y="184" type="qcurve"/>
      <point x="2600" y="137" type="line"/>
      <point x="2600" y="-535" type="line"/>
      <point x="2472" y="-535" type="line"/>
      <point x="2414" y="-454"/>
      <point x="2308" y="-372"/>
      <point x="2245" y="-372" type="qcurve" smooth="yes"/>
      <point x="2227.5" y="-372.0" name="inserted"/>
      <point x="2192.0" y="-377.5"/>
      <point x="2174" y="-383" type="qcurve"/>
      <point x="2157.5" y="-389.0" name="inserted"/>
      <point x="2108.0" y="-413.0"/>
      <point x="2075" y="-431" type="qcurve" smooth="yes"/>
      <point x="2019" y="-461"/>
      <point x="1931" y="-502"/>
      <point x="1899" y="-513" type="qcurve" smooth="yes"/>
      <point x="1867.5" y="-524.0" name="inserted"/>
      <point x="1801.0" y="-535.0"/>
      <point x="1766" y="-535" type="qcurve" smooth="yes"/>
      <point x="1719.0" y="-535.0" name="inserted"/>
      <point x="1641.5" y="-502.0"/>
      <point x="1611" y="-469" type="qcurve" smooth="yes"/>
      <point x="1580.0" y="-436.5" name="inserted"/>
      <point x="1549.0" y="-349.5"/>
      <point x="1549" y="-295" type="qcurve" smooth="yes"/>
      <point x="1549" y="-226"/>
      <point x="1609" y="-112"/>
      <point x="1675" y="-55" type="qcurve"/>
      <point x="1777" y="-159" type="line"/>
      <point x="1735" y="-190"/>
      <point x="1698" y="-253"/>
      <point x="1698" y="-292" type="qcurve" smooth="yes"/>
      <point x="1698" y="-341"/>
      <point x="1750" y="-395"/>
      <point x="1798" y="-395" type="qcurve" smooth="yes"/>
      <point x="1821.5" y="-395.0" name="inserted"/>
      <point x="1864.0" y="-387.0"/>
      <point x="1883" y="-379" type="qcurve" smooth="yes"/>
      <point x="1903" y="-371"/>
      <point x="1957" y="-344"/>
      <point x="1991" y="-324" type="qcurve" smooth="yes"/>
      <point x="2039" y="-296"/>
      <point x="2109" y="-259"/>
      <point x="2134" y="-249" type="qcurve" smooth="yes"/>
      <point x="2158.0" y="-239.5" name="inserted"/>
      <point x="2209.5" y="-230.0"/>
      <point x="2237" y="-230" type="qcurve" smooth="yes"/>
      <point x="2270" y="-230"/>
      <point x="2327" y="-242"/>
      <point x="2352.5" y="-254.5" type="qcurve" smooth="yes" name="inserted"/>
      <point x="2378" y="-267"/>
      <point x="2428" y="-308"/>
      <point x="2455" y="-336" type="qcurve"/>
      <point x="2453.5" y="-304.0" name="inserted"/>
      <point x="2452.0" y="-239.5"/>
      <point x="2452" y="-207" type="qcurve" smooth="yes"/>
      <point x="2452" y="8" type="line"/>
      <point x="2396.5" y="-7.0" name="inserted"/>
      <point x="2271.5" y="-22.0"/>
    </contour>
    <contour>
      <point x="1662" y="686" type="qcurve"/>
      <point x="1688.0" y="743.0" name="inserted"/>
      <point x="1782.5" y="833.0"/>
      <point x="1851" y="866" type="qcurve" smooth="yes"/>
      <point x="1919.0" y="899.0" name="inserted"/>
      <point x="2132.0" y="932.0"/>
      <point x="2277" y="932" type="qcurve" smooth="yes"/>
      <point x="2451" y="932" type="line"/>
      <point x="2446" y="1020"/>
      <point x="2345" y="1119"/>
      <point x="2255" y="1119" type="qcurve" smooth="yes"/>
      <point x="2171" y="1119"/>
      <point x="2092" y="1056"/>
      <point x="2092" y="1007" type="qcurve" smooth="yes"/>
      <point x="2092.0" y="1001.5" name="inserted"/>
      <point x="2093.5" y="986.5"/>
      <point x="2095" y="977" type="qcurve"/>
      <point x="1948" y="959" type="line"/>
      <point x="1946" y="973"/>
      <point x="1944" y="998"/>
      <point x="1944" y="1009" type="qcurve" smooth="yes"/>
      <point x="1944" y="1026"/>
      <point x="1945" y="1048"/>
      <point x="1946" y="1054" type="qcurve"/>
      <point x="1867.0" y="1084.0" name="inserted"/>
      <point x="1703.0" y="1114.0"/>
      <point x="1618" y="1114" type="qcurve" smooth="yes"/>
      <point x="1511.5" y="1114.0" name="inserted"/>
      <point x="1325.5" y="1086.5"/>
      <point x="1246" y="1059" type="qcurve" smooth="yes"/>
      <point x="1166.0" y="1032.0" name="inserted"/>
      <point x="1016.0" y="944.0"/>
      <point x="946" y="883" type="qcurve"/>
      <point x="996.0" y="901.0" name="inserted"/>
      <point x="1114.0" y="919.0"/>
      <point x="1182" y="919" type="qcurve" smooth="yes"/>
      <point x="1356.5" y="919.0" name="inserted"/>
      <point x="1596.5" y="802.5"/>
    </contour>
    <contour>
      <point x="791" y="727" type="qcurve"/>
      <point x="740.5" y="670.5" name="inserted"/>
      <point x="629.5" y="526.5"/>
      <point x="569" y="439" type="qcurve"/>
      <point x="631" y="439" type="line"/>
      <point x="629" y="428"/>
      <point x="627" y="400"/>
      <point x="627" y="383" type="qcurve" smooth="yes"/>
      <point x="627" y="246"/>
      <point x="729" y="124"/>
      <point x="833" y="124" type="qcurve" smooth="yes"/>
      <point x="938" y="124"/>
      <point x="1042" y="269"/>
      <point x="1042" y="425" type="qcurve" smooth="yes"/>
      <point x="1042" y="439" type="line"/>
      <point x="1179" y="439" type="line"/>
      <point x="1179" y="417" type="line" smooth="yes"/>
      <point x="1179" y="349"/>
      <point x="1208" y="241"/>
      <point x="1236.0" y="203.0" type="qcurve" smooth="yes" name="inserted"/>
      <point x="1264" y="165"/>
      <point x="1344" y="124"/>
      <point x="1395" y="124" type="qcurve" smooth="yes"/>
      <point x="1498" y="124"/>
      <point x="1607" y="256"/>
      <point x="1607" y="391" type="qcurve" smooth="yes"/>
      <point x="1607" y="579"/>
      <point x="1376" y="779"/>
      <point x="1155" y="779" type="qcurve" smooth="yes"/>
      <point x="1088" y="779"/>
      <point x="983" y="772"/>
      <point x="944" y="765" type="qcurve" smooth="yes"/>
      <point x="905" y="758"/>
      <point x="829" y="740"/>
    </contour>
  </outline>
</glyph>
<glyph name="uni0DA6_uni0DD2" format="1">
  <advance width="1893"/>
  <outline>
    <contour>
      <point x="1768" y="1659" type="qcurve"/>
      <point x="1828" y="1530" type="line"/>
      <point x="1680.5" y="1479.0" name="inserted"/>
      <point x="1490.5" y="1339.0"/>
      <point x="1448" y="1250" type="qcurve"/>
      <point x="1461" y="1252"/>
      <point x="1483" y="1254"/>
      <point x="1492" y="1254" type="qcurve" smooth="yes"/>
      <point x="1551.5" y="1254.0" name="inserted"/>
      <point x="1648.0" y="1224.0"/>
      <point x="1685" y="1194" type="qcurve" smooth="yes"/>
      <point x="1721.5" y="1165.0" name="inserted"/>
      <point x="1758.0" y="1085.0"/>
      <point x="1758" y="1034" type="qcurve" smooth="yes"/>
      <point x="1758.0" y="965.0" name="inserted"/>
      <point x="1702.5" y="875.5"/>
      <point x="1647" y="855" type="qcurve"/>
      <point x="1733.0" y="803.5" name="inserted"/>
      <point x="1819.0" y="633.0"/>
      <point x="1819" y="514" type="qcurve" smooth="yes"/>
      <point x="1819" y="384"/>
      <point x="1724" y="184"/>
      <point x="1631.0" y="116.0" type="qcurve" smooth="yes" name="inserted"/>
      <point x="1538" y="48"/>
      <point x="1262" y="-22"/>
      <point x="1082" y="-22" type="qcurve" smooth="yes"/>
      <point x="902" y="-22"/>
      <point x="628" y="48"/>
      <point x="535.0" y="116.0" type="qcurve" smooth="yes" name="inserted"/>
      <point x="442" y="184"/>
      <point x="348" y="384"/>
      <point x="348" y="514" type="qcurve" smooth="yes"/>
      <point x="348" y="722"/>
      <point x="611" y="932"/>
      <point x="874" y="932" type="qcurve" smooth="yes"/>
      <point x="905" y="932" type="line"/>
      <point x="900" y="1023"/>
      <point x="801" y="1119"/>
      <point x="716" y="1119" type="qcurve" smooth="yes"/>
      <point x="637.0" y="1119.0" name="inserted"/>
      <point x="558.0" y="1058.5"/>
      <point x="558" y="998" type="qcurve" smooth="yes"/>
      <point x="558.0" y="986.0" name="inserted"/>
      <point x="563.0" y="955.5"/>
      <point x="568" y="937" type="qcurve"/>
      <point x="423" y="914" type="line"/>
      <point x="418.0" y="932.0" name="inserted"/>
      <point x="413.0" y="982.0"/>
      <point x="413" y="1014" type="qcurve" smooth="yes"/>
      <point x="413.0" y="1028.0" name="inserted"/>
      <point x="415.5" y="1052.0"/>
      <point x="418" y="1062" type="qcurve"/>
      <point x="321.0" y="1000.5" name="inserted"/>
      <point x="224.0" y="788.5"/>
      <point x="224" y="638" type="qcurve" smooth="yes"/>
      <point x="224.0" y="521.0" name="inserted"/>
      <point x="280.5" y="323.5"/>
      <point x="337" y="243" type="qcurve"/>
      <point x="203" y="170" type="line"/>
      <point x="140" y="275"/>
      <point x="74" y="518"/>
      <point x="74" y="646" type="qcurve" smooth="yes"/>
      <point x="74.0" y="739.5" name="inserted"/>
      <point x="111.0" y="901.5"/>
      <point x="148" y="970" type="qcurve" smooth="yes"/>
      <point x="223" y="1109"/>
      <point x="499" y="1254"/>
      <point x="679" y="1254" type="qcurve" smooth="yes"/>
      <point x="704" y="1254" type="line" smooth="yes"/>
      <point x="871" y="1254"/>
      <point x="1050" y="1066"/>
      <point x="1050" y="880" type="qcurve" smooth="yes"/>
      <point x="1050" y="797" type="line"/>
      <point x="875" y="797" type="line" smooth="yes"/>
      <point x="776" y="797"/>
      <point x="633" y="762"/>
      <point x="587.0" y="726.5" type="qcurve" smooth="yes" name="inserted"/>
      <point x="541" y="691"/>
      <point x="498" y="581"/>
      <point x="498" y="506" type="qcurve" smooth="yes"/>
      <point x="498.0" y="417.0" name="inserted"/>
      <point x="574.0" y="277.0"/>
      <point x="650" y="226" type="qcurve" smooth="yes"/>
      <point x="725.5" y="175.0" name="inserted"/>
      <point x="942.0" y="124.0"/>
      <point x="1083" y="124" type="qcurve" smooth="yes"/>
      <point x="1224.0" y="124.0" name="inserted"/>
      <point x="1441.0" y="174.5"/>
      <point x="1517" y="225" type="qcurve" smooth="yes"/>
      <point x="1593.0" y="275.5" name="inserted"/>
      <point x="1669.0" y="415.5"/>
      <point x="1669" y="505" type="qcurve" smooth="yes"/>
      <point x="1669" y="580"/>
      <point x="1626" y="690"/>
      <point x="1580.0" y="726.0" type="qcurve" smooth="yes" name="inserted"/>
      <point x="1534" y="762"/>
      <point x="1393" y="797"/>
      <point x="1294" y="797" type="qcurve" smooth="yes"/>
      <point x="1117" y="797" type="line"/>
      <point x="1117" y="880" type="line" smooth="yes"/>
      <point x="1117.0" y="1003.5" name="inserted"/>
      <point x="1206.5" y="1172.0"/>
      <point x="1296" y="1217" type="qcurve"/>
      <point x="1314.0" y="1286.0" name="inserted"/>
      <point x="1393.5" y="1413.5"/>
      <point x="1455" y="1472" type="qcurve" smooth="yes"/>
      <point x="1517.0" y="1530.0" name="inserted"/>
      <point x="1673.5" y="1623.5"/>
    </contour>
    <contour>
      <point x="1421" y="1119" type="qcurve"/>
      <point x="1420" y="1093" type="line"/>
      <point x="1420.0" y="1067.0" name="inserted"/>
      <point x="1421.5" y="1029.0"/>
      <point x="1423" y="1017" type="qcurve"/>
      <point x="1425.5" y="1004.0" name="inserted"/>
      <point x="1433.5" y="982.0"/>
      <point x="1439" y="973" type="qcurve" smooth="yes"/>
      <point x="1451.5" y="951.5" name="inserted"/>
      <point x="1496.0" y="930.0"/>
      <point x="1528" y="930" type="qcurve" smooth="yes"/>
      <point x="1568.5" y="930.0" name="inserted"/>
      <point x="1609.0" y="974.5"/>
      <point x="1609" y="1019" type="qcurve" smooth="yes"/>
      <point x="1609" y="1064"/>
      <point x="1537" y="1123"/>
      <point x="1473" y="1123" type="qcurve" smooth="yes"/>
      <point x="1455.0" y="1123.0" name="inserted"/>
      <point x="1429.0" y="1121.0"/>
    </contour>
    <contour>
      <point x="1323" y="932" type="line"/>
      <point x="1309.0" y="956.0" name="inserted"/>
      <point x="1291.5" y="1008.0"/>
      <point x="1288" y="1036" type="qcurve"/>
      <point x="1273.5" y="1014.0" name="inserted"/>
      <point x="1257.5" y="962.0"/>
      <point x="1256" y="932" type="qcurve"/>
    </contour>
    <contour>
      <point x="1170" y="1154" type="line"/>
      <point x="1004" y="1179"/>
      <point x="844" y="1327"/>
      <point x="844" y="1460" type="qcurve" smooth="yes"/>
      <point x="844.0" y="1518.5" name="inserted"/>
      <point x="884.5" y="1633.5"/>
      <point x="925" y="1690" type="qcurve" smooth="yes"/>
      <point x="966.5" y="1747.5" name="inserted"/>
      <point x="1074.5" y="1838.5"/>
      <point x="1141" y="1872" type="qcurve" smooth="yes"/>
      <point x="1208.5" y="1906.5" name="inserted"/>
      <point x="1349.0" y="1941.0"/>
      <point x="1422" y="1941" type="qcurve" smooth="yes"/>
      <point x="1557.0" y="1941.0" name="inserted"/>
      <point x="1709.5" y="1812.5"/>
      <point x="1727" y="1684" type="qcurve"/>
      <point x="1591" y="1632" type="line"/>
      <point x="1580" y="1720"/>
      <point x="1491" y="1799"/>
      <point x="1413" y="1799" type="qcurve" smooth="yes"/>
      <point x="1361.0" y="1799.0" name="inserted"/>
      <point x="1260.0" y="1774.0"/>
      <point x="1211" y="1749" type="qcurve" smooth="yes"/>
      <point x="1162.0" y="1724.0" name="inserted"/>
      <point x="1082.5" y="1658.0"/>
      <point x="1052" y="1617" type="qcurve" smooth="yes"/>
      <point x="1021.5" y="1577.0" name="inserted"/>
      <point x="991.0" y="1497.0"/>
      <point x="991" y="1457" type="qcurve" smooth="yes"/>
      <point x="991" y="1413"/>
      <point x="1020" y="1354"/>
      <point x="1047.0" y="1334.5" type="qcurve" smooth="yes" name="inserted"/>
      <point x="1074" y="1315"/>
      <point x="1153" y="1295"/>
      <point x="1204" y="1291" type="qcurve"/>
    </contour>
  </outline>
</glyph>
<glyph name="uni0DAC_uni0DCA" format="1">
  <advance width="2049"/>
  <outline>
    <contour>
      <point x="1966" y="659" type="qcurve" smooth="yes"/>
      <point x="1966" y="319"/>
      <point x="1718" y="-22"/>
      <point x="1477" y="-22" type="qcurve" smooth="yes"/>
      <point x="1368" y="-22"/>
      <point x="1203" y="62"/>
      <point x="1136" y="158" type="qcurve"/>
      <point x="1097.0" y="105.5" name="inserted"/>
      <point x="1018.0" y="34.0"/>
      <point x="978" y="15" type="qcurve" smooth="yes"/>
      <point x="939.0" y="-3.5" name="inserted"/>
      <point x="843.5" y="-22.0"/>
      <point x="787" y="-22" type="qcurve" smooth="yes"/>
      <point x="691.0" y="-22.0" name="inserted"/>
      <point x="538.0" y="37.0"/>
      <point x="481" y="96" type="qcurve" smooth="yes"/>
      <point x="424.5" y="155.5" name="inserted"/>
      <point x="368.0" y="316.5"/>
      <point x="368" y="418" type="qcurve" smooth="yes"/>
      <point x="368" y="548"/>
      <point x="480" y="743"/>
      <point x="591" y="804" type="qcurve"/>
      <point x="556" y="800"/>
      <point x="452" y="797"/>
      <point x="382" y="797" type="qcurve" smooth="yes"/>
      <point x="363" y="797" type="line"/>
      <point x="363" y="932" type="line"/>
      <point x="1021" y="932" type="line"/>
      <point x="1016" y="1022"/>
      <point x="916" y="1119"/>
      <point x="831" y="1119" type="qcurve" smooth="yes"/>
      <point x="752" y="1119"/>
      <point x="674" y="1060"/>
      <point x="674" y="1005" type="qcurve" smooth="yes"/>
      <point x="674" y="991" type="line" smooth="yes"/>
      <point x="674.0" y="986.0" name="inserted"/>
      <point x="674.5" y="979.5"/>
      <point x="675" y="978" type="qcurve"/>
      <point x="528" y="971" type="line"/>
      <point x="526.5" y="982.0" name="inserted"/>
      <point x="525.0" y="1004.5"/>
      <point x="525" y="1016" type="qcurve" smooth="yes"/>
      <point x="525.0" y="1042.5" name="inserted"/>
      <point x="531.5" y="1085.5"/>
      <point x="538" y="1102" type="qcurve"/>
      <point x="385" y="1060"/>
      <point x="224" y="822"/>
      <point x="224" y="638" type="qcurve" smooth="yes"/>
      <point x="224.0" y="520.5" name="inserted"/>
      <point x="280.5" y="322.5"/>
      <point x="337" y="242" type="qcurve"/>
      <point x="203" y="170" type="line"/>
      <point x="173.0" y="217.5" name="inserted"/>
      <point x="125.5" y="329.0"/>
      <point x="108" y="393" type="qcurve" smooth="yes"/>
      <point x="91.0" y="456.5" name="inserted"/>
      <point x="74.0" y="582.5"/>
      <point x="74" y="645" type="qcurve" smooth="yes"/>
      <point x="74.0" y="737.5" name="inserted"/>
      <point x="111.5" y="899.0"/>
      <point x="149" y="968" type="qcurve" smooth="yes"/>
      <point x="186" y="1037"/>
      <point x="298" y="1144"/>
      <point x="368.5" y="1180.0" type="qcurve" smooth="yes" name="inserted"/>
      <point x="439" y="1216"/>
      <point x="607" y="1254"/>
      <point x="702" y="1254" type="qcurve" smooth="yes"/>
      <point x="728" y="1254"/>
      <point x="767" y="1253"/>
      <point x="780" y="1252" type="qcurve"/>
      <point x="789" y="1253"/>
      <point x="808" y="1254"/>
      <point x="819" y="1254" type="qcurve" smooth="yes"/>
      <point x="988" y="1254"/>
      <point x="1166" y="1063"/>
      <point x="1166" y="881" type="qcurve" smooth="yes"/>
      <point x="1166" y="797" type="line"/>
      <point x="1075" y="797" type="line" smooth="yes"/>
      <point x="999.0" y="797.0" name="inserted"/>
      <point x="882.0" y="791.0"/>
      <point x="841" y="785" type="qcurve" smooth="yes"/>
      <point x="799.5" y="779.0" name="inserted"/>
      <point x="719.5" y="751.0"/>
      <point x="681" y="729" type="qcurve" smooth="yes"/>
      <point x="603" y="686"/>
      <point x="518" y="530"/>
      <point x="518" y="418" type="qcurve" smooth="yes"/>
      <point x="518" y="278"/>
      <point x="662" y="124"/>
      <point x="792" y="124" type="qcurve" smooth="yes"/>
      <point x="932" y="124"/>
      <point x="1067" y="272"/>
      <point x="1067" y="425" type="qcurve" smooth="yes"/>
      <point x="1067" y="439" type="line"/>
      <point x="1204" y="439" type="line"/>
      <point x="1204" y="425" type="line" smooth="yes"/>
      <point x="1204" y="269"/>
      <point x="1336" y="124"/>
      <point x="1473" y="124" type="qcurve" smooth="yes"/>
      <point x="1642.0" y="124.0" name="inserted"/>
      <point x="1811.0" y="391.5"/>
      <point x="1811" y="659" type="qcurve" smooth="yes"/>
      <point x="1811.0" y="853.0" name="inserted"/>
      <point x="1719.5" y="1138.0"/>
      <point x="1628" y="1229" type="qcurve" smooth="yes"/>
      <point x="1537.0" y="1319.5" name="inserted"/>
      <point x="1253.0" y="1410.0"/>
      <point x="1060" y="1410" type="qcurve" smooth="yes"/>
      <point x="977.5" y="1410.0" name="inserted"/>
      <point x="825.5" y="1399.5"/>
      <point x="756" y="1389" type="qcurve" smooth="yes"/>
      <point x="687" y="1379"/>
      <point x="540" y="1344"/>
      <point x="462" y="1318" type="qcurve"/>
      <point x="421" y="1453" type="line"/>
      <point x="438" y="1459"/>
      <point x="490" y="1474"/>
      <point x="525" y="1484" type="qcurve"/>
      <point x="519.0" y="1506.5" name="inserted"/>
      <point x="513.0" y="1555.5"/>
      <point x="513" y="1582" type="qcurve" smooth="yes"/>
      <point x="513" y="1770"/>
      <point x="833" y="1959"/>
      <point x="1150" y="1959" type="qcurve" smooth="yes"/>
      <point x="1496.5" y="1959.0" name="inserted"/>
      <point x="1843.0" y="1768.0"/>
      <point x="1843" y="1577" type="qcurve" smooth="yes"/>
      <point x="1843.0" y="1530.5" name="inserted"/>
      <point x="1822.0" y="1435.5"/>
      <point x="1801" y="1387" type="qcurve"/>
      <point x="1666" y="1429" type="line"/>
      <point x="1681.0" y="1460.5" name="inserted"/>
      <point x="1696.0" y="1533.5"/>
      <point x="1696" y="1575" type="qcurve" smooth="yes"/>
      <point x="1696" y="1700"/>
      <point x="1425" y="1816"/>
      <point x="1153" y="1816" type="qcurve" smooth="yes"/>
      <point x="911" y="1816"/>
      <point x="660" y="1704"/>
      <point x="660" y="1577" type="qcurve" smooth="yes"/>
      <point x="660" y="1563"/>
      <point x="663" y="1532"/>
      <point x="665" y="1515" type="qcurve"/>
      <point x="767.5" y="1534.0" name="inserted"/>
      <point x="962.5" y="1553.0"/>
      <point x="1055" y="1553" type="qcurve" smooth="yes"/>
      <point x="1287" y="1553"/>
      <point x="1630" y="1444"/>
      <point x="1743.0" y="1333.5" type="qcurve" smooth="yes" name="inserted"/>
      <point x="1856" y="1223"/>
      <point x="1966" y="887"/>
    </contour>
  </outline>
</glyph>
<glyph name="uni0DB1_uni0DCA_uni200D_uni0DAF_uni0DCA_uni200D_uni0DBB" format="1">
  <advance width="2264"/>
  <outline>
    <contour>
      <point x="1808" y="-22" type="qcurve" smooth="yes"/>
      <point x="1615" y="-22"/>
      <point x="1349" y="101"/>
      <point x="1283" y="224" type="qcurve"/>
      <point x="1222.0" y="101.0" name="inserted"/>
      <point x="960.5" y="-22.0"/>
      <point x="760" y="-22" type="qcurve" smooth="yes"/>
      <point x="625.5" y="-22.0" name="inserted"/>
      <point x="400.0" y="48.0"/>
      <point x="309" y="118" type="qcurve" smooth="yes"/>
      <point x="218.5" y="188.5" name="inserted"/>
      <point x="103.0" y="396.5"/>
      <point x="78" y="534" type="qcurve"/>
      <point x="224" y="558" type="line"/>
      <point x="227" y="545"/>
      <point x="234" y="520"/>
      <point x="238" y="508" type="qcurve"/>
      <point x="313" y="517"/>
      <point x="405" y="606"/>
      <point x="436" y="687" type="qcurve" smooth="yes"/>
      <point x="452" y="729" type="line" smooth="yes"/>
      <point x="471" y="779"/>
      <point x="500" y="851"/>
      <point x="511" y="874" type="qcurve"/>
      <point x="492" y="979"/>
      <point x="413" y="1077"/>
      <point x="349" y="1077" type="qcurve" smooth="yes"/>
      <point x="292" y="1077"/>
      <point x="220" y="1012"/>
      <point x="220" y="940" type="qcurve" smooth="yes"/>
      <point x="220" y="925"/>
      <point x="222" y="900"/>
      <point x="225.0" y="887.5" type="qcurve" smooth="yes" name="inserted"/>
      <point x="228" y="875"/>
      <point x="236" y="845"/>
      <point x="242" y="826" type="qcurve"/>
      <point x="99" y="797" type="line"/>
      <point x="85.5" y="838.0" name="inserted"/>
      <point x="72.0" y="918.0"/>
      <point x="72" y="957" type="qcurve" smooth="yes"/>
      <point x="72" y="1017"/>
      <point x="110" y="1112"/>
      <point x="145.5" y="1145.0" type="qcurve" smooth="yes" name="inserted"/>
      <point x="181" y="1178"/>
      <point x="283" y="1213"/>
      <point x="347" y="1213" type="qcurve" smooth="yes"/>
      <point x="448.0" y="1213.0" name="inserted"/>
      <point x="582.5" y="1106.0"/>
      <point x="616" y="999" type="qcurve"/>
      <point x="716" y="1126"/>
      <point x="1011" y="1254"/>
      <point x="1195" y="1254" type="qcurve" smooth="yes"/>
      <point x="1315.5" y="1254.0" name="inserted"/>
      <point x="1519.5" y="1207.5"/>
      <point x="1603" y="1161" type="qcurve"/>
      <point x="1613" y="1172" type="line" smooth="yes"/>
      <point x="1650" y="1214"/>
      <point x="1762" y="1254"/>
      <point x="1850" y="1254" type="qcurve" smooth="yes"/>
      <point x="2022" y="1254"/>
      <point x="2203" y="1062"/>
      <point x="2203" y="880" type="qcurve" smooth="yes"/>
      <point x="2203" y="797" type="line"/>
      <point x="1888" y="797" type="line" smooth="yes"/>
      <point x="1798" y="797"/>
      <point x="1667" y="788"/>
      <point x="1622" y="780" type="qcurve" smooth="yes"/>
      <point x="1578.5" y="772.0" name="inserted"/>
      <point x="1504.0" y="742.0"/>
      <point x="1473" y="720" type="qcurve" smooth="yes"/>
      <point x="1412" y="678"/>
      <point x="1358" y="553"/>
      <point x="1358" y="468" type="qcurve" smooth="yes"/>
      <point x="1358.0" y="388.5" name="inserted"/>
      <point x="1418.0" y="262.5"/>
      <point x="1478" y="216" type="qcurve" smooth="yes"/>
      <point x="1538.5" y="170.0" name="inserted"/>
      <point x="1711.5" y="124.0"/>
      <point x="1824" y="124" type="qcurve" smooth="yes"/>
      <point x="1927.0" y="124.0" name="inserted"/>
      <point x="2118.0" y="168.0"/>
      <point x="2206" y="212" type="qcurve"/>
      <point x="2248" y="75" type="line"/>
      <point x="2235" y="68"/>
      <point x="2219" y="60"/>
      <point x="2215" y="58" type="qcurve"/>
      <point x="2219.5" y="36.0" name="inserted"/>
      <point x="2224.0" y="-20.5"/>
      <point x="2224" y="-55" type="qcurve" smooth="yes"/>
      <point x="2224" y="-153"/>
      <point x="2158" y="-307"/>
      <point x="2093.0" y="-360.5" type="qcurve" smooth="yes" name="inserted"/>
      <point x="2028" y="-414"/>
      <point x="1832" y="-470"/>
      <point x="1703" y="-470" type="qcurve" smooth="yes"/>
      <point x="1446" y="-470"/>
      <point x="1185" y="-265"/>
      <point x="1185" y="-73" type="qcurve" smooth="yes"/>
      <point x="1185" y="-56" type="line" smooth="yes"/>
      <point x="1185" y="-51"/>
      <point x="1185" y="-41"/>
      <point x="1186" y="-36" type="qcurve"/>
      <point x="1335" y="-43" type="line"/>
      <point x="1335" y="-50" type="line" smooth="yes"/>
      <point x="1335" y="-125"/>
      <point x="1380" y="-230"/>
      <point x="1425.5" y="-262.5" type="qcurve" smooth="yes" name="inserted"/>
      <point x="1471" y="-295"/>
      <point x="1610" y="-325"/>
      <point x="1703" y="-325" type="qcurve" smooth="yes"/>
      <point x="1794" y="-325"/>
      <point x="1933" y="-296"/>
      <point x="1979.5" y="-262.0" type="qcurve" smooth="yes" name="inserted"/>
      <point x="2026" y="-228"/>
      <point x="2074" y="-117"/>
      <point x="2074" y="-35" type="qcurve" smooth="yes"/>
      <point x="2074" y="-25"/>
      <point x="2073" y="-9"/>
      <point x="2072" y="-2" type="qcurve"/>
      <point x="2072.0" y="2.5" name="inserted"/>
      <point x="2071.5" y="8.5"/>
      <point x="2071" y="10" type="qcurve"/>
      <point x="2017.0" y="-6.0" name="inserted"/>
      <point x="1885.5" y="-22.0"/>
    </contour>
    <contour>
      <point x="701" y="898" type="qcurve"/>
      <point x="740.5" y="908.5" name="inserted"/>
      <point x="828.0" y="919.0"/>
      <point x="876" y="919" type="qcurve" smooth="yes"/>
      <point x="1025.5" y="919.0" name="inserted"/>
      <point x="1228.5" y="816.0"/>
      <point x="1282" y="713" type="qcurve"/>
      <point x="1302.5" y="749.0" name="inserted"/>
      <point x="1362.0" y="810.0"/>
      <point x="1401" y="835" type="qcurve" smooth="yes"/>
      <point x="1441" y="860"/>
      <point x="1535" y="897"/>
      <point x="1590" y="908" type="qcurve" smooth="yes"/>
      <point x="1644.5" y="920.0" name="inserted"/>
      <point x="1790.5" y="932.0"/>
      <point x="1882" y="932" type="qcurve" smooth="yes"/>
      <point x="2057" y="932" type="line"/>
      <point x="2052" y="1020"/>
      <point x="1951" y="1119"/>
      <point x="1861" y="1119" type="qcurve" smooth="yes"/>
      <point x="1777" y="1119"/>
      <point x="1698" y="1058"/>
      <point x="1698" y="1007" type="qcurve" smooth="yes"/>
      <point x="1698.0" y="998.0" name="inserted"/>
      <point x="1699.5" y="983.0"/>
      <point x="1701" y="977" type="qcurve"/>
      <point x="1554" y="959" type="line"/>
      <point x="1552" y="973"/>
      <point x="1550" y="998"/>
      <point x="1550" y="1009" type="qcurve" smooth="yes"/>
      <point x="1550" y="1027" type="line"/>
      <point x="1504" y="1051"/>
      <point x="1415" y="1084"/>
      <point x="1370.0" y="1094.5" type="qcurve" smooth="yes" name="inserted"/>
      <point x="1325" y="1105"/>
      <point x="1231" y="1114"/>
      <point x="1180" y="1114" type="qcurve" smooth="yes"/>
      <point x="1022.0" y="1114.0" name="inserted"/>
      <point x="782.5" y="1006.0"/>
    </contour>
    <contour>
      <point x="287" y="388" type="qcurve"/>
      <point x="355" y="252"/>
      <point x="586" y="124"/>
      <point x="768" y="124" type="qcurve" smooth="yes"/>
      <point x="877" y="124"/>
      <point x="1041" y="172"/>
      <point x="1096.5" y="217.5" type="qcurve" smooth="yes" name="inserted"/>
      <point x="1152" y="263"/>
      <point x="1208" y="393"/>
      <point x="1208" y="474" type="qcurve" smooth="yes"/>
      <point x="1208" y="623"/>
      <point x="1014" y="779"/>
      <point x="839" y="779" type="qcurve" smooth="yes"/>
      <point x="775.5" y="779.0" name="inserted"/>
      <point x="665.0" y="767.0"/>
      <point x="618" y="755" type="qcurve"/>
      <point x="610" y="738"/>
      <point x="595" y="698"/>
      <point x="587" y="676" type="qcurve" smooth="yes"/>
      <point x="565" y="612"/>
      <point x="509" y="513"/>
      <point x="473.0" y="478.0" type="qcurve" smooth="yes" name="inserted"/>
      <point x="437" y="443"/>
      <point x="345" y="398"/>
    </contour>
  </outline>
</glyph>
<glyph name="uni0DB3_uni0DD2" format="1">
  <advance width="1400"/>
  <outline>
    <contour>
      <point x="943" y="-22" type="qcurve" smooth="yes"/>
      <point x="801.5" y="-22.0" name="inserted"/>
      <point x="579.5" y="43.5"/>
      <point x="499" y="109" type="qcurve" smooth="yes"/>
      <point x="419.0" y="174.0" name="inserted"/>
      <point x="339.0" y="358.0"/>
      <point x="339" y="477" type="qcurve" smooth="yes"/>
      <point x="339" y="586"/>
      <point x="415" y="757"/>
      <point x="493" y="817" type="qcurve" smooth="yes"/>
      <point x="531.0" y="846.0" name="inserted"/>
      <point x="623.0" y="889.5"/>
      <point x="677" y="904" type="qcurve" smooth="yes"/>
      <point x="729.5" y="918.0" name="inserted"/>
      <point x="890.0" y="932.0"/>
      <point x="998" y="932" type="qcurve" smooth="yes"/>
      <point x="1193" y="932" type="line"/>
      <point x="1188" y="1022"/>
      <point x="1084" y="1119"/>
      <point x="996" y="1119" type="qcurve" smooth="yes"/>
      <point x="914" y="1119"/>
      <point x="834" y="1058"/>
      <point x="834" y="1007" type="qcurve" smooth="yes"/>
      <point x="834" y="998"/>
      <point x="835" y="983"/>
      <point x="836" y="977" type="qcurve"/>
      <point x="690" y="959" type="line"/>
      <point x="688" y="974"/>
      <point x="685" y="999"/>
      <point x="685" y="1009" type="qcurve" smooth="yes"/>
      <point x="685.0" y="1044.5" name="inserted"/>
      <point x="698.0" y="1102.0"/>
      <point x="711" y="1124" type="qcurve"/>
      <point x="595.0" y="1124.0" name="inserted"/>
      <point x="415.0" y="1060.0"/>
      <point x="351" y="996" type="qcurve" smooth="yes"/>
      <point x="287.5" y="932.5" name="inserted"/>
      <point x="224.0" y="753.5"/>
      <point x="224" y="638" type="qcurve" smooth="yes"/>
      <point x="224.0" y="527.5" name="inserted"/>
      <point x="276.5" y="327.0"/>
      <point x="329" y="237" type="qcurve"/>
      <point x="192" y="170" type="line"/>
      <point x="135" y="273"/>
      <point x="74" y="518"/>
      <point x="74" y="645" type="qcurve" smooth="yes"/>
      <point x="74.0" y="737.5" name="inserted"/>
      <point x="111.5" y="899.0"/>
      <point x="149" y="968" type="qcurve" smooth="yes"/>
      <point x="186" y="1037"/>
      <point x="298" y="1144"/>
      <point x="368.5" y="1180.0" type="qcurve" smooth="yes" name="inserted"/>
      <point x="439" y="1216"/>
      <point x="607" y="1254"/>
      <point x="702" y="1254" type="qcurve" smooth="yes"/>
      <point x="757" y="1254"/>
      <point x="843" y="1248"/>
      <point x="875" y="1243" type="qcurve"/>
      <point x="898.0" y="1248.5" name="inserted"/>
      <point x="953.5" y="1254.0"/>
      <point x="986" y="1254" type="qcurve" smooth="yes"/>
      <point x="1156" y="1254"/>
      <point x="1338" y="1065"/>
      <point x="1338" y="880" type="qcurve" smooth="yes"/>
      <point x="1338" y="797" type="line"/>
      <point x="1023" y="797" type="line" smooth="yes"/>
      <point x="934.5" y="797.0" name="inserted"/>
      <point x="800.5" y="788.5"/>
      <point x="755" y="780" type="qcurve" smooth="yes"/>
      <point x="711.0" y="772.0" name="inserted"/>
      <point x="637.0" y="742.0"/>
      <point x="607" y="720" type="qcurve" smooth="yes"/>
      <point x="547" y="678"/>
      <point x="494" y="553"/>
      <point x="494" y="468" type="qcurve" smooth="yes"/>
      <point x="494.0" y="388.5" name="inserted"/>
      <point x="554.0" y="262.5"/>
      <point x="614" y="216" type="qcurve" smooth="yes"/>
      <point x="674.5" y="170.0" name="inserted"/>
      <point x="847.5" y="124.0"/>
      <point x="960" y="124" type="qcurve" smooth="yes"/>
      <point x="1063.0" y="124.0" name="inserted"/>
      <point x="1254.0" y="168.0"/>
      <point x="1342" y="212" type="qcurve"/>
      <point x="1384" y="75" type="line"/>
      <point x="1341" y="52"/>
      <point x="1245" y="17"/>
      <point x="1191" y="4" type="qcurve"/>
      <point x="1124.5" y="-50.5" name="inserted"/>
      <point x="1058.0" y="-174.5"/>
      <point x="1058" y="-244" type="qcurve" smooth="yes"/>
      <point x="1058.0" y="-329.5" name="inserted"/>
      <point x="1155.0" y="-415.0"/>
      <point x="1252" y="-415" type="qcurve" smooth="yes"/>
      <point x="1293.5" y="-415.0" name="inserted"/>
      <point x="1366.5" y="-399.5"/>
      <point x="1398" y="-384" type="qcurve"/>
      <point x="1431" y="-515" type="line"/>
      <point x="1386.5" y="-535.0" name="inserted"/>
      <point x="1281.5" y="-555.0"/>
      <point x="1221" y="-555" type="qcurve" smooth="yes"/>
      <point x="1146" y="-555"/>
      <point x="1029" y="-513"/>
      <point x="988.5" y="-473.5" type="qcurve" smooth="yes" name="inserted"/>
      <point x="948" y="-434"/>
      <point x="906" y="-320"/>
      <point x="906" y="-248" type="qcurve" smooth="yes"/>
      <point x="906.0" y="-186.5" name="inserted"/>
      <point x="949.0" y="-73.0"/>
      <point x="992" y="-21" type="qcurve"/>
      <point x="967" y="-21" type="line"/>
      <point x="961" y="-22"/>
      <point x="949" y="-22"/>
    </contour>
    <contour>
      <point x="1164" y="1257" type="line"/>
      <point x="1181.0" y="1297.5" name="inserted"/>
      <point x="1198.0" y="1378.0"/>
      <point x="1198" y="1418" type="qcurve" smooth="yes"/>
      <point x="1198" y="1527"/>
      <point x="1014" y="1650"/>
      <point x="836" y="1650" type="qcurve" smooth="yes"/>
      <point x="748" y="1650"/>
      <point x="619" y="1619"/>
      <point x="577.0" y="1590.5" type="qcurve" smooth="yes" name="inserted"/>
      <point x="535" y="1562"/>
      <point x="494" y="1484"/>
      <point x="494" y="1438" type="qcurve" smooth="yes"/>
      <point x="494.0" y="1399.0" name="inserted"/>
      <point x="516.0" y="1321.5"/>
      <point x="538" y="1283" type="qcurve"/>
      <point x="398" y="1251" type="line"/>
      <point x="372.5" y="1300.5" name="inserted"/>
      <point x="347.0" y="1396.5"/>
      <point x="347" y="1443" type="qcurve" smooth="yes"/>
      <point x="347.0" y="1523.0" name="inserted"/>
      <point x="410.0" y="1650.5"/>
      <point x="473" y="1698" type="qcurve" smooth="yes"/>
      <point x="536.5" y="1746.0" name="inserted"/>
      <point x="718.5" y="1794.0"/>
      <point x="837" y="1794" type="qcurve" smooth="yes"/>
      <point x="959.5" y="1794.0" name="inserted"/>
      <point x="1147.5" y="1743.0"/>
      <point x="1213" y="1692" type="qcurve" smooth="yes"/>
      <point x="1279.0" y="1641.5" name="inserted"/>
      <point x="1345.0" y="1507.5"/>
      <point x="1345" y="1424" type="qcurve" smooth="yes"/>
      <point x="1345.0" y="1376.5" name="inserted"/>
      <point x="1322.0" y="1271.0"/>
      <point x="1299" y="1213" type="qcurve"/>
    </contour>
  </outline>
</glyph>
<glyph name="uni0DB9_uni0DCA" format="1">
  <advance width="1811"/>
  <outline>
    <contour>
      <point x="1727" y="710" type="qcurve" smooth="yes"/>
      <point x="1727.0" y="538.0" name="inserted"/>
      <point x="1653.5" y="269.5"/>
      <point x="1580" y="173" type="qcurve" smooth="yes"/>
      <point x="1507.0" y="76.0" name="inserted"/>
      <point x="1296.5" y="-21.0"/>
      <point x="1159" y="-21" type="qcurve" smooth="yes"/>
      <point x="1090.0" y="-21.0" name="inserted"/>
      <point x="983.5" y="-9.5"/>
      <point x="946" y="2" type="qcurve"/>
      <point x="932" y="137" type="line"/>
      <point x="976.5" y="148.5" name="inserted"/>
      <point x="1021.0" y="197.5"/>
      <point x="1021" y="235" type="qcurve" smooth="yes"/>
      <point x="1021.0" y="287.5" name="inserted"/>
      <point x="942.0" y="340.0"/>
      <point x="863" y="340" type="qcurve" smooth="yes"/>
      <point x="784" y="340"/>
      <point x="703" y="286"/>
      <point x="703" y="235" type="qcurve" smooth="yes"/>
      <point x="703.0" y="197.5" name="inserted"/>
      <point x="747.5" y="148.5"/>
      <point x="792" y="137" type="qcurve"/>
      <point x="778" y="2" type="line"/>
      <point x="739.5" y="-10.0" name="inserted"/>
      <point x="657.5" y="-22.0"/>
      <point x="614" y="-22" type="qcurve" smooth="yes"/>
      <point x="492.0" y="-22.0" name="inserted"/>
      <point x="298.0" y="62.5"/>
      <point x="226" y="147" type="qcurve" smooth="yes"/>
      <point x="154.5" y="232.0" name="inserted"/>
      <point x="83.0" y="465.0"/>
      <point x="83" y="613" type="qcurve" smooth="yes"/>
      <point x="81" y="742"/>
      <point x="139" y="952"/>
      <point x="191.5" y="1026.5" type="qcurve" smooth="yes" name="inserted"/>
      <point x="244" y="1101"/>
      <point x="386" y="1180"/>
      <point x="467" y="1179" type="qcurve" smooth="yes"/>
      <point x="510" y="1179"/>
      <point x="576" y="1155"/>
      <point x="598.5" y="1133.5" type="qcurve" smooth="yes" name="inserted"/>
      <point x="621" y="1112"/>
      <point x="644" y="1053"/>
      <point x="644" y="1019" type="qcurve" smooth="yes"/>
      <point x="644" y="1000"/>
      <point x="639" y="947"/>
      <point x="634" y="912" type="qcurve" smooth="yes"/>
      <point x="629" y="877"/>
      <point x="623" y="815"/>
      <point x="623" y="789" type="qcurve" smooth="yes"/>
      <point x="623.0" y="696.0" name="inserted"/>
      <point x="738.5" y="603.0"/>
      <point x="854" y="603" type="qcurve" smooth="yes"/>
      <point x="963.0" y="603.0" name="inserted"/>
      <point x="1092.5" y="688.0"/>
      <point x="1113" y="773" type="qcurve"/>
      <point x="1074.5" y="749.5" name="inserted"/>
      <point x="984.5" y="726.0"/>
      <point x="933" y="726" type="qcurve" smooth="yes"/>
      <point x="822" y="726"/>
      <point x="697" y="846"/>
      <point x="697" y="951" type="qcurve" smooth="yes"/>
      <point x="697.0" y="1000.5" name="inserted"/>
      <point x="732.5" y="1082.5"/>
      <point x="768" y="1115" type="qcurve" smooth="yes"/>
      <point x="803.0" y="1147.0" name="inserted"/>
      <point x="902.0" y="1179.0"/>
      <point x="966" y="1179" type="qcurve" smooth="yes"/>
      <point x="1031.0" y="1179.0" name="inserted"/>
      <point x="1137.5" y="1135.5"/>
      <point x="1179" y="1092" type="qcurve" smooth="yes"/>
      <point x="1220.0" y="1049.0" name="inserted"/>
      <point x="1261.0" y="926.0"/>
      <point x="1261" y="846" type="qcurve" smooth="yes"/>
      <point x="1261.0" y="760.5" name="inserted"/>
      <point x="1206.0" y="623.0"/>
      <point x="1151" y="571" type="qcurve" smooth="yes"/>
      <point x="1096.0" y="520.0" name="inserted"/>
      <point x="948.0" y="469.0"/>
      <point x="855" y="469" type="qcurve" smooth="yes"/>
      <point x="753" y="469"/>
      <point x="610" y="519"/>
      <point x="565.0" y="561.5" type="qcurve" smooth="yes" name="inserted"/>
      <point x="520" y="604"/>
      <point x="479" y="718"/>
      <point x="479" y="782" type="qcurve" smooth="yes"/>
      <point x="479" y="804"/>
      <point x="484" y="857"/>
      <point x="489" y="889" type="qcurve" smooth="yes"/>
      <point x="493.5" y="920.5" name="inserted"/>
      <point x="498.0" y="962.5"/>
      <point x="498" y="973" type="qcurve" smooth="yes"/>
      <point x="498.0" y="1008.5" name="inserted"/>
      <point x="468.0" y="1044.0"/>
      <point x="438" y="1044" type="qcurve"/>
      <point x="400" y="1046"/>
      <point x="326" y="984"/>
      <point x="296.5" y="927.5" type="qcurve" smooth="yes" name="inserted"/>
      <point x="267" y="871"/>
      <point x="231" y="713"/>
      <point x="233" y="620" type="qcurve" smooth="yes"/>
      <point x="233.0" y="501.5" name="inserted"/>
      <point x="282.5" y="316.5"/>
      <point x="332" y="250" type="qcurve" smooth="yes"/>
      <point x="382.5" y="183.0" name="inserted"/>
      <point x="520.0" y="116.0"/>
      <point x="607" y="116" type="qcurve" smooth="yes"/>
      <point x="617" y="116" type="line"/>
      <point x="617.5" y="115.5" name="inserted"/>
      <point x="619.0" y="115.0"/>
      <point x="620" y="115" type="qcurve" smooth="yes"/>
      <point x="622.0" y="115.0" name="inserted"/>
      <point x="625.5" y="115.5"/>
      <point x="627" y="116" type="qcurve"/>
      <point x="592.5" y="144.5" name="inserted"/>
      <point x="558.0" y="217.5"/>
      <point x="558" y="262" type="qcurve" smooth="yes"/>
      <point x="558" y="359"/>
      <point x="707" y="463"/>
      <point x="850" y="463" type="qcurve" smooth="yes"/>
      <point x="877" y="463" type="line" smooth="yes"/>
      <point x="1016" y="463"/>
      <point x="1166" y="359"/>
      <point x="1166" y="262" type="qcurve" smooth="yes"/>
      <point x="1166.0" y="218.0" name="inserted"/>
      <point x="1131.5" y="145.0"/>
      <point x="1097" y="116" type="qcurve"/>
      <point x="1155" y="116" type="line" smooth="yes"/>
      <point x="1257.0" y="116.0" name="inserted"/>
      <point x="1412.5" y="193.5"/>
      <point x="1466" y="271" type="qcurve" smooth="yes"/>
      <point x="1520.0" y="349.0" name="inserted"/>
      <point x="1574.0" y="570.5"/>
      <point x="1574" y="714" type="qcurve" smooth="yes"/>
      <point x="1574" y="1060"/>
      <point x="1202" y="1410"/>
      <point x="835" y="1410" type="qcurve" smooth="yes"/>
      <point x="743" y="1410"/>
      <point x="574" y="1398"/>
      <point x="496" y="1385" type="qcurve" smooth="yes"/>
      <point x="418" y="1372"/>
      <point x="259" y="1331"/>
      <point x="177" y="1302" type="qcurve"/>
      <point x="140" y="1438" type="line"/>
      <point x="251" y="1471" type="line"/>
      <point x="243.0" y="1495.5" name="inserted"/>
      <point x="235.0" y="1551.0"/>
      <point x="235" y="1582" type="qcurve" smooth="yes"/>
      <point x="235.0" y="1770.5" name="inserted"/>
      <point x="558.5" y="1959.0"/>
      <point x="882" y="1959" type="qcurve" smooth="yes"/>
      <point x="1235" y="1959"/>
      <point x="1591" y="1772"/>
      <point x="1591" y="1577" type="qcurve" smooth="yes"/>
      <point x="1591.0" y="1530.5" name="inserted"/>
      <point x="1570.0" y="1435.5"/>
      <point x="1549" y="1387" type="qcurve"/>
      <point x="1414" y="1429" type="line"/>
      <point x="1429.0" y="1460.5" name="inserted"/>
      <point x="1444.0" y="1533.5"/>
      <point x="1444" y="1575" type="qcurve" smooth="yes"/>
      <point x="1444" y="1701"/>
      <point x="1162" y="1816"/>
      <point x="885" y="1816" type="qcurve" smooth="yes"/>
      <point x="767" y="1816"/>
      <point x="590" y="1792"/>
      <point x="532" y="1770" type="qcurve" smooth="yes"/>
      <point x="489" y="1753"/>
      <point x="432" y="1715"/>
      <point x="415.0" y="1692.0" type="qcurve" smooth="yes" name="inserted"/>
      <point x="398" y="1669"/>
      <point x="383" y="1613"/>
      <point x="382" y="1577" type="qcurve"/>
      <point x="382.0" y="1557.0" name="inserted"/>
      <point x="385.5" y="1521.5"/>
      <point x="389" y="1506" type="qcurve"/>
      <point x="492" y="1529"/>
      <point x="716" y="1553"/>
      <point x="841" y="1553" type="qcurve" smooth="yes"/>
      <point x="1050.0" y="1553.0" name="inserted"/>
      <point x="1376.0" y="1445.0"/>
      <point x="1493" y="1337" type="qcurve" smooth="yes"/>
      <point x="1610.0" y="1229.5" name="inserted"/>
      <point x="1727.0" y="916.0"/>
    </contour>
    <contour>
      <point x="1117" y="895" type="qcurve"/>
      <point x="1106" y="970"/>
      <point x="1026" y="1048"/>
      <point x="963" y="1048" type="qcurve" smooth="yes"/>
      <point x="905" y="1048"/>
      <point x="841" y="1000"/>
      <point x="841" y="951" type="qcurve" smooth="yes"/>
      <point x="841" y="903"/>
      <point x="901" y="852"/>
      <point x="955" y="852" type="qcurve" smooth="yes"/>
      <point x="1001.0" y="852.0" name="inserted"/>
      <point x="1082.0" y="873.5"/>
    </contour>
  </outline>
</glyph>
<glyph name="uni0DBD_uni0DCA_uni200D_uni0DBB_uni0DD3" format="1">
  <advance width="1744"/>
  <outline>
    <contour>
      <point x="1657" y="776" type="qcurve" smooth="yes"/>
      <point x="1657.0" y="689.5" name="inserted"/>
      <point x="1599.5" y="552.0"/>
      <point x="1542" y="501" type="qcurve" smooth="yes"/>
      <point x="1484.0" y="450.5" name="inserted"/>
      <point x="1323.0" y="400.0"/>
      <point x="1220" y="400" type="qcurve" smooth="yes"/>
      <point x="1043" y="400"/>
      <point x="865" y="541"/>
      <point x="865" y="681" type="qcurve" smooth="yes"/>
      <point x="865.0" y="697.5" name="inserted"/>
      <point x="870.5" y="733.0"/>
      <point x="876" y="752" type="qcurve"/>
      <point x="566" y="752" type="line"/>
      <point x="566" y="889" type="line"/>
      <point x="1330" y="889" type="line"/>
      <point x="1330" y="752" type="line"/>
      <point x="1031" y="752" type="line"/>
      <point x="1023.0" y="737.5" name="inserted"/>
      <point x="1015.0" y="703.5"/>
      <point x="1015" y="684" type="qcurve" smooth="yes"/>
      <point x="1015.0" y="612.5" name="inserted"/>
      <point x="1116.5" y="541.0"/>
      <point x="1218" y="541" type="qcurve" smooth="yes"/>
      <point x="1358" y="541"/>
      <point x="1503" y="662"/>
      <point x="1503" y="774" type="qcurve" smooth="yes"/>
      <point x="1503" y="948"/>
      <point x="1248" y="1114"/>
      <point x="989" y="1114" type="qcurve" smooth="yes"/>
      <point x="804.5" y="1114.0" name="inserted"/>
      <point x="522.0" y="1034.0"/>
      <point x="424" y="954" type="qcurve" smooth="yes"/>
      <point x="326.0" y="874.0" name="inserted"/>
      <point x="228.0" y="649.5"/>
      <point x="228" y="505" type="qcurve" smooth="yes"/>
      <point x="228.0" y="374.5" name="inserted"/>
      <point x="317.0" y="173.0"/>
      <point x="406" y="102" type="qcurve" smooth="yes"/>
      <point x="495.0" y="31.0" name="inserted"/>
      <point x="747.0" y="-40.0"/>
      <point x="910" y="-40" type="qcurve" smooth="yes"/>
      <point x="1210" y="-40"/>
      <point x="1522" y="141"/>
      <point x="1522" y="321" type="qcurve" smooth="yes"/>
      <point x="1522" y="335" type="line"/>
      <point x="1669" y="345" type="line"/>
      <point x="1672" y="323" type="line"/>
      <point x="1673" y="319"/>
      <point x="1673" y="311"/>
      <point x="1673" y="306" type="qcurve" smooth="yes"/>
      <point x="1673.0" y="229.5" name="inserted"/>
      <point x="1627.5" y="97.0"/>
      <point x="1582" y="41" type="qcurve" smooth="yes"/>
      <point x="1536.0" y="-15.0" name="inserted"/>
      <point x="1403.0" y="-100.0"/>
      <point x="1316" y="-129" type="qcurve" smooth="yes"/>
      <point x="1228.5" y="-158.5" name="inserted"/>
      <point x="1027.0" y="-188.0"/>
      <point x="913" y="-188" type="qcurve" smooth="yes"/>
      <point x="702" y="-189"/>
      <point x="386" y="-88"/>
      <point x="281.0" y="4.0" type="qcurve" smooth="yes" name="inserted"/>
      <point x="176" y="96"/>
      <point x="72" y="352"/>
      <point x="74" y="507" type="qcurve" smooth="yes"/>
      <point x="74.0" y="620.0" name="inserted"/>
      <point x="128.5" y="817.5"/>
      <point x="183" y="902" type="qcurve" smooth="yes"/>
      <point x="237.5" y="986.5" name="inserted"/>
      <point x="396.0" y="1117.0"/>
      <point x="500" y="1163" type="qcurve" smooth="yes"/>
      <point x="603.5" y="1208.5" name="inserted"/>
      <point x="845.5" y="1254.0"/>
      <point x="984" y="1254" type="qcurve" smooth="yes"/>
      <point x="1019" y="1254"/>
      <point x="1072" y="1252"/>
      <point x="1092" y="1250" type="qcurve"/>
      <point x="1048.5" y="1280.5" name="inserted"/>
      <point x="1005.0" y="1376.0"/>
      <point x="1005" y="1441" type="qcurve" smooth="yes"/>
      <point x="1005.0" y="1491.5" name="inserted"/>
      <point x="1048.5" y="1590.0"/>
      <point x="1092" y="1638" type="qcurve"/>
      <point x="1047.5" y="1644.0" name="inserted"/>
      <point x="956.5" y="1650.0"/>
      <point x="910" y="1650" type="qcurve" smooth="yes"/>
      <point x="696.5" y="1650.0" name="inserted"/>
      <point x="483.0" y="1529.0"/>
      <point x="483" y="1408" type="qcurve" smooth="yes"/>
      <point x="483.0" y="1368.0" name="inserted"/>
      <point x="515.5" y="1282.5"/>
      <point x="548" y="1237" type="qcurve"/>
      <point x="410" y="1188" type="line"/>
      <point x="373.0" y="1244.0" name="inserted"/>
      <point x="336.0" y="1359.5"/>
      <point x="336" y="1419" type="qcurve" smooth="yes"/>
      <point x="336.0" y="1506.0" name="inserted"/>
      <point x="409.5" y="1643.5"/>
      <point x="483" y="1694" type="qcurve" smooth="yes"/>
      <point x="556.0" y="1744.0" name="inserted"/>
      <point x="769.5" y="1794.0"/>
      <point x="910" y="1794" type="qcurve" smooth="yes"/>
      <point x="1056.5" y="1794.0" name="inserted"/>
      <point x="1280.0" y="1747.0"/>
      <point x="1357" y="1700" type="qcurve" smooth="yes"/>
      <point x="1434.0" y="1653.0" name="inserted"/>
      <point x="1511.0" y="1524.5"/>
      <point x="1511" y="1443" type="qcurve" smooth="yes"/>
      <point x="1511" y="1341"/>
      <point x="1418" y="1222"/>
      <point x="1328" y="1207" type="qcurve"/>
      <point x="1489" y="1155"/>
      <point x="1657" y="937"/>
    </contour>
    <contour>
      <point x="1229" y="1606" type="qcurve"/>
      <point x="1185.0" y="1572.5" name="inserted"/>
      <point x="1141.0" y="1491.0"/>
      <point x="1141" y="1443" type="qcurve" smooth="yes"/>
      <point x="1141" y="1389"/>
      <point x="1204" y="1331"/>
      <point x="1261" y="1331" type="qcurve" smooth="yes"/>
      <point x="1314.5" y="1331.0" name="inserted"/>
      <point x="1368.0" y="1383.5"/>
      <point x="1368" y="1436" type="qcurve" smooth="yes"/>
      <point x="1368.0" y="1495.0" name="inserted"/>
      <point x="1298.5" y="1580.0"/>
    </contour>
    <contour>
      <point x="284" y="-81" type="line"/>
      <point x="284" y="-91" type="line" smooth="yes"/>
      <point x="284" y="-136"/>
      <point x="297" y="-207"/>
      <point x="311.0" y="-235.5" type="qcurve" smooth="yes" name="inserted"/>
      <point x="325" y="-264"/>
      <point x="369" y="-310"/>
      <point x="401" y="-330" type="qcurve" smooth="yes"/>
      <point x="467" y="-372"/>
      <point x="708" y="-410"/>
      <point x="877" y="-410" type="qcurve" smooth="yes"/>
      <point x="1184" y="-410"/>
      <point x="1490" y="-247"/>
      <point x="1490" y="-75" type="qcurve" smooth="yes"/>
      <point x="1490" y="-58" type="line"/>
      <point x="1638" y="-51" type="line"/>
      <point x="1639" y="-71" type="line" smooth="yes"/>
      <point x="1639.0" y="-111.5" name="inserted"/>
      <point x="1633.5" y="-177.0"/>
      <point x="1628" y="-202" type="qcurve" smooth="yes"/>
      <point x="1612" y="-273"/>
      <point x="1520" y="-400"/>
      <point x="1428" y="-451" type="qcurve" smooth="yes"/>
      <point x="1335" y="-502"/>
      <point x="1056" y="-555"/>
      <point x="877" y="-555" type="qcurve" smooth="yes"/>
      <point x="697" y="-553"/>
      <point x="420" y="-509"/>
      <point x="325.5" y="-458.0" type="qcurve" smooth="yes" name="inserted"/>
      <point x="231" y="-407"/>
      <point x="134" y="-241"/>
      <point x="134" y="-117" type="qcurve" smooth="yes"/>
      <point x="134" y="-93" type="line" smooth="yes"/>
      <point x="134" y="-88"/>
      <point x="134" y="-79"/>
      <point x="135" y="-74" type="qcurve"/>
    </contour>
  </outline>
</glyph>
<glyph name="uni0DC5_uni0DCA_uni200D_uni0DBB" format="1">
  <advance width="1932"/>
  <outline>
    <contour>
      <point x="1859" y="818" type="qcurve" smooth="yes"/>
      <point x="1859.0" y="691.0" name="inserted"/>
      <point x="1809.0" y="468.5"/>
      <point x="1759" y="373" type="qcurve" smooth="yes"/>
      <point x="1659" y="180"/>
      <point x="1276" y="-22"/>
      <point x="1005" y="-22" type="qcurve" smooth="yes"/>
      <point x="850" y="-23"/>
      <point x="604" y="53"/>
      <point x="518.0" y="123.0" type="qcurve" smooth="yes" name="inserted"/>
      <point x="432" y="193"/>
      <point x="341" y="391"/>
      <point x="343" y="513" type="qcurve" smooth="yes"/>
      <point x="343.0" y="608.5" name="inserted"/>
      <point x="416.5" y="761.0"/>
      <point x="490" y="818" type="qcurve" smooth="yes"/>
      <point x="564.0" y="875.0" name="inserted"/>
      <point x="769.5" y="932.0"/>
      <point x="901" y="932" type="qcurve" smooth="yes"/>
      <point x="1024" y="932" type="line"/>
      <point x="1019" y="1023"/>
      <point x="920" y="1119"/>
      <point x="835" y="1119" type="qcurve" smooth="yes"/>
      <point x="756.5" y="1119.0" name="inserted"/>
      <point x="678.0" y="1058.5"/>
      <point x="678" y="998" type="qcurve" smooth="yes"/>
      <point x="678" y="988"/>
      <point x="681" y="967"/>
      <point x="683" y="955" type="qcurve"/>
      <point x="538" y="931" type="line"/>
      <point x="533.5" y="955.5" name="inserted"/>
      <point x="529.0" y="998.0"/>
      <point x="529" y="1016" type="qcurve" smooth="yes"/>
      <point x="529.0" y="1039.5" name="inserted"/>
      <point x="537.0" y="1083.5"/>
      <point x="545" y="1104" type="qcurve"/>
      <point x="388" y="1062"/>
      <point x="224" y="821"/>
      <point x="224" y="638" type="qcurve" smooth="yes"/>
      <point x="224.0" y="521.0" name="inserted"/>
      <point x="280.5" y="323.5"/>
      <point x="337" y="243" type="qcurve"/>
      <point x="203" y="170" type="line"/>
      <point x="140" y="275"/>
      <point x="74" y="518"/>
      <point x="74" y="646" type="qcurve" smooth="yes"/>
      <point x="74.0" y="739.0" name="inserted"/>
      <point x="111.5" y="901.0"/>
      <point x="149" y="970" type="qcurve" smooth="yes"/>
      <point x="187.0" y="1039.0" name="inserted"/>
      <point x="297.0" y="1144.5"/>
      <point x="369" y="1181" type="qcurve" smooth="yes"/>
      <point x="441.5" y="1217.5" name="inserted"/>
      <point x="608.0" y="1254.0"/>
      <point x="702" y="1254" type="qcurve" smooth="yes"/>
      <point x="715" y="1254"/>
      <point x="743" y="1252"/>
      <point x="760" y="1250" type="qcurve"/>
      <point x="780" y="1252"/>
      <point x="812" y="1254"/>
      <point x="823" y="1254" type="qcurve" smooth="yes"/>
      <point x="990" y="1254"/>
      <point x="1170" y="1065"/>
      <point x="1170" y="880" type="qcurve" smooth="yes"/>
      <point x="1170" y="797" type="line"/>
      <point x="945" y="797" type="line" smooth="yes"/>
      <point x="860.5" y="797.0" name="inserted"/>
      <point x="728.0" y="781.0"/>
      <point x="680" y="765" type="qcurve" smooth="yes"/>
      <point x="586" y="733"/>
      <point x="493" y="608"/>
      <point x="493" y="511" type="qcurve" smooth="yes"/>
      <point x="493.0" y="420.5" name="inserted"/>
      <point x="561.0" y="278.5"/>
      <point x="629" y="227" type="qcurve" smooth="yes"/>
      <point x="697.0" y="175.5" name="inserted"/>
      <point x="885.0" y="124.0"/>
      <point x="1005" y="124" type="qcurve" smooth="yes"/>
      <point x="1115.5" y="124.0" name="inserted"/>
      <point x="1304.5" y="165.5"/>
      <point x="1383" y="207" type="qcurve" smooth="yes"/>
      <point x="1462" y="249"/>
      <point x="1580" y="370"/>
      <point x="1622" y="451" type="qcurve" smooth="yes"/>
      <point x="1663.5" y="532.5" name="inserted"/>
      <point x="1705.0" y="720.5"/>
      <point x="1705" y="827" type="qcurve" smooth="yes"/>
      <point x="1705.0" y="930.0" name="inserted"/>
      <point x="1661.5" y="1112.0"/>
      <point x="1618" y="1191" type="qcurve"/>
      <point x="1575" y="1134"/>
      <point x="1456" y="1071"/>
      <point x="1384" y="1071" type="qcurve" smooth="yes"/>
      <point x="1264" y="1071"/>
      <point x="1142" y="1214"/>
      <point x="1142" y="1359" type="qcurve" smooth="yes"/>
      <point x="1142" y="1415"/>
      <point x="1138" y="1493"/>
      <point x="1134" y="1516" type="qcurve" smooth="yes"/>
      <point x="1130.0" y="1540.0" name="inserted"/>
      <point x="1106.0" y="1575.0"/>
      <point x="1086" y="1586" type="qcurve"/>
      <point x="1079" y="1589" type="line"/>
      <point x="1130" y="1713" type="line"/>
      <point x="1308.5" y="1656.0" name="inserted"/>
      <point x="1579.5" y="1483.0"/>
      <point x="1672" y="1367" type="qcurve" smooth="yes"/>
      <point x="1765.5" y="1252.0" name="inserted"/>
      <point x="1859.0" y="977.5"/>
    </contour>
    <contour>
      <point x="1542" y="1302" type="qcurve"/>
      <point x="1488.5" y="1364.5" name="inserted"/>
      <point x="1345.5" y="1471.5"/>
      <point x="1256" y="1516" type="qcurve"/>
      <point x="1267.5" y="1491.0" name="inserted"/>
      <point x="1281.0" y="1410.5"/>
      <point x="1283" y="1355" type="qcurve" smooth="yes"/>
      <point x="1285" y="1311"/>
      <point x="1299" y="1254"/>
      <point x="1312.5" y="1237.0" type="qcurve" smooth="yes" name="inserted"/>
      <point x="1326" y="1220"/>
      <point x="1367" y="1206"/>
      <point x="1394" y="1206" type="qcurve" smooth="yes"/>
      <point x="1445" y="1206"/>
      <point x="1514" y="1253"/>
    </contour>
    <contour>
      <point x="528" y="6" type="line"/>
      <point x="528" y="-5" type="line" smooth="yes"/>
      <point x="528" y="-62"/>
      <point x="544" y="-147"/>
      <point x="560.5" y="-179.5" type="qcurve" smooth="yes" name="inserted"/>
      <point x="577" y="-212"/>
      <point x="625" y="-259"/>
      <point x="657" y="-277" type="qcurve" smooth="yes"/>
      <point x="721" y="-314"/>
      <point x="927" y="-352"/>
      <point x="1080" y="-352" type="qcurve" smooth="yes"/>
      <point x="1240" y="-352"/>
      <point x="1453" y="-297"/>
      <point x="1513" y="-243" type="qcurve" smooth="yes"/>
      <point x="1543" y="-217"/>
      <point x="1588" y="-153"/>
      <point x="1602.5" y="-112.0" type="qcurve" smooth="yes" name="inserted"/>
      <point x="1617" y="-71"/>
      <point x="1631" y="31"/>
      <point x="1631" y="95" type="qcurve" smooth="yes"/>
      <point x="1631" y="122" type="line"/>
      <point x="1778" y="133" type="line"/>
      <point x="1779.5" y="121.5" name="inserted"/>
      <point x="1781.0" y="89.5"/>
      <point x="1781" y="69" type="qcurve" smooth="yes"/>
      <point x="1781.0" y="-39.0" name="inserted"/>
      <point x="1740.0" y="-206.5"/>
      <point x="1699" y="-266" type="qcurve" smooth="yes"/>
      <point x="1618" y="-387"/>
      <point x="1310" y="-497"/>
      <point x="1080" y="-497" type="qcurve" smooth="yes"/>
      <point x="908" y="-497"/>
      <point x="645" y="-446"/>
      <point x="556.5" y="-390.0" type="qcurve" smooth="yes" name="inserted"/>
      <point x="468" y="-334"/>
      <point x="378" y="-158"/>
      <point x="378" y="-32" type="qcurve" smooth="yes"/>
      <point x="378" y="-19"/>
      <point x="379" y="4"/>
      <point x="380" y="14" type="qcurve"/>
    </contour>
  </outline>
</glyph>
<glyph name="uni0DCA_uni200D_uni0DBA" format="1">
  <advance width="1384"/>
  <outline>
    <contour>
      <point x="1285" y="1015" type="qcurve" smooth="yes"/>
      <point x="1285.0" y="990.0" name="inserted"/>
      <point x="1278.5" y="939.5"/>
      <point x="1272" y="914" type="qcurve"/>
      <point x="1127" y="937" type="line"/>
      <point x="1132.0" y="952.0" name="inserted"/>
      <point x="1137.0" y="982.5"/>
      <point x="1137" y="998" type="qcurve" smooth="yes"/>
      <point x="1137.0" y="1058.5" name="inserted"/>
      <point x="1051" y="1107"/>
      <point x="975" y="1112" type="qcurve" smooth="yes"/>
      <point x="942" y="1114"/>
      <point x="808" y="1023"/>
      <point x="799" y="932" type="qcurve"/>
      <point x="1043" y="905"/>
      <point x="1301" y="644"/>
      <point x="1301" y="421" type="qcurve" smooth="yes"/>
      <point x="1301.0" y="318.5" name="inserted"/>
      <point x="1243.0" y="156.5"/>
      <point x="1185" y="97" type="qcurve" smooth="yes"/>
      <point x="1127.0" y="37.5" name="inserted"/>
      <point x="973.5" y="-22.0"/>
      <point x="878" y="-22" type="qcurve" smooth="yes"/>
      <point x="822.0" y="-22.0" name="inserted"/>
      <point x="715.0" y="-5.5"/>
      <point x="664" y="11" type="qcurve" smooth="yes"/>
      <point x="612.5" y="28.0" name="inserted"/>
      <point x="493" y="109"/>
      <point x="425" y="152" type="qcurve" smooth="yes"/>
      <point x="401" y="167"/>
      <point x="359" y="129"/>
      <point x="339" y="136" type="qcurve" smooth="yes" name="inserted"/>
      <point x="319" y="142"/>
      <point x="278" y="189"/>
      <point x="254" y="189" type="qcurve"/>
      <point x="238.5" y="154.5" name="inserted"/>
      <point x="215.0" y="54.5"/>
      <point x="207" y="-11" type="qcurve"/>
      <point x="47" y="19" type="line"/>
      <point x="48" y="51" name="inserted"/>
      <point x="59" y="118"/>
      <point x="70" y="153" type="qcurve" smooth="yes"/>
      <point x="81" y="188" name="inserted"/>
      <point x="109" y="259"/>
      <point x="127" y="294" type="qcurve" smooth="yes"/>
      <point x="146" y="329" name="inserted"/>
      <point x="194" y="440"/>
      <point x="234" y="505" type="qcurve" smooth="yes"/>
      <point x="274" y="570"/>
      <point x="331" y="667"/>
      <point x="348" y="701" type="qcurve" smooth="yes"/>
      <point x="383" y="768"/>
      <point x="413" y="871"/>
      <point x="413" y="932" type="qcurve" smooth="yes"/>
      <point x="413" y="1014"/>
      <point x="388" y="1091"/>
      <point x="328" y="1091" type="qcurve" smooth="yes"/>
      <point x="268" y="1091"/>
      <point x="214" y="1037"/>
      <point x="211" y="1002" type="qcurve" smooth="yes"/>
      <point x="210" y="987" name="inserted"/>
      <point x="211" y="955"/>
      <point x="215" y="937" type="qcurve"/>
      <point x="67" y="914" type="line"/>
      <point x="60.5" y="934.0" name="inserted"/>
      <point x="54.0" y="985.0"/>
      <point x="54" y="1016" type="qcurve" smooth="yes"/>
      <point x="54.0" y="1071.5" name="inserted"/>
      <point x="90.5" y="1158.5"/>
      <point x="127" y="1190" type="qcurve" smooth="yes"/>
      <point x="163.5" y="1222.0" name="inserted"/>
      <point x="259.0" y="1254.0"/>
      <point x="318" y="1254" type="qcurve" smooth="yes"/>
      <point x="381.5" y="1254.0" name="inserted"/>
      <point x="482.5" y="1215.0"/>
      <point x="520" y="1176" type="qcurve" smooth="yes"/>
      <point x="558.0" y="1137.5" name="inserted"/>
      <point x="596.0" y="1030.0"/>
      <point x="596" y="961" type="qcurve" smooth="yes"/>
      <point x="596.0" y="926.0" name="inserted"/>
      <point x="586.0" y="850.0"/>
      <point x="576" y="809" type="qcurve" smooth="yes"/>
      <point x="566.5" y="769.5" name="inserted"/>
      <point x="535.5" y="689.0"/>
      <point x="514" y="648" type="qcurve" smooth="yes"/>
      <point x="493.5" y="607.5" name="inserted"/>
      <point x="426.0" y="493.5"/>
      <point x="379" y="420" type="qcurve" smooth="yes"/>
      <point x="364" y="396"/>
      <point x="336" y="348"/>
      <point x="322" y="325" type="qcurve"/>
      <point x="345.5" y="323.0" name="inserted"/>
      <point x="395" y="370"/>
      <point x="420" y="359" type="qcurve" smooth="yes"/>
      <point x="445" y="350" name="inserted"/>
      <point x="511" y="316"/>
      <point x="551" y="291" type="qcurve" smooth="yes"/>
      <point x="609" y="256"/>
      <point x="701" y="212"/>
      <point x="736" y="202" type="qcurve" smooth="yes"/>
      <point x="771" y="193" name="inserted"/>
      <point x="841" y="184"/>
      <point x="876" y="184" type="qcurve" smooth="yes"/>
      <point x="938" y="184" name="inserted"/>
      <point x="1038" y="221"/>
      <point x="1076" y="258" type="qcurve" smooth="yes"/>
      <point x="1114" y="296" name="inserted"/>
      <point x="1125" y="399"/>
      <point x="1127" y="471" type="qcurve" smooth="yes"/>
      <point x="1130" y="583" name="inserted"/>
      <point x="902" y="738"/>
      <point x="653" y="738" type="qcurve"/>
      <point x="653" y="862" type="line" smooth="yes"/>
      <point x="653" y="1053"/>
      <point x="831" y="1254"/>
      <point x="999" y="1254" type="qcurve" smooth="yes"/>
      <point x="1140" y="1254"/>
      <point x="1285" y="1126"/>
    </contour>
  </outline>
</glyph>
<glyph name="uni0DCA_uni200D_uni0DBB" format="1">
  <advance width="0"/>
  <outline>
    <contour>
      <point x="-1174" y="-69" type="line"/>
      <point x="-1174" y="-110"/>
      <point x="-1164" y="-173"/>
      <point x="-1153.5" y="-198.5" type="qcurve" smooth="yes" name="inserted"/>
      <point x="-1143" y="-224"/>
      <point x="-1109" y="-264"/>
      <point x="-1085" y="-282" type="qcurve" smooth="yes"/>
      <point x="-1037" y="-317"/>
      <point x="-854" y="-352"/>
      <point x="-726" y="-352" type="qcurve" smooth="yes"/>
      <point x="-651.0" y="-352.0" name="inserted"/>
      <point x="-527.5" y="-338.0"/>
      <point x="-479" y="-324" type="qcurve" smooth="yes"/>
      <point x="-430.0" y="-310.5" name="inserted"/>
      <point x="-355.5" y="-264.5"/>
      <point x="-330" y="-232" type="qcurve" smooth="yes"/>
      <point x="-304.5" y="-200.0" name="inserted"/>
      <point x="-279.0" y="-100.5"/>
      <point x="-279" y="-33" type="qcurve"/>
      <point x="-280" y="-18" type="line"/>
      <point x="-130" y="-9" type="line"/>
      <point x="-129" y="-29" type="line" smooth="yes"/>
      <point x="-129" y="-76"/>
      <point x="-135" y="-154"/>
      <point x="-143.0" y="-188.0" type="qcurve" smooth="yes" name="inserted"/>
      <point x="-151" y="-222"/>
      <point x="-178" y="-283"/>
      <point x="-199" y="-312" type="qcurve" smooth="yes"/>
      <point x="-230" y="-354"/>
      <point x="-321" y="-423"/>
      <point x="-385.0" y="-447.0" type="qcurve" smooth="yes" name="inserted"/>
      <point x="-449" y="-471"/>
      <point x="-617" y="-497"/>
      <point x="-726" y="-497" type="qcurve" smooth="yes"/>
      <point x="-876" y="-497"/>
      <point x="-1100" y="-452"/>
      <point x="-1174.5" y="-403.5" type="qcurve" smooth="yes" name="inserted"/>
      <point x="-1249" y="-355"/>
      <point x="-1324" y="-205"/>
      <point x="-1324" y="-100" type="qcurve" smooth="yes"/>
      <point x="-1324" y="-79" type="line" smooth="yes"/>
      <point x="-1324" y="-75"/>
      <point x="-1324" y="-67"/>
      <point x="-1323" y="-62" type="qcurve"/>
    </contour>
  </outline>
</glyph>
